%TF.GenerationSoftware,KiCad,Pcbnew,10.0.1*%
%TF.CreationDate,2026-07-16T16:07:39+02:00*%
%TF.ProjectId,BirdNest_pcb,42697264-4e65-4737-945f-7063622e6b69,v2.0*%
%TF.SameCoordinates,Original*%
%TF.FileFunction,Copper,L1,Top*%
%TF.FilePolarity,Positive*%
%FSLAX46Y46*%
G04 Gerber Fmt 4.6, Leading zero omitted, Abs format (unit mm)*
G04 Created by KiCad (PCBNEW 10.0.1) date 2026-07-16 16:07:39*
%MOMM*%
%LPD*%
G01*
G04 APERTURE LIST*
G04 Aperture macros list*
%AMRoundRect*
0 Rectangle with rounded corners*
0 $1 Rounding radius*
0 $2 $3 $4 $5 $6 $7 $8 $9 X,Y pos of 4 corners*
0 Add a 4 corners polygon primitive as box body*
4,1,4,$2,$3,$4,$5,$6,$7,$8,$9,$2,$3,0*
0 Add four circle primitives for the rounded corners*
1,1,$1+$1,$2,$3*
1,1,$1+$1,$4,$5*
1,1,$1+$1,$6,$7*
1,1,$1+$1,$8,$9*
0 Add four rect primitives between the rounded corners*
20,1,$1+$1,$2,$3,$4,$5,0*
20,1,$1+$1,$4,$5,$6,$7,0*
20,1,$1+$1,$6,$7,$8,$9,0*
20,1,$1+$1,$8,$9,$2,$3,0*%
%AMOutline4P*
0 Free polygon, 4 corners , with rotation*
0 The origin of the aperture is its center*
0 number of corners: always 4*
0 $1 to $8 corner X, Y*
0 $9 Rotation angle, in degrees counterclockwise*
0 create outline with 4 corners*
4,1,4,$1,$2,$3,$4,$5,$6,$7,$8,$1,$2,$9*%
%AMFreePoly0*
4,1,9,3.862500,-0.866500,0.737500,-0.866500,0.737500,-0.450000,-0.737500,-0.450000,-0.737500,0.450000,0.737500,0.450000,0.737500,0.866500,3.862500,0.866500,3.862500,-0.866500,3.862500,-0.866500,$1*%
G04 Aperture macros list end*
%TA.AperFunction,ComponentPad*%
%ADD10C,1.930400*%
%TD*%
%TA.AperFunction,SMDPad,CuDef*%
%ADD11RoundRect,0.250000X0.650000X-0.412500X0.650000X0.412500X-0.650000X0.412500X-0.650000X-0.412500X0*%
%TD*%
%TA.AperFunction,SMDPad,CuDef*%
%ADD12RoundRect,0.150000X0.587500X0.150000X-0.587500X0.150000X-0.587500X-0.150000X0.587500X-0.150000X0*%
%TD*%
%TA.AperFunction,SMDPad,CuDef*%
%ADD13RoundRect,0.250000X0.625000X-0.400000X0.625000X0.400000X-0.625000X0.400000X-0.625000X-0.400000X0*%
%TD*%
%TA.AperFunction,ComponentPad*%
%ADD14R,1.700000X1.700000*%
%TD*%
%TA.AperFunction,ComponentPad*%
%ADD15C,1.700000*%
%TD*%
%TA.AperFunction,SMDPad,CuDef*%
%ADD16Outline4P,-1.800000X-1.150000X1.800000X-0.550000X1.800000X0.550000X-1.800000X1.150000X180.000000*%
%TD*%
%TA.AperFunction,SMDPad,CuDef*%
%ADD17Outline4P,-1.800000X-1.150000X1.800000X-0.550000X1.800000X0.550000X-1.800000X1.150000X0.000000*%
%TD*%
%TA.AperFunction,ComponentPad*%
%ADD18RoundRect,0.250000X0.550000X-0.550000X0.550000X0.550000X-0.550000X0.550000X-0.550000X-0.550000X0*%
%TD*%
%TA.AperFunction,ComponentPad*%
%ADD19C,1.600000*%
%TD*%
%TA.AperFunction,SMDPad,CuDef*%
%ADD20R,7.460000X6.470000*%
%TD*%
%TA.AperFunction,SMDPad,CuDef*%
%ADD21RoundRect,0.250000X0.400000X0.625000X-0.400000X0.625000X-0.400000X-0.625000X0.400000X-0.625000X0*%
%TD*%
%TA.AperFunction,SMDPad,CuDef*%
%ADD22RoundRect,0.250000X-0.650000X0.412500X-0.650000X-0.412500X0.650000X-0.412500X0.650000X0.412500X0*%
%TD*%
%TA.AperFunction,ComponentPad*%
%ADD23RoundRect,0.249999X0.850001X-0.850001X0.850001X0.850001X-0.850001X0.850001X-0.850001X-0.850001X0*%
%TD*%
%TA.AperFunction,ComponentPad*%
%ADD24C,2.200000*%
%TD*%
%TA.AperFunction,SMDPad,CuDef*%
%ADD25RoundRect,0.250000X-0.625000X0.400000X-0.625000X-0.400000X0.625000X-0.400000X0.625000X0.400000X0*%
%TD*%
%TA.AperFunction,SMDPad,CuDef*%
%ADD26RoundRect,0.250000X-0.400000X-0.625000X0.400000X-0.625000X0.400000X0.625000X-0.400000X0.625000X0*%
%TD*%
%TA.AperFunction,ComponentPad*%
%ADD27RoundRect,0.250000X-0.550000X0.550000X-0.550000X-0.550000X0.550000X-0.550000X0.550000X0.550000X0*%
%TD*%
%TA.AperFunction,ComponentPad*%
%ADD28RoundRect,0.250000X-0.550000X-0.550000X0.550000X-0.550000X0.550000X0.550000X-0.550000X0.550000X0*%
%TD*%
%TA.AperFunction,SMDPad,CuDef*%
%ADD29R,1.000000X1.400000*%
%TD*%
%TA.AperFunction,ComponentPad*%
%ADD30R,1.500000X1.050000*%
%TD*%
%TA.AperFunction,ComponentPad*%
%ADD31O,1.500000X1.050000*%
%TD*%
%TA.AperFunction,ComponentPad*%
%ADD32R,1.905000X2.000000*%
%TD*%
%TA.AperFunction,ComponentPad*%
%ADD33O,1.905000X2.000000*%
%TD*%
%TA.AperFunction,SMDPad,CuDef*%
%ADD34RoundRect,0.225000X-0.425000X-0.225000X0.425000X-0.225000X0.425000X0.225000X-0.425000X0.225000X0*%
%TD*%
%TA.AperFunction,SMDPad,CuDef*%
%ADD35FreePoly0,0.000000*%
%TD*%
%TA.AperFunction,SMDPad,CuDef*%
%ADD36RoundRect,0.250000X-0.412500X-0.650000X0.412500X-0.650000X0.412500X0.650000X-0.412500X0.650000X0*%
%TD*%
%TA.AperFunction,SMDPad,CuDef*%
%ADD37RoundRect,0.250000X0.412500X0.650000X-0.412500X0.650000X-0.412500X-0.650000X0.412500X-0.650000X0*%
%TD*%
%TA.AperFunction,ComponentPad*%
%ADD38RoundRect,0.250000X0.550000X0.550000X-0.550000X0.550000X-0.550000X-0.550000X0.550000X-0.550000X0*%
%TD*%
%TA.AperFunction,ComponentPad*%
%ADD39C,2.000000*%
%TD*%
%TA.AperFunction,ComponentPad*%
%ADD40RoundRect,0.250000X1.050000X-1.050000X1.050000X1.050000X-1.050000X1.050000X-1.050000X-1.050000X0*%
%TD*%
%TA.AperFunction,ComponentPad*%
%ADD41C,2.600000*%
%TD*%
%TA.AperFunction,SMDPad,CuDef*%
%ADD42R,3.600000X2.700000*%
%TD*%
%TA.AperFunction,Conductor*%
%ADD43C,0.400000*%
%TD*%
%TA.AperFunction,Conductor*%
%ADD44C,1.000000*%
%TD*%
%TA.AperFunction,Conductor*%
%ADD45C,0.200000*%
%TD*%
%TA.AperFunction,Conductor*%
%ADD46C,0.500000*%
%TD*%
%TA.AperFunction,Conductor*%
%ADD47C,0.800000*%
%TD*%
G04 APERTURE END LIST*
D10*
%TO.P,U4,3V3,3V3_3V3*%
%TO.N,/+3V3*%
X138570000Y-84130000D03*
%TO.P,U4,5V,5V_5V*%
%TO.N,/+5V*%
X161430000Y-84130000D03*
%TO.P,U4,GND,GND_GND*%
%TO.N,unconnected-(U4-PadGND)*%
X138570000Y-76510000D03*
%TO.P,U4,GND1,GND1_GND1*%
%TO.N,unconnected-(U4-PadGND1)*%
X138570000Y-66350000D03*
%TO.P,U4,GND2,GND2_GND2*%
%TO.N,GND*%
X161430000Y-81590000D03*
%TO.P,U4,IO0,IO0_IO0*%
%TO.N,unconnected-(U4-PadIO0)*%
X138570000Y-79050000D03*
%TO.P,U4,IO2,IO2_IO2*%
%TO.N,unconnected-(U4-PadIO2)*%
X161430000Y-68890000D03*
%TO.P,U4,IO4,IO4_IO4*%
%TO.N,unconnected-(U4-PadIO4)*%
X161430000Y-66350000D03*
%TO.P,U4,IO12,IO12_IO12*%
%TO.N,/BAT_MON*%
X161430000Y-79050000D03*
%TO.P,U4,IO13,IO13_IO13*%
%TO.N,Net-(JP3-C)*%
X161430000Y-76510000D03*
%TO.P,U4,IO14,IO14_IO14*%
%TO.N,unconnected-(U4-PadIO14)*%
X161430000Y-71430000D03*
%TO.P,U4,IO15,IO15_IO15*%
%TO.N,unconnected-(U4-PadIO15)*%
X161430000Y-73970000D03*
%TO.P,U4,IO16,IO16_IO16*%
%TO.N,unconnected-(U4-PadIO16)*%
X138570000Y-81590000D03*
%TO.P,U4,U0R,U0R_U0R*%
%TO.N,unconnected-(U4-PadU0R)*%
X138570000Y-71430000D03*
%TO.P,U4,U0T,U0T_U0T*%
%TO.N,unconnected-(U4-PadU0T)*%
X138570000Y-68890000D03*
%TO.P,U4,VOUT,VOUT_VOUT*%
%TO.N,unconnected-(U4-PadVOUT)*%
X138570000Y-73970000D03*
%TD*%
D11*
%TO.P,C3,1*%
%TO.N,GND*%
X174233071Y-58609429D03*
%TO.P,C3,2*%
%TO.N,/+3V3*%
X174233071Y-55484429D03*
%TD*%
D12*
%TO.P,U8,1,K_1*%
%TO.N,/REF2V5*%
X133500000Y-102975000D03*
%TO.P,U8,2,REF_2*%
X133500000Y-101075000D03*
%TO.P,U8,3,A_3*%
%TO.N,GND*%
X131625000Y-102025000D03*
%TD*%
D13*
%TO.P,R15,1*%
%TO.N,/UVLO_GATE*%
X120000000Y-92550000D03*
%TO.P,R15,2*%
%TO.N,/BAT_RAW*%
X120000000Y-89450000D03*
%TD*%
D14*
%TO.P,JP3,1,A_1*%
%TO.N,/PIR. SIG.*%
X170500000Y-68000000D03*
D15*
%TO.P,JP3,2,C_2*%
%TO.N,Net-(JP3-C)*%
X170500000Y-65460000D03*
%TO.P,JP3,3,B_3*%
%TO.N,/TEMP. SIG.*%
X170500000Y-62920000D03*
%TD*%
D13*
%TO.P,R19,1*%
%TO.N,Net-(U7A-+)*%
X128000000Y-103550000D03*
%TO.P,R19,2*%
%TO.N,/UVLO_GATE*%
X128000000Y-100450000D03*
%TD*%
D16*
%TO.P,D6,1,K_1*%
%TO.N,/+5V*%
X165900000Y-95500000D03*
D17*
%TO.P,D6,2,A_2*%
%TO.N,Net-(D6-A)*%
X160100000Y-95500000D03*
%TD*%
D18*
%TO.P,C6,1*%
%TO.N,/SYS_PWR*%
X167500000Y-112182380D03*
D19*
%TO.P,C6,2*%
%TO.N,GND*%
X167500000Y-109682380D03*
%TD*%
D14*
%TO.P,JP7,1,A_1*%
%TO.N,GND*%
X127500000Y-92725000D03*
D15*
%TO.P,JP7,2,B_2*%
%TO.N,/UVLO_GATE*%
X127500000Y-95265000D03*
%TD*%
D20*
%TO.P,BT1,N*%
%TO.N,GND*%
X189070000Y-126000000D03*
%TO.P,BT1,P*%
%TO.N,Net-(Q7-S)*%
X109730000Y-126000000D03*
%TD*%
D21*
%TO.P,R25,1*%
%TO.N,/REF2V5*%
X134000000Y-105500000D03*
%TO.P,R25,2*%
%TO.N,/BAT_RAW*%
X130900000Y-105500000D03*
%TD*%
D11*
%TO.P,C1,1*%
%TO.N,/+5V*%
X166250000Y-87062500D03*
%TO.P,C1,2*%
%TO.N,GND*%
X166250000Y-83937500D03*
%TD*%
D13*
%TO.P,R2,1*%
%TO.N,Net-(D1-A)*%
X145000000Y-106550000D03*
%TO.P,R2,2*%
%TO.N,GND*%
X145000000Y-103450000D03*
%TD*%
D21*
%TO.P,R17,1*%
%TO.N,/REF2V5*%
X134050000Y-98500000D03*
%TO.P,R17,2*%
%TO.N,Net-(U7A-+)*%
X130950000Y-98500000D03*
%TD*%
D13*
%TO.P,R18,1*%
%TO.N,/UVLO_GATE*%
X123000000Y-92550000D03*
%TO.P,R18,2*%
%TO.N,/BAT_RAW*%
X123000000Y-89450000D03*
%TD*%
D22*
%TO.P,C7,1*%
%TO.N,/BAT_RAW*%
X117000000Y-89437500D03*
%TO.P,C7,2*%
%TO.N,GND*%
X117000000Y-92562500D03*
%TD*%
D23*
%TO.P,D1,1,K_1*%
%TO.N,/SYS_PWR*%
X181000000Y-112580000D03*
D24*
%TO.P,D1,2,A_2*%
%TO.N,Net-(D1-A)*%
X181000000Y-102420000D03*
%TD*%
D25*
%TO.P,R26,1*%
%TO.N,/BAT_MON*%
X129000000Y-83900000D03*
%TO.P,R26,2*%
%TO.N,GND*%
X129000000Y-87000000D03*
%TD*%
D26*
%TO.P,R1,1*%
%TO.N,/PIR. SIG.*%
X174450000Y-68500000D03*
%TO.P,R1,2*%
%TO.N,GND*%
X177550000Y-68500000D03*
%TD*%
D27*
%TO.P,U7,1*%
%TO.N,/UVLO_GATE*%
X124540000Y-99695000D03*
D19*
%TO.P,U7,2,-_2*%
%TO.N,/UVLO_SENSE*%
X122000000Y-99695000D03*
%TO.P,U7,3,+_3*%
%TO.N,Net-(U7A-+)*%
X119460000Y-99695000D03*
%TO.P,U7,4,V-_4*%
%TO.N,GND*%
X116920000Y-99695000D03*
%TO.P,U7,5,+_5*%
X116920000Y-107315000D03*
%TO.P,U7,6,-_6*%
X119460000Y-107315000D03*
%TO.P,U7,7*%
%TO.N,unconnected-(U7-Pad7)*%
X122000000Y-107315000D03*
%TO.P,U7,8,V+_8*%
%TO.N,/BAT_RAW*%
X124540000Y-107315000D03*
%TD*%
D28*
%TO.P,C2,1*%
%TO.N,/+5V*%
X166567621Y-77000000D03*
D19*
%TO.P,C2,2*%
%TO.N,GND*%
X169067621Y-77000000D03*
%TD*%
D29*
%TO.P,Q7,1,G_1*%
%TO.N,Net-(Q7-G)*%
X110500000Y-109750000D03*
%TO.P,Q7,2,S_2*%
%TO.N,Net-(Q7-S)*%
X112400000Y-109750000D03*
%TO.P,Q7,3,D_3*%
%TO.N,/BAT_RAW*%
X111450000Y-107550000D03*
%TD*%
D13*
%TO.P,R24,1*%
%TO.N,/BAT_RAW*%
X123000000Y-87050000D03*
%TO.P,R24,2*%
%TO.N,/BAT_MON*%
X123000000Y-83950000D03*
%TD*%
D30*
%TO.P,U1,1,GND_1*%
%TO.N,GND*%
X179360000Y-58020000D03*
D31*
%TO.P,U1,2,DQ_2*%
%TO.N,/TEMP. SIG.*%
X179360000Y-56750000D03*
%TO.P,U1,3,V_{DD}_3*%
%TO.N,/+3V3*%
X179360000Y-55480000D03*
%TD*%
D32*
%TO.P,Q6,1,G_1*%
%TO.N,/UVLO_GATE*%
X132500000Y-94000000D03*
D33*
%TO.P,Q6,2,D_2*%
%TO.N,/SYS_BATT_SW*%
X135040000Y-94000000D03*
%TO.P,Q6,3,S_3*%
%TO.N,/BAT_RAW*%
X137580000Y-94000000D03*
%TD*%
D34*
%TO.P,U3,1,GND_1*%
%TO.N,GND*%
X152500000Y-96500000D03*
D35*
%TO.P,U3,2,VOUT_2*%
%TO.N,/+5V*%
X152587500Y-98000000D03*
D34*
%TO.P,U3,3,LX_3*%
%TO.N,Net-(D6-A)*%
X152500000Y-99500000D03*
%TD*%
D26*
%TO.P,R20,1*%
%TO.N,Net-(Q7-G)*%
X109900000Y-112550000D03*
%TO.P,R20,2*%
%TO.N,Net-(Q7-S)*%
X113000000Y-112550000D03*
%TD*%
D13*
%TO.P,R6,1*%
%TO.N,/TEMP. SIG.*%
X170750000Y-58550000D03*
%TO.P,R6,2*%
%TO.N,/+3V3*%
X170750000Y-55450000D03*
%TD*%
D29*
%TO.P,Q8,1,G_1*%
%TO.N,Net-(D1-A)*%
X145400000Y-110000000D03*
%TO.P,Q8,2,S_2*%
%TO.N,/SYS_BATT_SW*%
X143500000Y-110000000D03*
%TO.P,Q8,3,D_3*%
%TO.N,/SYS_PWR*%
X144450000Y-112200000D03*
%TD*%
D36*
%TO.P,C9,1*%
%TO.N,/+5V*%
X160937500Y-103000000D03*
%TO.P,C9,2*%
%TO.N,GND*%
X164062500Y-103000000D03*
%TD*%
D37*
%TO.P,C11,1*%
%TO.N,GND*%
X164062500Y-100000000D03*
%TO.P,C11,2*%
%TO.N,/+5V*%
X160937500Y-100000000D03*
%TD*%
D38*
%TO.P,C12,1*%
%TO.N,/+5V*%
X148182380Y-97000000D03*
D19*
%TO.P,C12,2*%
%TO.N,GND*%
X145682380Y-97000000D03*
%TD*%
D11*
%TO.P,C8,1*%
%TO.N,/SYS_PWR*%
X174000000Y-112437500D03*
%TO.P,C8,2*%
%TO.N,GND*%
X174000000Y-109312500D03*
%TD*%
%TO.P,C10,1*%
%TO.N,/SYS_PWR*%
X177000000Y-112500000D03*
%TO.P,C10,2*%
%TO.N,GND*%
X177000000Y-109375000D03*
%TD*%
D39*
%TO.P,U2,1,IN+_1*%
%TO.N,Net-(D1-A)*%
X196005000Y-97095000D03*
%TO.P,U2,2,IN-_2*%
%TO.N,Net-(J3-Pin_2)*%
X196005000Y-83095000D03*
%TO.P,U2,3,OUT+_3*%
%TO.N,unconnected-(U2-OUT+-Pad3)*%
X173005000Y-97095000D03*
%TO.P,U2,4,OUT-_4*%
%TO.N,unconnected-(U2-OUT--Pad4)*%
X173005000Y-83095000D03*
%TO.P,U2,5,BAT+_5*%
%TO.N,+BATT*%
X173005000Y-94555000D03*
%TO.P,U2,6,BAT-_6*%
%TO.N,GND*%
X173005000Y-85635000D03*
%TD*%
D22*
%TO.P,C21,1*%
%TO.N,/BAT_MON*%
X126000000Y-83887500D03*
%TO.P,C21,2*%
%TO.N,GND*%
X126000000Y-87012500D03*
%TD*%
D25*
%TO.P,R23,1*%
%TO.N,/UVLO_SENSE*%
X111000000Y-97825000D03*
%TO.P,R23,2*%
%TO.N,GND*%
X111000000Y-100925000D03*
%TD*%
D40*
%TO.P,J3,1,Pin_1_1*%
%TO.N,Net-(D1-A)*%
X189672500Y-110545000D03*
D41*
%TO.P,J3,2,Pin_2_2*%
%TO.N,Net-(J3-Pin_2)*%
X189672500Y-105465000D03*
%TD*%
D40*
%TO.P,J2,1,Pin_1_1*%
%TO.N,/+5V*%
X190000000Y-76000000D03*
D41*
%TO.P,J2,2,Pin_2_2*%
%TO.N,/PIR. SIG.*%
X190000000Y-70920000D03*
%TO.P,J2,3,Pin_3_3*%
%TO.N,GND*%
X190000000Y-65840000D03*
%TD*%
D25*
%TO.P,R22,1*%
%TO.N,/BAT_RAW*%
X114000000Y-89450000D03*
%TO.P,R22,2*%
%TO.N,/UVLO_SENSE*%
X114000000Y-92550000D03*
%TD*%
D42*
%TO.P,L1,1,1_1*%
%TO.N,/SYS_PWR*%
X153000000Y-112150000D03*
%TO.P,L1,2,2_2*%
%TO.N,Net-(D6-A)*%
X153000000Y-103850000D03*
%TD*%
D22*
%TO.P,C20,1*%
%TO.N,/UVLO_SENSE*%
X114000000Y-97875000D03*
%TO.P,C20,2*%
%TO.N,GND*%
X114000000Y-101000000D03*
%TD*%
D25*
%TO.P,R21,1*%
%TO.N,Net-(Q7-G)*%
X106450000Y-108750000D03*
%TO.P,R21,2*%
%TO.N,GND*%
X106450000Y-111850000D03*
%TD*%
%TO.N,/+3V3*%
D43*
X174198642Y-55450000D02*
X174233071Y-55484429D01*
X138570000Y-84130000D02*
X167250000Y-55450000D01*
X170750000Y-55450000D02*
X174198642Y-55450000D01*
X174233071Y-55484429D02*
X179355571Y-55484429D01*
X167250000Y-55450000D02*
X170750000Y-55450000D01*
X179355571Y-55484429D02*
X179360000Y-55480000D01*
%TO.N,/+5V*%
D44*
X153000000Y-98000000D02*
X156500000Y-94500000D01*
X166250000Y-87062500D02*
X164362500Y-87062500D01*
X149182380Y-98000000D02*
X152587500Y-98000000D01*
X185400000Y-76000000D02*
X190000000Y-76000000D01*
X164362500Y-87062500D02*
X161430000Y-84130000D01*
X166567621Y-77000000D02*
X166567621Y-78992379D01*
X165900000Y-95500000D02*
X165437500Y-95500000D01*
X169200000Y-92200000D02*
X185400000Y-76000000D01*
X152587500Y-98000000D02*
X153000000Y-98000000D01*
X161430000Y-84130000D02*
X161430000Y-92130000D01*
X161500000Y-92200000D02*
X169200000Y-92200000D01*
X156500000Y-93500000D02*
X157800000Y-92200000D01*
X166567621Y-78992379D02*
X161430000Y-84130000D01*
X161430000Y-92130000D02*
X161500000Y-92200000D01*
X157800000Y-92200000D02*
X161500000Y-92200000D01*
X160937500Y-100000000D02*
X160937500Y-103000000D01*
X165437500Y-95500000D02*
X160937500Y-100000000D01*
X148182380Y-97000000D02*
X149182380Y-98000000D01*
X156500000Y-94500000D02*
X156500000Y-93500000D01*
X165900000Y-95500000D02*
X169200000Y-92200000D01*
%TO.N,GND*%
D43*
X174505571Y-58336929D02*
X174233071Y-58609429D01*
%TO.N,/BAT_MON*%
D45*
X126887500Y-83887500D02*
X126900000Y-83900000D01*
X125937500Y-83950000D02*
X126000000Y-83887500D01*
X130600000Y-85500000D02*
X129000000Y-83900000D01*
X126000000Y-83887500D02*
X126887500Y-83887500D01*
X142500000Y-85500000D02*
X130600000Y-85500000D01*
X161430000Y-79050000D02*
X148950000Y-79050000D01*
X123000000Y-83950000D02*
X125937500Y-83950000D01*
X126900000Y-83900000D02*
X129000000Y-83900000D01*
X148950000Y-79050000D02*
X142500000Y-85500000D01*
%TO.N,Net-(JP3-C)*%
D46*
X170500000Y-65460000D02*
X170500000Y-65500000D01*
X167190000Y-70750000D02*
X161430000Y-76510000D01*
X167500000Y-70500000D02*
X167250000Y-70750000D01*
X170500000Y-65500000D02*
X167500000Y-68500000D01*
X167500000Y-68500000D02*
X167500000Y-70500000D01*
X167250000Y-70750000D02*
X167190000Y-70750000D01*
%TO.N,/REF2V5*%
D45*
X134050000Y-100525000D02*
X133500000Y-101075000D01*
X134000000Y-105500000D02*
X134000000Y-103475000D01*
X134050000Y-98500000D02*
X134050000Y-100525000D01*
X133500000Y-101075000D02*
X133500000Y-102975000D01*
X134000000Y-103475000D02*
X133500000Y-102975000D01*
%TO.N,/UVLO_GATE*%
X124540000Y-99695000D02*
X127245000Y-99695000D01*
X127245000Y-99695000D02*
X128000000Y-100450000D01*
X123000000Y-92550000D02*
X120000000Y-92550000D01*
X132500000Y-94000000D02*
X128765000Y-94000000D01*
X123000000Y-92550000D02*
X124785000Y-92550000D01*
X124785000Y-92550000D02*
X127500000Y-95265000D01*
X128765000Y-94000000D02*
X127500000Y-95265000D01*
X124540000Y-98225000D02*
X127500000Y-95265000D01*
X124540000Y-99695000D02*
X124540000Y-98225000D01*
X123010000Y-92540000D02*
X123000000Y-92550000D01*
X127500000Y-95265000D02*
X127235000Y-95265000D01*
%TO.N,/BAT_RAW*%
D47*
X124540000Y-107315000D02*
X122725000Y-105500000D01*
X116987500Y-89450000D02*
X117000000Y-89437500D01*
X119987500Y-89437500D02*
X120000000Y-89450000D01*
X137580000Y-94000000D02*
X133030000Y-89450000D01*
X120000000Y-89450000D02*
X123000000Y-89450000D01*
X130900000Y-105500000D02*
X126355000Y-105500000D01*
X108500000Y-102000000D02*
X108500000Y-94950000D01*
X122725000Y-105500000D02*
X112000000Y-105500000D01*
X112000000Y-105500000D02*
X108500000Y-102000000D01*
X123000000Y-89450000D02*
X123000000Y-87050000D01*
X111450000Y-106050000D02*
X112000000Y-105500000D01*
X108500000Y-94950000D02*
X114000000Y-89450000D01*
X133030000Y-89450000D02*
X123000000Y-89450000D01*
X111450000Y-107550000D02*
X111450000Y-106050000D01*
X126355000Y-105500000D02*
X124540000Y-107315000D01*
X117000000Y-89437500D02*
X119987500Y-89437500D01*
X114000000Y-89450000D02*
X116987500Y-89450000D01*
%TO.N,/PIR. SIG.*%
D46*
X171000000Y-68500000D02*
X170500000Y-68000000D01*
X174450000Y-68500000D02*
X171000000Y-68500000D01*
X176870000Y-70920000D02*
X174450000Y-68500000D01*
X190000000Y-70920000D02*
X176870000Y-70920000D01*
%TO.N,/TEMP. SIG.*%
D43*
X170495571Y-58609429D02*
X170483071Y-58596929D01*
D46*
X170750000Y-62670000D02*
X170500000Y-62920000D01*
X179360000Y-56750000D02*
X172550000Y-56750000D01*
X170750000Y-58550000D02*
X170750000Y-62670000D01*
X172550000Y-56750000D02*
X170750000Y-58550000D01*
%TO.N,Net-(U7A-+)*%
D45*
X128000000Y-103550000D02*
X123315000Y-103550000D01*
X130950000Y-100600000D02*
X128000000Y-103550000D01*
X130950000Y-98500000D02*
X130950000Y-100600000D01*
X123315000Y-103550000D02*
X119460000Y-99695000D01*
%TO.N,Net-(D6-A)*%
D44*
X160100000Y-96750000D02*
X153000000Y-103850000D01*
X153000000Y-103850000D02*
X153000000Y-100000000D01*
X160100000Y-95500000D02*
X160100000Y-96750000D01*
X153000000Y-100000000D02*
X152500000Y-99500000D01*
%TO.N,/SYS_PWR*%
D47*
X181000000Y-112580000D02*
X177080000Y-112580000D01*
X163380120Y-112182380D02*
X163237500Y-112325000D01*
X153175000Y-112325000D02*
X153000000Y-112150000D01*
X163237500Y-112325000D02*
X153175000Y-112325000D01*
X167755120Y-112437500D02*
X167500000Y-112182380D01*
X177000000Y-112500000D02*
X174062500Y-112500000D01*
X167500000Y-112182380D02*
X163380120Y-112182380D01*
X177080000Y-112580000D02*
X177000000Y-112500000D01*
X153000000Y-112150000D02*
X152850000Y-112150000D01*
X174062500Y-112500000D02*
X174000000Y-112437500D01*
X174000000Y-112437500D02*
X167755120Y-112437500D01*
X152850000Y-112150000D02*
X152800000Y-112200000D01*
X152800000Y-112200000D02*
X144450000Y-112200000D01*
%TO.N,Net-(Q7-S)*%
X109730000Y-126000000D02*
X109730000Y-115820000D01*
X113000000Y-110350000D02*
X112400000Y-109750000D01*
X109730000Y-115820000D02*
X113000000Y-112550000D01*
X113000000Y-112550000D02*
X113000000Y-110350000D01*
%TO.N,Net-(D1-A)*%
X176870000Y-106550000D02*
X181000000Y-102420000D01*
X196005000Y-104212500D02*
X189672500Y-110545000D01*
X189672500Y-110545000D02*
X189125000Y-110545000D01*
X189125000Y-110545000D02*
X181000000Y-102420000D01*
X145000000Y-106550000D02*
X176870000Y-106550000D01*
X145000000Y-106550000D02*
X145000000Y-109600000D01*
X189672500Y-110545000D02*
X189045000Y-110545000D01*
X145000000Y-109600000D02*
X145400000Y-110000000D01*
X196005000Y-97095000D02*
X196005000Y-104212500D01*
%TO.N,/UVLO_SENSE*%
D45*
X113625000Y-97875000D02*
X113575000Y-97825000D01*
X113575000Y-97825000D02*
X111000000Y-97825000D01*
X120180000Y-97875000D02*
X114000000Y-97875000D01*
X114000000Y-97875000D02*
X113625000Y-97875000D01*
X122000000Y-99695000D02*
X120180000Y-97875000D01*
X114000000Y-92550000D02*
X114000000Y-97875000D01*
%TO.N,Net-(Q7-G)*%
D46*
X109900000Y-110350000D02*
X110500000Y-109750000D01*
X110500000Y-109750000D02*
X107450000Y-109750000D01*
X109900000Y-112550000D02*
X109900000Y-110350000D01*
X107450000Y-109750000D02*
X106450000Y-108750000D01*
%TO.N,/SYS_BATT_SW*%
D47*
X135040000Y-94000000D02*
X135040000Y-94580000D01*
X135040000Y-94580000D02*
X143500000Y-103040000D01*
X143500000Y-110000000D02*
X143500000Y-103040000D01*
%TO.N,Net-(J3-Pin_2)*%
X189672500Y-89427500D02*
X189672500Y-105465000D01*
X196005000Y-83095000D02*
X189672500Y-89427500D01*
%TD*%
%TA.AperFunction,Conductor*%
%TO.N,GND*%
G36*
X199425000Y-40520462D02*
G01*
X199479538Y-40575000D01*
X199499500Y-40649500D01*
X199499500Y-139350500D01*
X199479538Y-139425000D01*
X199425000Y-139479538D01*
X199350500Y-139499500D01*
X100649500Y-139499500D01*
X100575000Y-139479538D01*
X100520462Y-139425000D01*
X100500500Y-139350500D01*
X100500500Y-134878706D01*
X103149500Y-134878706D01*
X103149500Y-135121293D01*
X103181160Y-135361781D01*
X103181161Y-135361787D01*
X103181162Y-135361789D01*
X103243946Y-135596100D01*
X103336776Y-135820212D01*
X103458064Y-136030289D01*
X103605735Y-136222738D01*
X103777262Y-136394265D01*
X103969711Y-136541936D01*
X104179788Y-136663224D01*
X104403900Y-136756054D01*
X104638211Y-136818838D01*
X104638217Y-136818838D01*
X104638218Y-136818839D01*
X104703600Y-136827446D01*
X104878712Y-136850500D01*
X105121288Y-136850500D01*
X105361789Y-136818838D01*
X105596100Y-136756054D01*
X105820212Y-136663224D01*
X106030289Y-136541936D01*
X106222738Y-136394265D01*
X106394265Y-136222738D01*
X106541936Y-136030289D01*
X106663224Y-135820212D01*
X106756054Y-135596100D01*
X106818838Y-135361789D01*
X106850500Y-135121288D01*
X106850500Y-134878712D01*
X106818838Y-134638211D01*
X106756054Y-134403900D01*
X106663224Y-134179788D01*
X106541936Y-133969711D01*
X106465819Y-133870513D01*
X119824500Y-133870513D01*
X119824500Y-134129486D01*
X119858298Y-134386212D01*
X119858301Y-134386229D01*
X119925322Y-134636361D01*
X119997694Y-134811079D01*
X120024426Y-134875616D01*
X120153907Y-135099884D01*
X120311553Y-135305333D01*
X120494667Y-135488447D01*
X120700116Y-135646093D01*
X120924384Y-135775574D01*
X121099097Y-135847943D01*
X121163638Y-135874677D01*
X121330392Y-135919357D01*
X121413772Y-135941699D01*
X121670519Y-135975500D01*
X121929481Y-135975500D01*
X122186228Y-135941699D01*
X122317743Y-135906459D01*
X122436361Y-135874677D01*
X122436366Y-135874675D01*
X122675616Y-135775574D01*
X122899884Y-135646093D01*
X123105333Y-135488447D01*
X123288447Y-135305333D01*
X123446093Y-135099884D01*
X123575574Y-134875616D01*
X123674675Y-134636366D01*
X123674675Y-134636365D01*
X123674677Y-134636361D01*
X123706459Y-134517743D01*
X123741699Y-134386228D01*
X123775500Y-134129481D01*
X123775500Y-133870519D01*
X123775499Y-133870513D01*
X147524500Y-133870513D01*
X147524500Y-134129486D01*
X147558298Y-134386212D01*
X147558301Y-134386229D01*
X147625322Y-134636361D01*
X147697694Y-134811079D01*
X147724426Y-134875616D01*
X147853907Y-135099884D01*
X148011553Y-135305333D01*
X148194667Y-135488447D01*
X148400116Y-135646093D01*
X148624384Y-135775574D01*
X148799097Y-135847943D01*
X148863638Y-135874677D01*
X149030392Y-135919357D01*
X149113772Y-135941699D01*
X149370519Y-135975500D01*
X149629481Y-135975500D01*
X149886228Y-135941699D01*
X150017743Y-135906459D01*
X150136361Y-135874677D01*
X150136366Y-135874675D01*
X150375616Y-135775574D01*
X150599884Y-135646093D01*
X150805333Y-135488447D01*
X150988447Y-135305333D01*
X151146093Y-135099884D01*
X151273790Y-134878706D01*
X193149500Y-134878706D01*
X193149500Y-135121293D01*
X193181160Y-135361781D01*
X193181161Y-135361787D01*
X193181162Y-135361789D01*
X193243946Y-135596100D01*
X193336776Y-135820212D01*
X193458064Y-136030289D01*
X193605735Y-136222738D01*
X193777262Y-136394265D01*
X193969711Y-136541936D01*
X194179788Y-136663224D01*
X194403900Y-136756054D01*
X194638211Y-136818838D01*
X194638217Y-136818838D01*
X194638218Y-136818839D01*
X194703600Y-136827446D01*
X194878712Y-136850500D01*
X195121288Y-136850500D01*
X195361789Y-136818838D01*
X195596100Y-136756054D01*
X195820212Y-136663224D01*
X196030289Y-136541936D01*
X196222738Y-136394265D01*
X196394265Y-136222738D01*
X196541936Y-136030289D01*
X196663224Y-135820212D01*
X196756054Y-135596100D01*
X196818838Y-135361789D01*
X196850500Y-135121288D01*
X196850500Y-134878712D01*
X196818838Y-134638211D01*
X196756054Y-134403900D01*
X196663224Y-134179788D01*
X196541936Y-133969711D01*
X196394265Y-133777262D01*
X196222738Y-133605735D01*
X196030289Y-133458064D01*
X195960263Y-133417634D01*
X195820216Y-133336778D01*
X195820214Y-133336777D01*
X195820212Y-133336776D01*
X195688932Y-133282398D01*
X195596103Y-133243947D01*
X195596101Y-133243946D01*
X195596100Y-133243946D01*
X195361789Y-133181162D01*
X195361787Y-133181161D01*
X195361781Y-133181160D01*
X195121293Y-133149500D01*
X195121288Y-133149500D01*
X194878712Y-133149500D01*
X194878706Y-133149500D01*
X194638218Y-133181160D01*
X194403896Y-133243947D01*
X194179783Y-133336778D01*
X193969712Y-133458063D01*
X193969711Y-133458064D01*
X193777262Y-133605735D01*
X193777260Y-133605736D01*
X193777256Y-133605740D01*
X193605740Y-133777256D01*
X193458063Y-133969712D01*
X193336778Y-134179783D01*
X193243947Y-134403896D01*
X193181160Y-134638218D01*
X193149500Y-134878706D01*
X151273790Y-134878706D01*
X151275574Y-134875616D01*
X151374675Y-134636366D01*
X151441699Y-134386228D01*
X151475500Y-134129481D01*
X151475500Y-133870519D01*
X151441699Y-133613772D01*
X151419357Y-133530392D01*
X151374677Y-133363638D01*
X151285977Y-133149500D01*
X151275574Y-133124384D01*
X151146093Y-132900116D01*
X150988447Y-132694667D01*
X150805333Y-132511553D01*
X150599884Y-132353907D01*
X150525128Y-132310746D01*
X150375620Y-132224428D01*
X150375618Y-132224427D01*
X150375616Y-132224426D01*
X150311079Y-132197694D01*
X150136361Y-132125322D01*
X149886229Y-132058301D01*
X149886212Y-132058298D01*
X149629486Y-132024500D01*
X149629481Y-132024500D01*
X149370519Y-132024500D01*
X149370513Y-132024500D01*
X149113787Y-132058298D01*
X149113770Y-132058301D01*
X148863638Y-132125322D01*
X148624379Y-132224428D01*
X148400117Y-132353906D01*
X148194665Y-132511554D01*
X148011554Y-132694665D01*
X147853906Y-132900117D01*
X147724428Y-133124379D01*
X147625322Y-133363638D01*
X147558301Y-133613770D01*
X147558298Y-133613787D01*
X147524500Y-133870513D01*
X123775499Y-133870513D01*
X123741699Y-133613772D01*
X123719357Y-133530392D01*
X123674677Y-133363638D01*
X123585977Y-133149500D01*
X123575574Y-133124384D01*
X123446093Y-132900116D01*
X123288447Y-132694667D01*
X123105333Y-132511553D01*
X122899884Y-132353907D01*
X122825128Y-132310746D01*
X122675620Y-132224428D01*
X122675618Y-132224427D01*
X122675616Y-132224426D01*
X122611079Y-132197694D01*
X122436361Y-132125322D01*
X122186229Y-132058301D01*
X122186212Y-132058298D01*
X121929486Y-132024500D01*
X121929481Y-132024500D01*
X121670519Y-132024500D01*
X121670513Y-132024500D01*
X121413787Y-132058298D01*
X121413770Y-132058301D01*
X121163638Y-132125322D01*
X120924379Y-132224428D01*
X120700117Y-132353906D01*
X120494665Y-132511554D01*
X120311554Y-132694665D01*
X120153906Y-132900117D01*
X120024428Y-133124379D01*
X119925322Y-133363638D01*
X119858301Y-133613770D01*
X119858298Y-133613787D01*
X119824500Y-133870513D01*
X106465819Y-133870513D01*
X106394265Y-133777262D01*
X106222738Y-133605735D01*
X106030289Y-133458064D01*
X105960263Y-133417634D01*
X105820216Y-133336778D01*
X105820214Y-133336777D01*
X105820212Y-133336776D01*
X105688932Y-133282398D01*
X105596103Y-133243947D01*
X105596101Y-133243946D01*
X105596100Y-133243946D01*
X105361789Y-133181162D01*
X105361787Y-133181161D01*
X105361781Y-133181160D01*
X105121293Y-133149500D01*
X105121288Y-133149500D01*
X104878712Y-133149500D01*
X104878706Y-133149500D01*
X104638218Y-133181160D01*
X104403896Y-133243947D01*
X104179783Y-133336778D01*
X103969712Y-133458063D01*
X103969711Y-133458064D01*
X103777262Y-133605735D01*
X103777260Y-133605736D01*
X103777256Y-133605740D01*
X103605740Y-133777256D01*
X103458063Y-133969712D01*
X103336778Y-134179783D01*
X103243947Y-134403896D01*
X103181160Y-134638218D01*
X103149500Y-134878706D01*
X100500500Y-134878706D01*
X100500500Y-112293060D01*
X105275000Y-112293060D01*
X105285613Y-112381443D01*
X105341079Y-112522096D01*
X105432433Y-112642562D01*
X105432437Y-112642566D01*
X105552904Y-112733920D01*
X105552903Y-112733920D01*
X105693556Y-112789386D01*
X105781939Y-112799999D01*
X105781941Y-112800000D01*
X106250000Y-112800000D01*
X106650000Y-112800000D01*
X107118059Y-112800000D01*
X107118060Y-112799999D01*
X107206443Y-112789386D01*
X107347096Y-112733920D01*
X107467562Y-112642566D01*
X107467566Y-112642562D01*
X107558920Y-112522096D01*
X107614386Y-112381443D01*
X107624999Y-112293060D01*
X107625000Y-112293058D01*
X107625000Y-112050000D01*
X106650000Y-112050000D01*
X106650000Y-112800000D01*
X106250000Y-112800000D01*
X106250000Y-112050000D01*
X105275000Y-112050000D01*
X105275000Y-112293060D01*
X100500500Y-112293060D01*
X100500500Y-111406939D01*
X105275000Y-111406939D01*
X105275000Y-111650000D01*
X106250000Y-111650000D01*
X106650000Y-111650000D01*
X107625000Y-111650000D01*
X107625000Y-111406941D01*
X107624999Y-111406939D01*
X107614386Y-111318556D01*
X107558920Y-111177903D01*
X107467566Y-111057437D01*
X107467562Y-111057433D01*
X107347095Y-110966079D01*
X107347096Y-110966079D01*
X107206443Y-110910613D01*
X107118060Y-110900000D01*
X106650000Y-110900000D01*
X106650000Y-111650000D01*
X106250000Y-111650000D01*
X106250000Y-110900000D01*
X105781939Y-110900000D01*
X105693556Y-110910613D01*
X105552903Y-110966079D01*
X105432437Y-111057433D01*
X105432433Y-111057437D01*
X105341079Y-111177903D01*
X105285613Y-111318556D01*
X105275000Y-111406939D01*
X100500500Y-111406939D01*
X100500500Y-108306894D01*
X105274500Y-108306894D01*
X105274500Y-109193105D01*
X105285122Y-109281563D01*
X105340638Y-109422341D01*
X105427350Y-109536688D01*
X105432078Y-109542922D01*
X105552658Y-109634361D01*
X105693436Y-109689877D01*
X105781898Y-109700500D01*
X106560258Y-109700500D01*
X106634758Y-109720462D01*
X106665617Y-109744141D01*
X107111986Y-110190510D01*
X107164407Y-110220775D01*
X107164409Y-110220776D01*
X107164410Y-110220777D01*
X107237511Y-110262982D01*
X107237512Y-110262982D01*
X107237515Y-110262984D01*
X107377525Y-110300500D01*
X107377526Y-110300500D01*
X107522475Y-110300500D01*
X109200500Y-110300500D01*
X109275000Y-110320462D01*
X109329538Y-110375000D01*
X109349500Y-110449500D01*
X109349500Y-111291181D01*
X109329538Y-111365681D01*
X109275000Y-111420219D01*
X109255165Y-111429791D01*
X109227659Y-111440638D01*
X109227654Y-111440641D01*
X109107079Y-111532076D01*
X109107076Y-111532079D01*
X109015639Y-111652658D01*
X109015638Y-111652658D01*
X108960122Y-111793436D01*
X108949500Y-111881894D01*
X108949500Y-113218105D01*
X108960122Y-113306563D01*
X109015638Y-113447341D01*
X109107076Y-113567920D01*
X109107079Y-113567923D01*
X109109810Y-113569994D01*
X109227658Y-113659361D01*
X109368436Y-113714877D01*
X109456898Y-113725500D01*
X109456899Y-113725500D01*
X110343101Y-113725500D01*
X110343102Y-113725500D01*
X110431564Y-113714877D01*
X110446278Y-113709074D01*
X110522901Y-113700313D01*
X110593645Y-113731038D01*
X110639549Y-113793019D01*
X110648311Y-113869647D01*
X110617586Y-113940391D01*
X110606298Y-113953044D01*
X109185889Y-115373453D01*
X109185885Y-115373458D01*
X109109228Y-115488184D01*
X109109220Y-115488197D01*
X109056420Y-115615670D01*
X109056419Y-115615674D01*
X109029500Y-115751006D01*
X109029500Y-122315500D01*
X109009538Y-122390000D01*
X108955000Y-122444538D01*
X108880500Y-122464500D01*
X105955133Y-122464500D01*
X105930010Y-122467414D01*
X105930007Y-122467415D01*
X105827235Y-122512793D01*
X105747793Y-122592235D01*
X105702416Y-122695005D01*
X105702415Y-122695008D01*
X105702401Y-122695128D01*
X105699500Y-122720135D01*
X105699500Y-122720136D01*
X105699500Y-122720140D01*
X105699500Y-129279866D01*
X105702414Y-129304989D01*
X105702415Y-129304992D01*
X105747793Y-129407764D01*
X105747794Y-129407765D01*
X105827235Y-129487206D01*
X105930009Y-129532585D01*
X105955135Y-129535500D01*
X113504864Y-129535499D01*
X113504866Y-129535499D01*
X113517427Y-129534042D01*
X113529991Y-129532585D01*
X113632765Y-129487206D01*
X113712206Y-129407765D01*
X113757585Y-129304991D01*
X113760500Y-129279865D01*
X113760500Y-129279794D01*
X185040001Y-129279794D01*
X185042909Y-129304874D01*
X185088212Y-129407477D01*
X185167521Y-129486786D01*
X185270128Y-129532091D01*
X185295204Y-129534999D01*
X188870000Y-129534999D01*
X189270000Y-129534999D01*
X192844795Y-129534999D01*
X192869874Y-129532090D01*
X192972477Y-129486787D01*
X192972478Y-129486787D01*
X193051786Y-129407478D01*
X193097091Y-129304871D01*
X193100000Y-129279795D01*
X193100000Y-126200000D01*
X189270000Y-126200000D01*
X189270000Y-129534999D01*
X188870000Y-129534999D01*
X188870000Y-126200000D01*
X185040001Y-126200000D01*
X185040001Y-129279794D01*
X113760500Y-129279794D01*
X113760499Y-125800000D01*
X113760499Y-122720204D01*
X185040000Y-122720204D01*
X185040000Y-125800000D01*
X188870000Y-125800000D01*
X189270000Y-125800000D01*
X193099999Y-125800000D01*
X193099999Y-122720205D01*
X193097090Y-122695125D01*
X193051787Y-122592522D01*
X192972478Y-122513213D01*
X192869871Y-122467908D01*
X192844796Y-122465000D01*
X189270000Y-122465000D01*
X189270000Y-125800000D01*
X188870000Y-125800000D01*
X188870000Y-122465000D01*
X185295205Y-122465000D01*
X185270125Y-122467909D01*
X185167522Y-122513212D01*
X185167522Y-122513213D01*
X185088213Y-122592521D01*
X185042908Y-122695128D01*
X185040000Y-122720204D01*
X113760499Y-122720204D01*
X113760499Y-122720133D01*
X113757585Y-122695010D01*
X113757584Y-122695008D01*
X113712206Y-122592235D01*
X113632765Y-122512794D01*
X113632764Y-122512793D01*
X113529994Y-122467416D01*
X113529991Y-122467415D01*
X113529982Y-122467414D01*
X113504865Y-122464500D01*
X113504859Y-122464500D01*
X110579500Y-122464500D01*
X110505000Y-122444538D01*
X110450462Y-122390000D01*
X110430500Y-122315500D01*
X110430500Y-117886237D01*
X112134500Y-117886237D01*
X112134500Y-118113763D01*
X112150319Y-118213641D01*
X112170093Y-118338494D01*
X112230239Y-118523603D01*
X112240402Y-118554879D01*
X112281919Y-118636361D01*
X112343698Y-118757608D01*
X112343699Y-118757611D01*
X112477431Y-118941676D01*
X112477434Y-118941680D01*
X112638320Y-119102566D01*
X112638323Y-119102568D01*
X112822388Y-119236300D01*
X112822389Y-119236300D01*
X112822393Y-119236303D01*
X113025121Y-119339598D01*
X113241505Y-119409905D01*
X113241505Y-119409906D01*
X113241510Y-119409906D01*
X113241511Y-119409907D01*
X113466237Y-119445500D01*
X113466241Y-119445500D01*
X113693759Y-119445500D01*
X113693763Y-119445500D01*
X113918489Y-119409907D01*
X113918490Y-119409906D01*
X113918494Y-119409906D01*
X113918494Y-119409905D01*
X114134879Y-119339598D01*
X114337607Y-119236303D01*
X114521680Y-119102566D01*
X114682566Y-118941680D01*
X114816303Y-118757607D01*
X114919598Y-118554879D01*
X114989905Y-118338494D01*
X114989906Y-118338494D01*
X114989907Y-118338489D01*
X115025500Y-118113763D01*
X115025500Y-117886237D01*
X115023010Y-117870513D01*
X147524500Y-117870513D01*
X147524500Y-118129486D01*
X147558298Y-118386212D01*
X147558301Y-118386229D01*
X147625322Y-118636361D01*
X147697694Y-118811079D01*
X147724426Y-118875616D01*
X147853907Y-119099884D01*
X148011553Y-119305333D01*
X148194667Y-119488447D01*
X148400116Y-119646093D01*
X148624384Y-119775574D01*
X148799097Y-119847943D01*
X148863638Y-119874677D01*
X149030392Y-119919357D01*
X149113772Y-119941699D01*
X149370519Y-119975500D01*
X149629481Y-119975500D01*
X149886228Y-119941699D01*
X150017743Y-119906459D01*
X150136361Y-119874677D01*
X150136366Y-119874675D01*
X150375616Y-119775574D01*
X150599884Y-119646093D01*
X150805333Y-119488447D01*
X150988447Y-119305333D01*
X151146093Y-119099884D01*
X151275574Y-118875616D01*
X151374675Y-118636366D01*
X151374675Y-118636365D01*
X151374677Y-118636361D01*
X151406459Y-118517743D01*
X151441699Y-118386228D01*
X151475500Y-118129481D01*
X151475500Y-117870519D01*
X151475499Y-117870513D01*
X175024500Y-117870513D01*
X175024500Y-118129486D01*
X175058298Y-118386212D01*
X175058301Y-118386229D01*
X175125322Y-118636361D01*
X175197694Y-118811079D01*
X175224426Y-118875616D01*
X175353907Y-119099884D01*
X175511553Y-119305333D01*
X175694667Y-119488447D01*
X175900116Y-119646093D01*
X176124384Y-119775574D01*
X176299097Y-119847943D01*
X176363638Y-119874677D01*
X176530392Y-119919357D01*
X176613772Y-119941699D01*
X176870519Y-119975500D01*
X177129481Y-119975500D01*
X177386228Y-119941699D01*
X177517743Y-119906459D01*
X177636361Y-119874677D01*
X177636366Y-119874675D01*
X177875616Y-119775574D01*
X178099884Y-119646093D01*
X178305333Y-119488447D01*
X178488447Y-119305333D01*
X178646093Y-119099884D01*
X178775574Y-118875616D01*
X178874675Y-118636366D01*
X178874675Y-118636365D01*
X178874677Y-118636361D01*
X178906459Y-118517743D01*
X178941699Y-118386228D01*
X178975500Y-118129481D01*
X178975500Y-117870519D01*
X178941699Y-117613772D01*
X178896511Y-117445127D01*
X178874677Y-117363638D01*
X178824453Y-117242388D01*
X178775574Y-117124384D01*
X178646093Y-116900116D01*
X178488447Y-116694667D01*
X178305333Y-116511553D01*
X178099884Y-116353907D01*
X178025128Y-116310746D01*
X177875620Y-116224428D01*
X177875618Y-116224427D01*
X177875616Y-116224426D01*
X177811079Y-116197694D01*
X177636361Y-116125322D01*
X177386229Y-116058301D01*
X177386212Y-116058298D01*
X177129486Y-116024500D01*
X177129481Y-116024500D01*
X176870519Y-116024500D01*
X176870513Y-116024500D01*
X176613787Y-116058298D01*
X176613770Y-116058301D01*
X176363638Y-116125322D01*
X176124379Y-116224428D01*
X175900117Y-116353906D01*
X175694665Y-116511554D01*
X175511554Y-116694665D01*
X175353906Y-116900117D01*
X175224428Y-117124379D01*
X175125322Y-117363638D01*
X175058301Y-117613770D01*
X175058298Y-117613787D01*
X175024500Y-117870513D01*
X151475499Y-117870513D01*
X151441699Y-117613772D01*
X151396511Y-117445127D01*
X151374677Y-117363638D01*
X151324453Y-117242388D01*
X151275574Y-117124384D01*
X151146093Y-116900116D01*
X150988447Y-116694667D01*
X150805333Y-116511553D01*
X150599884Y-116353907D01*
X150525128Y-116310746D01*
X150375620Y-116224428D01*
X150375618Y-116224427D01*
X150375616Y-116224426D01*
X150311079Y-116197694D01*
X150136361Y-116125322D01*
X149886229Y-116058301D01*
X149886212Y-116058298D01*
X149629486Y-116024500D01*
X149629481Y-116024500D01*
X149370519Y-116024500D01*
X149370513Y-116024500D01*
X149113787Y-116058298D01*
X149113770Y-116058301D01*
X148863638Y-116125322D01*
X148624379Y-116224428D01*
X148400117Y-116353906D01*
X148194665Y-116511554D01*
X148011554Y-116694665D01*
X147853906Y-116900117D01*
X147724428Y-117124379D01*
X147625322Y-117363638D01*
X147558301Y-117613770D01*
X147558298Y-117613787D01*
X147524500Y-117870513D01*
X115023010Y-117870513D01*
X114989907Y-117661511D01*
X114989906Y-117661510D01*
X114989906Y-117661505D01*
X114954752Y-117553316D01*
X114919598Y-117445121D01*
X114816303Y-117242393D01*
X114816300Y-117242389D01*
X114816300Y-117242388D01*
X114682568Y-117058323D01*
X114682566Y-117058320D01*
X114521680Y-116897434D01*
X114521676Y-116897431D01*
X114337611Y-116763699D01*
X114337608Y-116763698D01*
X114337609Y-116763698D01*
X114337607Y-116763697D01*
X114134879Y-116660402D01*
X114068822Y-116638938D01*
X113918494Y-116590094D01*
X113918494Y-116590093D01*
X113793641Y-116570319D01*
X113693763Y-116554500D01*
X113466237Y-116554500D01*
X113376346Y-116568737D01*
X113241505Y-116590093D01*
X113241505Y-116590094D01*
X113025127Y-116660400D01*
X113025121Y-116660402D01*
X113025115Y-116660404D01*
X113025115Y-116660405D01*
X112822391Y-116763698D01*
X112822388Y-116763699D01*
X112638323Y-116897431D01*
X112477431Y-117058323D01*
X112343699Y-117242388D01*
X112343698Y-117242391D01*
X112240405Y-117445115D01*
X112240400Y-117445127D01*
X112170094Y-117661505D01*
X112170093Y-117661505D01*
X112146364Y-117811328D01*
X112134500Y-117886237D01*
X110430500Y-117886237D01*
X110430500Y-116171874D01*
X110450462Y-116097374D01*
X110474141Y-116066515D01*
X112771515Y-113769141D01*
X112838310Y-113730577D01*
X112876874Y-113725500D01*
X113443101Y-113725500D01*
X113443102Y-113725500D01*
X113531564Y-113714877D01*
X113672342Y-113659361D01*
X113792922Y-113567922D01*
X113884361Y-113447342D01*
X113939877Y-113306564D01*
X113950500Y-113218102D01*
X113950500Y-111881898D01*
X113939877Y-111793436D01*
X113884361Y-111652658D01*
X113847870Y-111604538D01*
X113792923Y-111532079D01*
X113792920Y-111532076D01*
X113759468Y-111506708D01*
X113712168Y-111445786D01*
X113700500Y-111387985D01*
X113700500Y-110281006D01*
X113673581Y-110145677D01*
X113673579Y-110145670D01*
X113670201Y-110137515D01*
X113670199Y-110137510D01*
X113655438Y-110101874D01*
X113620775Y-110018189D01*
X113544114Y-109903457D01*
X113244140Y-109603483D01*
X113205576Y-109536688D01*
X113200499Y-109498124D01*
X113200499Y-109005133D01*
X113197585Y-108980010D01*
X113197584Y-108980008D01*
X113152206Y-108877235D01*
X113072765Y-108797794D01*
X113072764Y-108797793D01*
X112969994Y-108752416D01*
X112969991Y-108752415D01*
X112969982Y-108752414D01*
X112944865Y-108749500D01*
X112944859Y-108749500D01*
X112235188Y-108749500D01*
X112160688Y-108729538D01*
X112106150Y-108675000D01*
X112086188Y-108600500D01*
X112106150Y-108526000D01*
X112129826Y-108495144D01*
X112202206Y-108422765D01*
X112247585Y-108319991D01*
X112250500Y-108294865D01*
X112250499Y-106805136D01*
X112247585Y-106780009D01*
X112202206Y-106677235D01*
X112194141Y-106669170D01*
X112184333Y-106652182D01*
X112170462Y-106638311D01*
X112165384Y-106619362D01*
X112155577Y-106602375D01*
X112150500Y-106563811D01*
X112150500Y-106401874D01*
X112170462Y-106327374D01*
X112194141Y-106296515D01*
X112246515Y-106244141D01*
X112313310Y-106205577D01*
X112351874Y-106200500D01*
X116151487Y-106200500D01*
X116225987Y-106220462D01*
X116280525Y-106275000D01*
X116300487Y-106349500D01*
X116300028Y-106361190D01*
X116296307Y-106408465D01*
X116816471Y-106928629D01*
X116765606Y-106942259D01*
X116674394Y-106994920D01*
X116599920Y-107069394D01*
X116547259Y-107160606D01*
X116533629Y-107211471D01*
X116013465Y-106691307D01*
X115979195Y-106738477D01*
X115900590Y-106892746D01*
X115847086Y-107057413D01*
X115820000Y-107228432D01*
X115820000Y-107401567D01*
X115847086Y-107572586D01*
X115900590Y-107737253D01*
X115979197Y-107891526D01*
X116013464Y-107938691D01*
X116013465Y-107938691D01*
X116533629Y-107418526D01*
X116547259Y-107469394D01*
X116599920Y-107560606D01*
X116674394Y-107635080D01*
X116765606Y-107687741D01*
X116816471Y-107701370D01*
X116296307Y-108221534D01*
X116343472Y-108255802D01*
X116343473Y-108255803D01*
X116497746Y-108334409D01*
X116662413Y-108387913D01*
X116833433Y-108415000D01*
X117006567Y-108415000D01*
X117177586Y-108387913D01*
X117342253Y-108334409D01*
X117496525Y-108255804D01*
X117543691Y-108221534D01*
X117543691Y-108221533D01*
X117023528Y-107701370D01*
X117074394Y-107687741D01*
X117165606Y-107635080D01*
X117240080Y-107560606D01*
X117292741Y-107469394D01*
X117306370Y-107418528D01*
X117826533Y-107938691D01*
X117826534Y-107938691D01*
X117860804Y-107891525D01*
X117939409Y-107737253D01*
X117992913Y-107572586D01*
X118020000Y-107401567D01*
X118020000Y-107228432D01*
X117992913Y-107057413D01*
X117939409Y-106892746D01*
X117860803Y-106738473D01*
X117860802Y-106738472D01*
X117826534Y-106691307D01*
X117306370Y-107211470D01*
X117292741Y-107160606D01*
X117240080Y-107069394D01*
X117165606Y-106994920D01*
X117074394Y-106942259D01*
X117023526Y-106928629D01*
X117543691Y-106408465D01*
X117539971Y-106361190D01*
X117554027Y-106285354D01*
X117604117Y-106226705D01*
X117676822Y-106200959D01*
X117688512Y-106200500D01*
X118691487Y-106200500D01*
X118765987Y-106220462D01*
X118820525Y-106275000D01*
X118840487Y-106349500D01*
X118840028Y-106361190D01*
X118836307Y-106408465D01*
X119356471Y-106928629D01*
X119305606Y-106942259D01*
X119214394Y-106994920D01*
X119139920Y-107069394D01*
X119087259Y-107160606D01*
X119073629Y-107211471D01*
X118553465Y-106691307D01*
X118519195Y-106738477D01*
X118440590Y-106892746D01*
X118387086Y-107057413D01*
X118360000Y-107228432D01*
X118360000Y-107401567D01*
X118387086Y-107572586D01*
X118440590Y-107737253D01*
X118519197Y-107891526D01*
X118553464Y-107938691D01*
X118553465Y-107938691D01*
X119073629Y-107418526D01*
X119087259Y-107469394D01*
X119139920Y-107560606D01*
X119214394Y-107635080D01*
X119305606Y-107687741D01*
X119356471Y-107701370D01*
X118836307Y-108221534D01*
X118883472Y-108255802D01*
X118883473Y-108255803D01*
X119037746Y-108334409D01*
X119202413Y-108387913D01*
X119373433Y-108415000D01*
X119546567Y-108415000D01*
X119717586Y-108387913D01*
X119882253Y-108334409D01*
X120036525Y-108255804D01*
X120083691Y-108221534D01*
X120083691Y-108221533D01*
X119563528Y-107701370D01*
X119614394Y-107687741D01*
X119705606Y-107635080D01*
X119780080Y-107560606D01*
X119832741Y-107469394D01*
X119846370Y-107418528D01*
X120366533Y-107938691D01*
X120366534Y-107938691D01*
X120400804Y-107891525D01*
X120479409Y-107737253D01*
X120532913Y-107572586D01*
X120560000Y-107401567D01*
X120560000Y-107228432D01*
X120532913Y-107057413D01*
X120479409Y-106892746D01*
X120400803Y-106738473D01*
X120400802Y-106738472D01*
X120366534Y-106691307D01*
X119846370Y-107211470D01*
X119832741Y-107160606D01*
X119780080Y-107069394D01*
X119705606Y-106994920D01*
X119614394Y-106942259D01*
X119563526Y-106928629D01*
X120083691Y-106408465D01*
X120079971Y-106361190D01*
X120094027Y-106285354D01*
X120144117Y-106226705D01*
X120216822Y-106200959D01*
X120228512Y-106200500D01*
X121203121Y-106200500D01*
X121277621Y-106220462D01*
X121332159Y-106275000D01*
X121352121Y-106349500D01*
X121332159Y-106424000D01*
X121290703Y-106470042D01*
X121283078Y-106475581D01*
X121283070Y-106475588D01*
X121160583Y-106598075D01*
X121058771Y-106738206D01*
X120980130Y-106892549D01*
X120980125Y-106892561D01*
X120926597Y-107057299D01*
X120916585Y-107120516D01*
X120899500Y-107228389D01*
X120899500Y-107401611D01*
X120904687Y-107434359D01*
X120926597Y-107572700D01*
X120939820Y-107613394D01*
X120980127Y-107737445D01*
X121017158Y-107810122D01*
X121058771Y-107891793D01*
X121160583Y-108031924D01*
X121160586Y-108031928D01*
X121283072Y-108154414D01*
X121283075Y-108154416D01*
X121422622Y-108255804D01*
X121423212Y-108256232D01*
X121577555Y-108334873D01*
X121742299Y-108388402D01*
X121913389Y-108415500D01*
X121913393Y-108415500D01*
X122086607Y-108415500D01*
X122086611Y-108415500D01*
X122257701Y-108388402D01*
X122422445Y-108334873D01*
X122576788Y-108256232D01*
X122716928Y-108154414D01*
X122839414Y-108031928D01*
X122941232Y-107891788D01*
X123019873Y-107737445D01*
X123073402Y-107572701D01*
X123100500Y-107401611D01*
X123100500Y-107228389D01*
X123100500Y-107225875D01*
X123105577Y-107206927D01*
X123105577Y-107187311D01*
X123115384Y-107170323D01*
X123120462Y-107151375D01*
X123134333Y-107137503D01*
X123144141Y-107120516D01*
X123161128Y-107110708D01*
X123175000Y-107096837D01*
X123193948Y-107091759D01*
X123210936Y-107081952D01*
X123230552Y-107081952D01*
X123249500Y-107076875D01*
X123268448Y-107081952D01*
X123288064Y-107081952D01*
X123305051Y-107091759D01*
X123324000Y-107096837D01*
X123354859Y-107120516D01*
X123395859Y-107161516D01*
X123434423Y-107228311D01*
X123439500Y-107266874D01*
X123439500Y-107401611D01*
X123444687Y-107434359D01*
X123466597Y-107572700D01*
X123479820Y-107613394D01*
X123520127Y-107737445D01*
X123557158Y-107810122D01*
X123598771Y-107891793D01*
X123700583Y-108031924D01*
X123700586Y-108031928D01*
X123823072Y-108154414D01*
X123823075Y-108154416D01*
X123962622Y-108255804D01*
X123963212Y-108256232D01*
X124117555Y-108334873D01*
X124282299Y-108388402D01*
X124453389Y-108415500D01*
X124453393Y-108415500D01*
X124626607Y-108415500D01*
X124626611Y-108415500D01*
X124797701Y-108388402D01*
X124962445Y-108334873D01*
X125116788Y-108256232D01*
X125256928Y-108154414D01*
X125379414Y-108031928D01*
X125481232Y-107891788D01*
X125559873Y-107737445D01*
X125613402Y-107572701D01*
X125640500Y-107401611D01*
X125640500Y-107266874D01*
X125660462Y-107192374D01*
X125684141Y-107161515D01*
X126601516Y-106244141D01*
X126668311Y-106205577D01*
X126706875Y-106200500D01*
X129836605Y-106200500D01*
X129911105Y-106220462D01*
X129965643Y-106275000D01*
X129975216Y-106294838D01*
X130015638Y-106397340D01*
X130015639Y-106397342D01*
X130060872Y-106456990D01*
X130099293Y-106507657D01*
X130107078Y-106517922D01*
X130227658Y-106609361D01*
X130368436Y-106664877D01*
X130456898Y-106675500D01*
X130456899Y-106675500D01*
X131343101Y-106675500D01*
X131343102Y-106675500D01*
X131431564Y-106664877D01*
X131572342Y-106609361D01*
X131692922Y-106517922D01*
X131784361Y-106397342D01*
X131839877Y-106256564D01*
X131850500Y-106168102D01*
X131850500Y-104831898D01*
X131839877Y-104743436D01*
X131784361Y-104602658D01*
X131692922Y-104482078D01*
X131692920Y-104482076D01*
X131629998Y-104434361D01*
X131572342Y-104390639D01*
X131572341Y-104390638D01*
X131431563Y-104335122D01*
X131343105Y-104324500D01*
X131343102Y-104324500D01*
X130456898Y-104324500D01*
X130456894Y-104324500D01*
X130368436Y-104335122D01*
X130227658Y-104390638D01*
X130227658Y-104390639D01*
X130107079Y-104482076D01*
X130107076Y-104482079D01*
X130015639Y-104602658D01*
X130015638Y-104602659D01*
X129975216Y-104705162D01*
X129929315Y-104767144D01*
X129858572Y-104797872D01*
X129836605Y-104799500D01*
X126286002Y-104799500D01*
X126150672Y-104826419D01*
X126150670Y-104826420D01*
X126023197Y-104879220D01*
X126023184Y-104879228D01*
X125908458Y-104955885D01*
X125908453Y-104955889D01*
X124693483Y-106170859D01*
X124676495Y-106180666D01*
X124662624Y-106194538D01*
X124643675Y-106199615D01*
X124626688Y-106209423D01*
X124588124Y-106214500D01*
X124491875Y-106214500D01*
X124417375Y-106194538D01*
X124386516Y-106170859D01*
X123171546Y-104955889D01*
X123171543Y-104955886D01*
X123056811Y-104879225D01*
X123056808Y-104879223D01*
X123056802Y-104879220D01*
X122929329Y-104826420D01*
X122929327Y-104826419D01*
X122793997Y-104799500D01*
X122793994Y-104799500D01*
X122793993Y-104799500D01*
X112351874Y-104799500D01*
X112277374Y-104779538D01*
X112246515Y-104755859D01*
X109244141Y-101753484D01*
X109205577Y-101686689D01*
X109200500Y-101648125D01*
X109200500Y-101368060D01*
X109825000Y-101368060D01*
X109835613Y-101456443D01*
X109891079Y-101597096D01*
X109982433Y-101717562D01*
X109982437Y-101717566D01*
X110102904Y-101808920D01*
X110102903Y-101808920D01*
X110243556Y-101864386D01*
X110331939Y-101874999D01*
X110331941Y-101875000D01*
X110800000Y-101875000D01*
X111200000Y-101875000D01*
X111668059Y-101875000D01*
X111668060Y-101874999D01*
X111756443Y-101864386D01*
X111897096Y-101808920D01*
X112017562Y-101717566D01*
X112017566Y-101717562D01*
X112108920Y-101597096D01*
X112164386Y-101456443D01*
X112164492Y-101455560D01*
X112800000Y-101455560D01*
X112810613Y-101543943D01*
X112866079Y-101684596D01*
X112957433Y-101805062D01*
X112957437Y-101805066D01*
X113077904Y-101896420D01*
X113077903Y-101896420D01*
X113218556Y-101951886D01*
X113306939Y-101962499D01*
X113306941Y-101962500D01*
X113800000Y-101962500D01*
X114200000Y-101962500D01*
X114693059Y-101962500D01*
X114693060Y-101962499D01*
X114781443Y-101951886D01*
X114922096Y-101896420D01*
X115042562Y-101805066D01*
X115042566Y-101805062D01*
X115133920Y-101684596D01*
X115189386Y-101543943D01*
X115199999Y-101455560D01*
X115200000Y-101455558D01*
X115200000Y-101200000D01*
X114200000Y-101200000D01*
X114200000Y-101962500D01*
X113800000Y-101962500D01*
X113800000Y-101200000D01*
X112800000Y-101200000D01*
X112800000Y-101455560D01*
X112164492Y-101455560D01*
X112174999Y-101368060D01*
X112175000Y-101368058D01*
X112175000Y-101125000D01*
X111200000Y-101125000D01*
X111200000Y-101875000D01*
X110800000Y-101875000D01*
X110800000Y-101125000D01*
X109825000Y-101125000D01*
X109825000Y-101368060D01*
X109200500Y-101368060D01*
X109200500Y-100481939D01*
X109825000Y-100481939D01*
X109825000Y-100725000D01*
X110800000Y-100725000D01*
X111200000Y-100725000D01*
X112175000Y-100725000D01*
X112175000Y-100544439D01*
X112800000Y-100544439D01*
X112800000Y-100800000D01*
X113800000Y-100800000D01*
X114200000Y-100800000D01*
X115200000Y-100800000D01*
X115200000Y-100544441D01*
X115199999Y-100544439D01*
X115189386Y-100456056D01*
X115133920Y-100315403D01*
X115042566Y-100194937D01*
X115042562Y-100194933D01*
X114922095Y-100103579D01*
X114922096Y-100103579D01*
X114781443Y-100048113D01*
X114693060Y-100037500D01*
X114200000Y-100037500D01*
X114200000Y-100800000D01*
X113800000Y-100800000D01*
X113800000Y-100037500D01*
X113306939Y-100037500D01*
X113218556Y-100048113D01*
X113077903Y-100103579D01*
X112957437Y-100194933D01*
X112957433Y-100194937D01*
X112866079Y-100315403D01*
X112810613Y-100456056D01*
X112800000Y-100544439D01*
X112175000Y-100544439D01*
X112175000Y-100481941D01*
X112174999Y-100481939D01*
X112164386Y-100393556D01*
X112108920Y-100252903D01*
X112017566Y-100132437D01*
X112017562Y-100132433D01*
X111897095Y-100041079D01*
X111897096Y-100041079D01*
X111756443Y-99985613D01*
X111668060Y-99975000D01*
X111200000Y-99975000D01*
X111200000Y-100725000D01*
X110800000Y-100725000D01*
X110800000Y-99975000D01*
X110331939Y-99975000D01*
X110243556Y-99985613D01*
X110102903Y-100041079D01*
X109982437Y-100132433D01*
X109982433Y-100132437D01*
X109891079Y-100252903D01*
X109835613Y-100393556D01*
X109825000Y-100481939D01*
X109200500Y-100481939D01*
X109200500Y-99608432D01*
X115820000Y-99608432D01*
X115820000Y-99781567D01*
X115847086Y-99952586D01*
X115900590Y-100117253D01*
X115979197Y-100271526D01*
X116013464Y-100318691D01*
X116013465Y-100318691D01*
X116533629Y-99798526D01*
X116547259Y-99849394D01*
X116599920Y-99940606D01*
X116674394Y-100015080D01*
X116765606Y-100067741D01*
X116816471Y-100081370D01*
X116296307Y-100601534D01*
X116343472Y-100635802D01*
X116343473Y-100635803D01*
X116497746Y-100714409D01*
X116662413Y-100767913D01*
X116833433Y-100795000D01*
X117006567Y-100795000D01*
X117177586Y-100767913D01*
X117342253Y-100714409D01*
X117496525Y-100635804D01*
X117543691Y-100601534D01*
X117543691Y-100601533D01*
X117023528Y-100081370D01*
X117074394Y-100067741D01*
X117165606Y-100015080D01*
X117240080Y-99940606D01*
X117292741Y-99849394D01*
X117306370Y-99798528D01*
X117826533Y-100318691D01*
X117826534Y-100318691D01*
X117860804Y-100271525D01*
X117939409Y-100117253D01*
X117992913Y-99952586D01*
X118020000Y-99781567D01*
X118020000Y-99608432D01*
X118019993Y-99608389D01*
X118359500Y-99608389D01*
X118359500Y-99781611D01*
X118362413Y-99800000D01*
X118386597Y-99952700D01*
X118404208Y-100006899D01*
X118440127Y-100117445D01*
X118518093Y-100270462D01*
X118518771Y-100271793D01*
X118613916Y-100402748D01*
X118620586Y-100411928D01*
X118743072Y-100534414D01*
X118743075Y-100534416D01*
X118882622Y-100635804D01*
X118883212Y-100636232D01*
X119037555Y-100714873D01*
X119202299Y-100768402D01*
X119373389Y-100795500D01*
X119373393Y-100795500D01*
X119546607Y-100795500D01*
X119546611Y-100795500D01*
X119717701Y-100768402D01*
X119819033Y-100735476D01*
X119896052Y-100731440D01*
X119964773Y-100766455D01*
X119970413Y-100771806D01*
X123069087Y-103870480D01*
X123069089Y-103870481D01*
X123069093Y-103870484D01*
X123160408Y-103923205D01*
X123160409Y-103923205D01*
X123160412Y-103923207D01*
X123262273Y-103950500D01*
X123367727Y-103950500D01*
X126687207Y-103950500D01*
X126761707Y-103970462D01*
X126816245Y-104025000D01*
X126832061Y-104072484D01*
X126832782Y-104072302D01*
X126835122Y-104081563D01*
X126890638Y-104222341D01*
X126976163Y-104335123D01*
X126982078Y-104342922D01*
X127102658Y-104434361D01*
X127243436Y-104489877D01*
X127331898Y-104500500D01*
X127331899Y-104500500D01*
X128668101Y-104500500D01*
X128668102Y-104500500D01*
X128756564Y-104489877D01*
X128897342Y-104434361D01*
X129017922Y-104342922D01*
X129109361Y-104222342D01*
X129164877Y-104081564D01*
X129175500Y-103993102D01*
X129175500Y-103106898D01*
X129166337Y-103030598D01*
X129177274Y-102954253D01*
X129208912Y-102907479D01*
X129887173Y-102229219D01*
X130587501Y-102229219D01*
X130590350Y-102259604D01*
X130635153Y-102387645D01*
X130715708Y-102496791D01*
X130824854Y-102577346D01*
X130952897Y-102622149D01*
X130983296Y-102624999D01*
X131425000Y-102624999D01*
X131425000Y-102225000D01*
X130587501Y-102225000D01*
X130587501Y-102229219D01*
X129887173Y-102229219D01*
X130334088Y-101782304D01*
X130400882Y-101743741D01*
X130478010Y-101743741D01*
X130544805Y-101782305D01*
X130587500Y-101825000D01*
X131425000Y-101825000D01*
X131425000Y-101425000D01*
X131825000Y-101425000D01*
X131825000Y-101825000D01*
X132662499Y-101825000D01*
X132662499Y-101820771D01*
X132663032Y-101818778D01*
X132662553Y-101816775D01*
X132672975Y-101781673D01*
X132682461Y-101746271D01*
X132683919Y-101744812D01*
X132684506Y-101742837D01*
X132711089Y-101717642D01*
X132736999Y-101691733D01*
X132738990Y-101691199D01*
X132740486Y-101689782D01*
X132756489Y-101686510D01*
X132811499Y-101671771D01*
X132815495Y-101671825D01*
X132826281Y-101672114D01*
X132827801Y-101672646D01*
X132858234Y-101675500D01*
X132952483Y-101675500D01*
X132954496Y-101675554D01*
X132989597Y-101685976D01*
X133025000Y-101695462D01*
X133026458Y-101696920D01*
X133028434Y-101697507D01*
X133053628Y-101724090D01*
X133079538Y-101750000D01*
X133080071Y-101751991D01*
X133081489Y-101753487D01*
X133090014Y-101789099D01*
X133099500Y-101824500D01*
X133099500Y-102225500D01*
X133079538Y-102300000D01*
X133025000Y-102354538D01*
X132950500Y-102374500D01*
X132858234Y-102374500D01*
X132839743Y-102376234D01*
X132825407Y-102377578D01*
X132749369Y-102364656D01*
X132689979Y-102315447D01*
X132663150Y-102243135D01*
X132662500Y-102229228D01*
X132662500Y-102225000D01*
X131825000Y-102225000D01*
X131825000Y-102624999D01*
X132266699Y-102624999D01*
X132266719Y-102624998D01*
X132299091Y-102621963D01*
X132375129Y-102634883D01*
X132434520Y-102684092D01*
X132461349Y-102756403D01*
X132462000Y-102770312D01*
X132462000Y-103179275D01*
X132464853Y-103209695D01*
X132509707Y-103337883D01*
X132590348Y-103447148D01*
X132590351Y-103447151D01*
X132699616Y-103527792D01*
X132699617Y-103527792D01*
X132699618Y-103527793D01*
X132827801Y-103572646D01*
X132858234Y-103575500D01*
X133450500Y-103575500D01*
X133525000Y-103595462D01*
X133579538Y-103650000D01*
X133599500Y-103724500D01*
X133599500Y-104187206D01*
X133579538Y-104261706D01*
X133525000Y-104316244D01*
X133477516Y-104332062D01*
X133477698Y-104332782D01*
X133468436Y-104335122D01*
X133327658Y-104390638D01*
X133327658Y-104390639D01*
X133207079Y-104482076D01*
X133207076Y-104482079D01*
X133115639Y-104602658D01*
X133115638Y-104602658D01*
X133060122Y-104743436D01*
X133049500Y-104831894D01*
X133049500Y-106168105D01*
X133060122Y-106256563D01*
X133115638Y-106397341D01*
X133199293Y-106507657D01*
X133207078Y-106517922D01*
X133327658Y-106609361D01*
X133468436Y-106664877D01*
X133556898Y-106675500D01*
X133556899Y-106675500D01*
X134443101Y-106675500D01*
X134443102Y-106675500D01*
X134531564Y-106664877D01*
X134672342Y-106609361D01*
X134792922Y-106517922D01*
X134884361Y-106397342D01*
X134939877Y-106256564D01*
X134950500Y-106168102D01*
X134950500Y-104831898D01*
X134939877Y-104743436D01*
X134884361Y-104602658D01*
X134792922Y-104482078D01*
X134792920Y-104482076D01*
X134729998Y-104434361D01*
X134672342Y-104390639D01*
X134672341Y-104390638D01*
X134531563Y-104335122D01*
X134522302Y-104332782D01*
X134522627Y-104331493D01*
X134460140Y-104306436D01*
X134412497Y-104245782D01*
X134400500Y-104187206D01*
X134400500Y-103508577D01*
X134420462Y-103434077D01*
X134429615Y-103420098D01*
X134490293Y-103337882D01*
X134535146Y-103209699D01*
X134538000Y-103179266D01*
X134538000Y-102770734D01*
X134535146Y-102740301D01*
X134490293Y-102612118D01*
X134464630Y-102577346D01*
X134409651Y-102502851D01*
X134409648Y-102502848D01*
X134300383Y-102422207D01*
X134240542Y-102401268D01*
X134172199Y-102377354D01*
X134172197Y-102377353D01*
X134172195Y-102377353D01*
X134141775Y-102374500D01*
X134141766Y-102374500D01*
X134049500Y-102374500D01*
X133975000Y-102354538D01*
X133920462Y-102300000D01*
X133900500Y-102225500D01*
X133900500Y-101824500D01*
X133920462Y-101750000D01*
X133975000Y-101695462D01*
X134049500Y-101675500D01*
X134141759Y-101675500D01*
X134141766Y-101675500D01*
X134172199Y-101672646D01*
X134300382Y-101627793D01*
X134409650Y-101547150D01*
X134490293Y-101437882D01*
X134535146Y-101309699D01*
X134538000Y-101279266D01*
X134538000Y-100870734D01*
X134535146Y-100840301D01*
X134490293Y-100712118D01*
X134477192Y-100694367D01*
X134449014Y-100622573D01*
X134449353Y-100586430D01*
X134450498Y-100577731D01*
X134450500Y-100577727D01*
X134450500Y-99812793D01*
X134470462Y-99738293D01*
X134525000Y-99683755D01*
X134572484Y-99667938D01*
X134572302Y-99667218D01*
X134581562Y-99664877D01*
X134581564Y-99664877D01*
X134722342Y-99609361D01*
X134842922Y-99517922D01*
X134934361Y-99397342D01*
X134989877Y-99256564D01*
X135000500Y-99168102D01*
X135000500Y-97831898D01*
X134989877Y-97743436D01*
X134934361Y-97602658D01*
X134927965Y-97594224D01*
X134842923Y-97482079D01*
X134842920Y-97482076D01*
X134760266Y-97419398D01*
X134722342Y-97390639D01*
X134722341Y-97390638D01*
X134581563Y-97335122D01*
X134493105Y-97324500D01*
X134493102Y-97324500D01*
X133606898Y-97324500D01*
X133606894Y-97324500D01*
X133518436Y-97335122D01*
X133377658Y-97390638D01*
X133377658Y-97390639D01*
X133257079Y-97482076D01*
X133257076Y-97482079D01*
X133165639Y-97602658D01*
X133165638Y-97602658D01*
X133110122Y-97743436D01*
X133099500Y-97831894D01*
X133099500Y-99168105D01*
X133110122Y-99256563D01*
X133165638Y-99397341D01*
X133251163Y-99510123D01*
X133257078Y-99517922D01*
X133377658Y-99609361D01*
X133518436Y-99664877D01*
X133527698Y-99667218D01*
X133527371Y-99668508D01*
X133589848Y-99693554D01*
X133637497Y-99754203D01*
X133649500Y-99812793D01*
X133649500Y-100297389D01*
X133644423Y-100316336D01*
X133644423Y-100335953D01*
X133634615Y-100352940D01*
X133629538Y-100371889D01*
X133605859Y-100402748D01*
X133577748Y-100430859D01*
X133510953Y-100469423D01*
X133472389Y-100474500D01*
X132858224Y-100474500D01*
X132827804Y-100477353D01*
X132699616Y-100522207D01*
X132590351Y-100602848D01*
X132590348Y-100602851D01*
X132509707Y-100712116D01*
X132464853Y-100840304D01*
X132462000Y-100870724D01*
X132462000Y-101279687D01*
X132442038Y-101354187D01*
X132387500Y-101408725D01*
X132313000Y-101428687D01*
X132299094Y-101428037D01*
X132266698Y-101425000D01*
X131825000Y-101425000D01*
X131425000Y-101425000D01*
X131051109Y-101425000D01*
X130976609Y-101405038D01*
X130922071Y-101350500D01*
X130902109Y-101276000D01*
X130922071Y-101201500D01*
X130945743Y-101170648D01*
X131270480Y-100845913D01*
X131323207Y-100754588D01*
X131350500Y-100652727D01*
X131350500Y-100547273D01*
X131350500Y-99812793D01*
X131370462Y-99738293D01*
X131425000Y-99683755D01*
X131472484Y-99667938D01*
X131472302Y-99667218D01*
X131481562Y-99664877D01*
X131481564Y-99664877D01*
X131622342Y-99609361D01*
X131742922Y-99517922D01*
X131834361Y-99397342D01*
X131889877Y-99256564D01*
X131900500Y-99168102D01*
X131900500Y-97831898D01*
X131889877Y-97743436D01*
X131834361Y-97602658D01*
X131827965Y-97594224D01*
X131742923Y-97482079D01*
X131742920Y-97482076D01*
X131660266Y-97419398D01*
X131622342Y-97390639D01*
X131622341Y-97390638D01*
X131481563Y-97335122D01*
X131393105Y-97324500D01*
X131393102Y-97324500D01*
X130506898Y-97324500D01*
X130506894Y-97324500D01*
X130418436Y-97335122D01*
X130277658Y-97390638D01*
X130277658Y-97390639D01*
X130157079Y-97482076D01*
X130157076Y-97482079D01*
X130065639Y-97602658D01*
X130065638Y-97602658D01*
X130010122Y-97743436D01*
X129999500Y-97831894D01*
X129999500Y-99168105D01*
X130010122Y-99256563D01*
X130065638Y-99397341D01*
X130151163Y-99510123D01*
X130157078Y-99517922D01*
X130277658Y-99609361D01*
X130418436Y-99664877D01*
X130427698Y-99667218D01*
X130427371Y-99668508D01*
X130489848Y-99693554D01*
X130537497Y-99754203D01*
X130549500Y-99812793D01*
X130549500Y-100372389D01*
X130529538Y-100446889D01*
X130505859Y-100477748D01*
X128427748Y-102555859D01*
X128360953Y-102594423D01*
X128322389Y-102599500D01*
X127331894Y-102599500D01*
X127243436Y-102610122D01*
X127102658Y-102665638D01*
X127102658Y-102665639D01*
X126982079Y-102757076D01*
X126982076Y-102757079D01*
X126890639Y-102877658D01*
X126890638Y-102877658D01*
X126835122Y-103018436D01*
X126832782Y-103027698D01*
X126831491Y-103027371D01*
X126806446Y-103089848D01*
X126745797Y-103137497D01*
X126687207Y-103149500D01*
X123542611Y-103149500D01*
X123468111Y-103129538D01*
X123437252Y-103105859D01*
X120536825Y-100205432D01*
X120498261Y-100138637D01*
X120498261Y-100061509D01*
X120500460Y-100054083D01*
X120533402Y-99952701D01*
X120560500Y-99781611D01*
X120560500Y-99608389D01*
X120533402Y-99437299D01*
X120479873Y-99272555D01*
X120401232Y-99118212D01*
X120299414Y-98978072D01*
X120176928Y-98855586D01*
X120100421Y-98800000D01*
X120036793Y-98753771D01*
X120036790Y-98753769D01*
X120036788Y-98753768D01*
X119882445Y-98675127D01*
X119819030Y-98654522D01*
X119717700Y-98621597D01*
X119613682Y-98605123D01*
X119546611Y-98594500D01*
X119373389Y-98594500D01*
X119307037Y-98605009D01*
X119202299Y-98621597D01*
X119037561Y-98675125D01*
X119037555Y-98675127D01*
X119037549Y-98675129D01*
X119037549Y-98675130D01*
X118883206Y-98753771D01*
X118743075Y-98855583D01*
X118620583Y-98978075D01*
X118518771Y-99118206D01*
X118440130Y-99272549D01*
X118440125Y-99272561D01*
X118386597Y-99437299D01*
X118373828Y-99517923D01*
X118359500Y-99608389D01*
X118019993Y-99608389D01*
X117992913Y-99437413D01*
X117939409Y-99272746D01*
X117860803Y-99118473D01*
X117860802Y-99118472D01*
X117826534Y-99071307D01*
X117306370Y-99591470D01*
X117292741Y-99540606D01*
X117240080Y-99449394D01*
X117165606Y-99374920D01*
X117074394Y-99322259D01*
X117023526Y-99308629D01*
X117543691Y-98788465D01*
X117543691Y-98788464D01*
X117496526Y-98754197D01*
X117496526Y-98754196D01*
X117342253Y-98675590D01*
X117177586Y-98622086D01*
X117006567Y-98595000D01*
X116833433Y-98595000D01*
X116662413Y-98622086D01*
X116497746Y-98675590D01*
X116343477Y-98754195D01*
X116296307Y-98788465D01*
X116816471Y-99308629D01*
X116765606Y-99322259D01*
X116674394Y-99374920D01*
X116599920Y-99449394D01*
X116547259Y-99540606D01*
X116533629Y-99591471D01*
X116013465Y-99071307D01*
X115979195Y-99118477D01*
X115900590Y-99272746D01*
X115847086Y-99437413D01*
X115820000Y-99608432D01*
X109200500Y-99608432D01*
X109200500Y-95301875D01*
X109220462Y-95227375D01*
X109244141Y-95196516D01*
X110920195Y-93520462D01*
X112596957Y-91843699D01*
X112663750Y-91805137D01*
X112740878Y-91805137D01*
X112807673Y-91843701D01*
X112846237Y-91910496D01*
X112846237Y-91987624D01*
X112840926Y-92003719D01*
X112835123Y-92018433D01*
X112835122Y-92018436D01*
X112824500Y-92106894D01*
X112824500Y-92993105D01*
X112835122Y-93081563D01*
X112890638Y-93222341D01*
X112982076Y-93342920D01*
X112982079Y-93342923D01*
X112991124Y-93349782D01*
X113102658Y-93434361D01*
X113243436Y-93489877D01*
X113331898Y-93500500D01*
X113450500Y-93500500D01*
X113525000Y-93520462D01*
X113579538Y-93575000D01*
X113599500Y-93649500D01*
X113599500Y-96763000D01*
X113579538Y-96837500D01*
X113525000Y-96892038D01*
X113450500Y-96912000D01*
X113306894Y-96912000D01*
X113218436Y-96922622D01*
X113077658Y-96978138D01*
X113077658Y-96978139D01*
X112957079Y-97069576D01*
X112957076Y-97069579D01*
X112865639Y-97190158D01*
X112865638Y-97190158D01*
X112810428Y-97330162D01*
X112764527Y-97392144D01*
X112693784Y-97422872D01*
X112671817Y-97424500D01*
X112312793Y-97424500D01*
X112238293Y-97404538D01*
X112183755Y-97350000D01*
X112167938Y-97302515D01*
X112167218Y-97302698D01*
X112164877Y-97293436D01*
X112109361Y-97152658D01*
X112017923Y-97032079D01*
X112017920Y-97032076D01*
X111970982Y-96996482D01*
X111897342Y-96940639D01*
X111897341Y-96940638D01*
X111756563Y-96885122D01*
X111668105Y-96874500D01*
X111668102Y-96874500D01*
X110331898Y-96874500D01*
X110331894Y-96874500D01*
X110243436Y-96885122D01*
X110102658Y-96940638D01*
X110102658Y-96940639D01*
X109982079Y-97032076D01*
X109982076Y-97032079D01*
X109890639Y-97152658D01*
X109890638Y-97152658D01*
X109835122Y-97293436D01*
X109824500Y-97381894D01*
X109824500Y-98268105D01*
X109835122Y-98356563D01*
X109890638Y-98497341D01*
X109982076Y-98617920D01*
X109982079Y-98617923D01*
X109987172Y-98621785D01*
X110102658Y-98709361D01*
X110243436Y-98764877D01*
X110331898Y-98775500D01*
X110331899Y-98775500D01*
X111668101Y-98775500D01*
X111668102Y-98775500D01*
X111756564Y-98764877D01*
X111897342Y-98709361D01*
X112017922Y-98617922D01*
X112109361Y-98497342D01*
X112164877Y-98356564D01*
X112164877Y-98356562D01*
X112167218Y-98347302D01*
X112168508Y-98347628D01*
X112193554Y-98285152D01*
X112254203Y-98237503D01*
X112312793Y-98225500D01*
X112654701Y-98225500D01*
X112729201Y-98245462D01*
X112783739Y-98300000D01*
X112802638Y-98356735D01*
X112810122Y-98419063D01*
X112865638Y-98559841D01*
X112953413Y-98675590D01*
X112957078Y-98680422D01*
X113077658Y-98771861D01*
X113218436Y-98827377D01*
X113306898Y-98838000D01*
X113306899Y-98838000D01*
X114693101Y-98838000D01*
X114693102Y-98838000D01*
X114781564Y-98827377D01*
X114922342Y-98771861D01*
X115042922Y-98680422D01*
X115134361Y-98559842D01*
X115189877Y-98419064D01*
X115191358Y-98406732D01*
X115220062Y-98335144D01*
X115280714Y-98287499D01*
X115339295Y-98275500D01*
X119952389Y-98275500D01*
X120026889Y-98295462D01*
X120057748Y-98319141D01*
X120923173Y-99184566D01*
X120961737Y-99251361D01*
X120961737Y-99328489D01*
X120959522Y-99335967D01*
X120926597Y-99437301D01*
X120913828Y-99517923D01*
X120899500Y-99608389D01*
X120899500Y-99781611D01*
X120902413Y-99800000D01*
X120926597Y-99952700D01*
X120944208Y-100006899D01*
X120980127Y-100117445D01*
X121058093Y-100270462D01*
X121058771Y-100271793D01*
X121070623Y-100288105D01*
X121160586Y-100411928D01*
X121283072Y-100534414D01*
X121377263Y-100602848D01*
X121422622Y-100635804D01*
X121423212Y-100636232D01*
X121577555Y-100714873D01*
X121742299Y-100768402D01*
X121913389Y-100795500D01*
X121913393Y-100795500D01*
X122086607Y-100795500D01*
X122086611Y-100795500D01*
X122257701Y-100768402D01*
X122422445Y-100714873D01*
X122576788Y-100636232D01*
X122716928Y-100534414D01*
X122839414Y-100411928D01*
X122941232Y-100271788D01*
X123019873Y-100117445D01*
X123073402Y-99952701D01*
X123100500Y-99781611D01*
X123100500Y-99608389D01*
X123073402Y-99437299D01*
X123019873Y-99272555D01*
X122941232Y-99118212D01*
X122929376Y-99101894D01*
X122866262Y-99015025D01*
X122839414Y-98978072D01*
X122716928Y-98855586D01*
X122716924Y-98855583D01*
X122576793Y-98753771D01*
X122576790Y-98753769D01*
X122576788Y-98753768D01*
X122422445Y-98675127D01*
X122359030Y-98654522D01*
X122257700Y-98621597D01*
X122153682Y-98605123D01*
X122086611Y-98594500D01*
X121913389Y-98594500D01*
X121831075Y-98607537D01*
X121742301Y-98621597D01*
X121640967Y-98654522D01*
X121563945Y-98658558D01*
X121495223Y-98623542D01*
X121489566Y-98618173D01*
X120958357Y-98086964D01*
X120425913Y-97554520D01*
X120425910Y-97554518D01*
X120425906Y-97554515D01*
X120334591Y-97501794D01*
X120334588Y-97501793D01*
X120307295Y-97494480D01*
X120232729Y-97474500D01*
X120232727Y-97474500D01*
X115339295Y-97474500D01*
X115264795Y-97454538D01*
X115210257Y-97400000D01*
X115191358Y-97343268D01*
X115191198Y-97341940D01*
X115189877Y-97330936D01*
X115134361Y-97190158D01*
X115094559Y-97137671D01*
X115042923Y-97069579D01*
X115042920Y-97069576D01*
X114967077Y-97012063D01*
X114922342Y-96978139D01*
X114922341Y-96978138D01*
X114781563Y-96922622D01*
X114693105Y-96912000D01*
X114693102Y-96912000D01*
X114549500Y-96912000D01*
X114475000Y-96892038D01*
X114420462Y-96837500D01*
X114400500Y-96763000D01*
X114400500Y-93649500D01*
X114420462Y-93575000D01*
X114475000Y-93520462D01*
X114549500Y-93500500D01*
X114668101Y-93500500D01*
X114668102Y-93500500D01*
X114756564Y-93489877D01*
X114897342Y-93434361D01*
X115017922Y-93342922D01*
X115109361Y-93222342D01*
X115164877Y-93081564D01*
X115172503Y-93018060D01*
X115800000Y-93018060D01*
X115810613Y-93106443D01*
X115866079Y-93247096D01*
X115957433Y-93367562D01*
X115957437Y-93367566D01*
X116077904Y-93458920D01*
X116077903Y-93458920D01*
X116218556Y-93514386D01*
X116306939Y-93524999D01*
X116306941Y-93525000D01*
X116800000Y-93525000D01*
X117200000Y-93525000D01*
X117693059Y-93525000D01*
X117693060Y-93524999D01*
X117781443Y-93514386D01*
X117922096Y-93458920D01*
X118042562Y-93367566D01*
X118042566Y-93367562D01*
X118133920Y-93247096D01*
X118189386Y-93106443D01*
X118199999Y-93018060D01*
X118200000Y-93018058D01*
X118200000Y-92762500D01*
X117200000Y-92762500D01*
X117200000Y-93525000D01*
X116800000Y-93525000D01*
X116800000Y-92762500D01*
X115800000Y-92762500D01*
X115800000Y-93018060D01*
X115172503Y-93018060D01*
X115175500Y-92993102D01*
X115175500Y-92106939D01*
X115800000Y-92106939D01*
X115800000Y-92362500D01*
X116800000Y-92362500D01*
X117200000Y-92362500D01*
X118200000Y-92362500D01*
X118200000Y-92106941D01*
X118199999Y-92106939D01*
X118189386Y-92018556D01*
X118133920Y-91877903D01*
X118042566Y-91757437D01*
X118042562Y-91757433D01*
X117922095Y-91666079D01*
X117922096Y-91666079D01*
X117781443Y-91610613D01*
X117693060Y-91600000D01*
X117200000Y-91600000D01*
X117200000Y-92362500D01*
X116800000Y-92362500D01*
X116800000Y-91600000D01*
X116306939Y-91600000D01*
X116218556Y-91610613D01*
X116077903Y-91666079D01*
X115957437Y-91757433D01*
X115957433Y-91757437D01*
X115866079Y-91877903D01*
X115810613Y-92018556D01*
X115800000Y-92106939D01*
X115175500Y-92106939D01*
X115175500Y-92106898D01*
X115164877Y-92018436D01*
X115109361Y-91877658D01*
X115073375Y-91830204D01*
X115017923Y-91757079D01*
X115017920Y-91757076D01*
X114945978Y-91702521D01*
X114897342Y-91665639D01*
X114897341Y-91665638D01*
X114756563Y-91610122D01*
X114668105Y-91599500D01*
X114668102Y-91599500D01*
X113331898Y-91599500D01*
X113331894Y-91599500D01*
X113243436Y-91610122D01*
X113243433Y-91610123D01*
X113228719Y-91615926D01*
X113152090Y-91624685D01*
X113081348Y-91593956D01*
X113035448Y-91531973D01*
X113026689Y-91455344D01*
X113057418Y-91384602D01*
X113068692Y-91371964D01*
X113996516Y-90444141D01*
X114063311Y-90405577D01*
X114101875Y-90400500D01*
X114668101Y-90400500D01*
X114668102Y-90400500D01*
X114756564Y-90389877D01*
X114897342Y-90334361D01*
X115017922Y-90242922D01*
X115043290Y-90209469D01*
X115104210Y-90162169D01*
X115162014Y-90150500D01*
X115812986Y-90150500D01*
X115887486Y-90170462D01*
X115931709Y-90209468D01*
X115957078Y-90242922D01*
X116077658Y-90334361D01*
X116218436Y-90389877D01*
X116306898Y-90400500D01*
X116306899Y-90400500D01*
X117693101Y-90400500D01*
X117693102Y-90400500D01*
X117781564Y-90389877D01*
X117922342Y-90334361D01*
X118042922Y-90242922D01*
X118077770Y-90196967D01*
X118138692Y-90149668D01*
X118196494Y-90138000D01*
X118828506Y-90138000D01*
X118903006Y-90157962D01*
X118947229Y-90196967D01*
X118982078Y-90242922D01*
X119102658Y-90334361D01*
X119243436Y-90389877D01*
X119331898Y-90400500D01*
X119331899Y-90400500D01*
X120668101Y-90400500D01*
X120668102Y-90400500D01*
X120756564Y-90389877D01*
X120897342Y-90334361D01*
X121017922Y-90242922D01*
X121043290Y-90209469D01*
X121104210Y-90162169D01*
X121162014Y-90150500D01*
X121837986Y-90150500D01*
X121912486Y-90170462D01*
X121956709Y-90209468D01*
X121982078Y-90242922D01*
X122102658Y-90334361D01*
X122243436Y-90389877D01*
X122331898Y-90400500D01*
X122331899Y-90400500D01*
X123668101Y-90400500D01*
X123668102Y-90400500D01*
X123756564Y-90389877D01*
X123897342Y-90334361D01*
X124017922Y-90242922D01*
X124043290Y-90209469D01*
X124104210Y-90162169D01*
X124162014Y-90150500D01*
X132678125Y-90150500D01*
X132752625Y-90170462D01*
X132783484Y-90194141D01*
X135034951Y-92445608D01*
X135073515Y-92512403D01*
X135073515Y-92589531D01*
X135034951Y-92656326D01*
X134968156Y-92694890D01*
X134947154Y-92698500D01*
X134947168Y-92698585D01*
X134941391Y-92699500D01*
X134941387Y-92699500D01*
X134873268Y-92710289D01*
X134746582Y-92730353D01*
X134746582Y-92730354D01*
X134559021Y-92791297D01*
X134559009Y-92791301D01*
X134383283Y-92880839D01*
X134223728Y-92996762D01*
X134084259Y-93136231D01*
X134022542Y-93221178D01*
X133962603Y-93269716D01*
X133886424Y-93281782D01*
X133814419Y-93254141D01*
X133765881Y-93194202D01*
X133752999Y-93133598D01*
X133752999Y-92955133D01*
X133750085Y-92930010D01*
X133750084Y-92930008D01*
X133704706Y-92827235D01*
X133625265Y-92747794D01*
X133625264Y-92747793D01*
X133522494Y-92702416D01*
X133522491Y-92702415D01*
X133522482Y-92702414D01*
X133497365Y-92699500D01*
X133497359Y-92699500D01*
X131502633Y-92699500D01*
X131477510Y-92702414D01*
X131477507Y-92702415D01*
X131374735Y-92747793D01*
X131295293Y-92827235D01*
X131249916Y-92930005D01*
X131249915Y-92930008D01*
X131249915Y-92930009D01*
X131247000Y-92955135D01*
X131247000Y-92955136D01*
X131247000Y-92955140D01*
X131247000Y-93450500D01*
X131227038Y-93525000D01*
X131172500Y-93579538D01*
X131098000Y-93599500D01*
X128798999Y-93599500D01*
X128724499Y-93579538D01*
X128669961Y-93525000D01*
X128649999Y-93450500D01*
X128650000Y-92925000D01*
X127961880Y-92925000D01*
X127965925Y-92917993D01*
X128000000Y-92790826D01*
X128000000Y-92659174D01*
X127965925Y-92532007D01*
X127961880Y-92525000D01*
X128649999Y-92525000D01*
X128649999Y-91830205D01*
X128647090Y-91805125D01*
X128601787Y-91702522D01*
X128522478Y-91623213D01*
X128419871Y-91577908D01*
X128394796Y-91575000D01*
X127700000Y-91575000D01*
X127700000Y-92263120D01*
X127692993Y-92259075D01*
X127565826Y-92225000D01*
X127434174Y-92225000D01*
X127307007Y-92259075D01*
X127300000Y-92263120D01*
X127300000Y-91575000D01*
X126605205Y-91575000D01*
X126580125Y-91577909D01*
X126477522Y-91623212D01*
X126477522Y-91623213D01*
X126398213Y-91702521D01*
X126352908Y-91805128D01*
X126350000Y-91830204D01*
X126350000Y-92525000D01*
X127038120Y-92525000D01*
X127034075Y-92532007D01*
X127000000Y-92659174D01*
X127000000Y-92790826D01*
X127034075Y-92917993D01*
X127038120Y-92925000D01*
X126350001Y-92925000D01*
X126350000Y-93188889D01*
X126330038Y-93263389D01*
X126275500Y-93317927D01*
X126201000Y-93337889D01*
X126126500Y-93317927D01*
X126095641Y-93294248D01*
X125563893Y-92762500D01*
X125030913Y-92229520D01*
X125030910Y-92229518D01*
X125030906Y-92229515D01*
X124939591Y-92176794D01*
X124939588Y-92176793D01*
X124912295Y-92169480D01*
X124837729Y-92149500D01*
X124837727Y-92149500D01*
X124312793Y-92149500D01*
X124238293Y-92129538D01*
X124183755Y-92075000D01*
X124172812Y-92051551D01*
X124166910Y-92035368D01*
X124164877Y-92018436D01*
X124109361Y-91877658D01*
X124073375Y-91830204D01*
X124017923Y-91757079D01*
X124017920Y-91757076D01*
X123945978Y-91702521D01*
X123897342Y-91665639D01*
X123897341Y-91665638D01*
X123756563Y-91610122D01*
X123668105Y-91599500D01*
X123668102Y-91599500D01*
X122331898Y-91599500D01*
X122331894Y-91599500D01*
X122243436Y-91610122D01*
X122102658Y-91665638D01*
X122102658Y-91665639D01*
X121982079Y-91757076D01*
X121982076Y-91757079D01*
X121890639Y-91877658D01*
X121890638Y-91877658D01*
X121835122Y-92018436D01*
X121832782Y-92027698D01*
X121831491Y-92027371D01*
X121806446Y-92089848D01*
X121745797Y-92137497D01*
X121687207Y-92149500D01*
X121312793Y-92149500D01*
X121238293Y-92129538D01*
X121183755Y-92075000D01*
X121167938Y-92027515D01*
X121167218Y-92027698D01*
X121164877Y-92018436D01*
X121109361Y-91877658D01*
X121017923Y-91757079D01*
X121017920Y-91757076D01*
X120945978Y-91702521D01*
X120897342Y-91665639D01*
X120897341Y-91665638D01*
X120756563Y-91610122D01*
X120668105Y-91599500D01*
X120668102Y-91599500D01*
X119331898Y-91599500D01*
X119331894Y-91599500D01*
X119243436Y-91610122D01*
X119102658Y-91665638D01*
X119102658Y-91665639D01*
X118982079Y-91757076D01*
X118982076Y-91757079D01*
X118890639Y-91877658D01*
X118890638Y-91877658D01*
X118835122Y-92018436D01*
X118824500Y-92106894D01*
X118824500Y-92993105D01*
X118835122Y-93081563D01*
X118890638Y-93222341D01*
X118982076Y-93342920D01*
X118982079Y-93342923D01*
X118991124Y-93349782D01*
X119102658Y-93434361D01*
X119243436Y-93489877D01*
X119331898Y-93500500D01*
X119331899Y-93500500D01*
X120668101Y-93500500D01*
X120668102Y-93500500D01*
X120756564Y-93489877D01*
X120897342Y-93434361D01*
X121017922Y-93342922D01*
X121109361Y-93222342D01*
X121164877Y-93081564D01*
X121164877Y-93081562D01*
X121167218Y-93072302D01*
X121168508Y-93072628D01*
X121193554Y-93010152D01*
X121254203Y-92962503D01*
X121312793Y-92950500D01*
X121687207Y-92950500D01*
X121761707Y-92970462D01*
X121816245Y-93025000D01*
X121832061Y-93072484D01*
X121832782Y-93072302D01*
X121835122Y-93081563D01*
X121890638Y-93222341D01*
X121982076Y-93342920D01*
X121982079Y-93342923D01*
X121991124Y-93349782D01*
X122102658Y-93434361D01*
X122243436Y-93489877D01*
X122331898Y-93500500D01*
X122331899Y-93500500D01*
X123668101Y-93500500D01*
X123668102Y-93500500D01*
X123756564Y-93489877D01*
X123897342Y-93434361D01*
X124017922Y-93342922D01*
X124109361Y-93222342D01*
X124164877Y-93081564D01*
X124164877Y-93081562D01*
X124167218Y-93072302D01*
X124168508Y-93072628D01*
X124176001Y-93053937D01*
X124183755Y-93025000D01*
X124190175Y-93018579D01*
X124193554Y-93010152D01*
X124217109Y-92991645D01*
X124238293Y-92970462D01*
X124247063Y-92968111D01*
X124254203Y-92962503D01*
X124312793Y-92950500D01*
X124557389Y-92950500D01*
X124631889Y-92970462D01*
X124662748Y-92994141D01*
X126383492Y-94714885D01*
X126422056Y-94781680D01*
X126422056Y-94858808D01*
X126419841Y-94866286D01*
X126377829Y-94995589D01*
X126377829Y-94995591D01*
X126349500Y-95174454D01*
X126349500Y-95355546D01*
X126377829Y-95534409D01*
X126381909Y-95546966D01*
X126419841Y-95663711D01*
X126423877Y-95740734D01*
X126388861Y-95809455D01*
X126383492Y-95815113D01*
X124219518Y-97979089D01*
X124219515Y-97979093D01*
X124166794Y-98070408D01*
X124166793Y-98070412D01*
X124158999Y-98099500D01*
X124158731Y-98100500D01*
X124139500Y-98172270D01*
X124139500Y-98445500D01*
X124119538Y-98520000D01*
X124065000Y-98574538D01*
X123990500Y-98594500D01*
X123946894Y-98594500D01*
X123858436Y-98605122D01*
X123717658Y-98660638D01*
X123717658Y-98660639D01*
X123597079Y-98752076D01*
X123597076Y-98752079D01*
X123505639Y-98872658D01*
X123505638Y-98872658D01*
X123450122Y-99013436D01*
X123439500Y-99101894D01*
X123439500Y-100288105D01*
X123450122Y-100376563D01*
X123505638Y-100517341D01*
X123596200Y-100636765D01*
X123597078Y-100637922D01*
X123717658Y-100729361D01*
X123858436Y-100784877D01*
X123946898Y-100795500D01*
X123946899Y-100795500D01*
X125133101Y-100795500D01*
X125133102Y-100795500D01*
X125221564Y-100784877D01*
X125362342Y-100729361D01*
X125482922Y-100637922D01*
X125574361Y-100517342D01*
X125629877Y-100376564D01*
X125640500Y-100288102D01*
X125640500Y-100244500D01*
X125660462Y-100170000D01*
X125715000Y-100115462D01*
X125789500Y-100095500D01*
X126675500Y-100095500D01*
X126750000Y-100115462D01*
X126804538Y-100170000D01*
X126824500Y-100244500D01*
X126824500Y-100893105D01*
X126835122Y-100981563D01*
X126890638Y-101122341D01*
X126966352Y-101222185D01*
X126982078Y-101242922D01*
X127102658Y-101334361D01*
X127243436Y-101389877D01*
X127331898Y-101400500D01*
X127331899Y-101400500D01*
X128668101Y-101400500D01*
X128668102Y-101400500D01*
X128756564Y-101389877D01*
X128897342Y-101334361D01*
X129017922Y-101242922D01*
X129109361Y-101122342D01*
X129164877Y-100981564D01*
X129175500Y-100893102D01*
X129175500Y-100006898D01*
X129164877Y-99918436D01*
X129109361Y-99777658D01*
X129100630Y-99766144D01*
X129017923Y-99657079D01*
X129017920Y-99657076D01*
X128954998Y-99609361D01*
X128897342Y-99565639D01*
X128897341Y-99565638D01*
X128756563Y-99510122D01*
X128668105Y-99499500D01*
X128668102Y-99499500D01*
X127677611Y-99499500D01*
X127603111Y-99479538D01*
X127572253Y-99455860D01*
X127542752Y-99426359D01*
X127490913Y-99374520D01*
X127490910Y-99374518D01*
X127490906Y-99374515D01*
X127399591Y-99321794D01*
X127399588Y-99321793D01*
X127372295Y-99314480D01*
X127297729Y-99294500D01*
X127297727Y-99294500D01*
X125789500Y-99294500D01*
X125715000Y-99274538D01*
X125660462Y-99220000D01*
X125640500Y-99145500D01*
X125640500Y-99101899D01*
X125640500Y-99101898D01*
X125629877Y-99013436D01*
X125574361Y-98872658D01*
X125519263Y-98800000D01*
X125482923Y-98752079D01*
X125482920Y-98752076D01*
X125435982Y-98716482D01*
X125362342Y-98660639D01*
X125362341Y-98660638D01*
X125221563Y-98605122D01*
X125133105Y-98594500D01*
X125133102Y-98594500D01*
X125096611Y-98594500D01*
X125022111Y-98574538D01*
X124967573Y-98520000D01*
X124947611Y-98445500D01*
X124967573Y-98371000D01*
X124991252Y-98340141D01*
X125424860Y-97906533D01*
X126949886Y-96381505D01*
X127016679Y-96342943D01*
X127093807Y-96342943D01*
X127101287Y-96345158D01*
X127230591Y-96387171D01*
X127409454Y-96415500D01*
X127409458Y-96415500D01*
X127590542Y-96415500D01*
X127590546Y-96415500D01*
X127769409Y-96387171D01*
X127941639Y-96331211D01*
X128102994Y-96248996D01*
X128249501Y-96142553D01*
X128377553Y-96014501D01*
X128483996Y-95867994D01*
X128566211Y-95706639D01*
X128622171Y-95534409D01*
X128650500Y-95355546D01*
X128650500Y-95174454D01*
X128622171Y-94995591D01*
X128580158Y-94866286D01*
X128576122Y-94789263D01*
X128611138Y-94720542D01*
X128616485Y-94714907D01*
X128887252Y-94444141D01*
X128954047Y-94405577D01*
X128992611Y-94400500D01*
X131098001Y-94400500D01*
X131172501Y-94420462D01*
X131227039Y-94475000D01*
X131247001Y-94549500D01*
X131247001Y-95044866D01*
X131249914Y-95069989D01*
X131249915Y-95069992D01*
X131295293Y-95172764D01*
X131295294Y-95172765D01*
X131374735Y-95252206D01*
X131477509Y-95297585D01*
X131502635Y-95300500D01*
X133497364Y-95300499D01*
X133497366Y-95300499D01*
X133509927Y-95299042D01*
X133522491Y-95297585D01*
X133625265Y-95252206D01*
X133704706Y-95172765D01*
X133750085Y-95069991D01*
X133753000Y-95044865D01*
X133752999Y-94866400D01*
X133772961Y-94791904D01*
X133827498Y-94737366D01*
X133901998Y-94717403D01*
X133976498Y-94737365D01*
X134022542Y-94778822D01*
X134084261Y-94863770D01*
X134084265Y-94863775D01*
X134223725Y-95003235D01*
X134383285Y-95119162D01*
X134559015Y-95208701D01*
X134701314Y-95254936D01*
X134760626Y-95291283D01*
X142755859Y-103286516D01*
X142794423Y-103353311D01*
X142799500Y-103391875D01*
X142799500Y-109013811D01*
X142779538Y-109088311D01*
X142755859Y-109119170D01*
X142747793Y-109127235D01*
X142702416Y-109230005D01*
X142702415Y-109230008D01*
X142702415Y-109230009D01*
X142699500Y-109255135D01*
X142699500Y-109255136D01*
X142699500Y-109255140D01*
X142699500Y-110744866D01*
X142702414Y-110769989D01*
X142702415Y-110769992D01*
X142747793Y-110872764D01*
X142747794Y-110872765D01*
X142827235Y-110952206D01*
X142930009Y-110997585D01*
X142955135Y-111000500D01*
X143664812Y-111000499D01*
X143739311Y-111020461D01*
X143793849Y-111074999D01*
X143813811Y-111149499D01*
X143793849Y-111223999D01*
X143770171Y-111254857D01*
X143697793Y-111327235D01*
X143652416Y-111430005D01*
X143652415Y-111430008D01*
X143652415Y-111430009D01*
X143649500Y-111455135D01*
X143649500Y-111455136D01*
X143649500Y-111455140D01*
X143649500Y-112944866D01*
X143652414Y-112969989D01*
X143652415Y-112969992D01*
X143697793Y-113072764D01*
X143697794Y-113072765D01*
X143777235Y-113152206D01*
X143880009Y-113197585D01*
X143905135Y-113200500D01*
X144994864Y-113200499D01*
X144994866Y-113200499D01*
X145007427Y-113199042D01*
X145019991Y-113197585D01*
X145122765Y-113152206D01*
X145202206Y-113072765D01*
X145239053Y-112989312D01*
X145287405Y-112929227D01*
X145359324Y-112901365D01*
X145375356Y-112900500D01*
X150750501Y-112900500D01*
X150825001Y-112920462D01*
X150879539Y-112975000D01*
X150899501Y-113049500D01*
X150899501Y-113544866D01*
X150902414Y-113569989D01*
X150902415Y-113569992D01*
X150947793Y-113672764D01*
X150947794Y-113672765D01*
X151027235Y-113752206D01*
X151130009Y-113797585D01*
X151155135Y-113800500D01*
X154844864Y-113800499D01*
X154844866Y-113800499D01*
X154857427Y-113799042D01*
X154869991Y-113797585D01*
X154972765Y-113752206D01*
X155052206Y-113672765D01*
X155097585Y-113569991D01*
X155100500Y-113544865D01*
X155100500Y-113174500D01*
X155120462Y-113100000D01*
X155175000Y-113045462D01*
X155249500Y-113025500D01*
X163306490Y-113025500D01*
X163306494Y-113025500D01*
X163441828Y-112998580D01*
X163541294Y-112957380D01*
X163569302Y-112945779D01*
X163569303Y-112945777D01*
X163569311Y-112945775D01*
X163607195Y-112920462D01*
X163625860Y-112907991D01*
X163698895Y-112883199D01*
X163708639Y-112882880D01*
X166316182Y-112882880D01*
X166390682Y-112902842D01*
X166445220Y-112957380D01*
X166454793Y-112977219D01*
X166465637Y-113004718D01*
X166465641Y-113004725D01*
X166537890Y-113100000D01*
X166557078Y-113125302D01*
X166677658Y-113216741D01*
X166818436Y-113272257D01*
X166906898Y-113282880D01*
X166906899Y-113282880D01*
X168093101Y-113282880D01*
X168093102Y-113282880D01*
X168181564Y-113272257D01*
X168322342Y-113216741D01*
X168378045Y-113174500D01*
X168386253Y-113168276D01*
X168457676Y-113139166D01*
X168476284Y-113138000D01*
X172803506Y-113138000D01*
X172878006Y-113157962D01*
X172922229Y-113196967D01*
X172957078Y-113242922D01*
X173077658Y-113334361D01*
X173218436Y-113389877D01*
X173306898Y-113400500D01*
X173306899Y-113400500D01*
X174693101Y-113400500D01*
X174693102Y-113400500D01*
X174781564Y-113389877D01*
X174922342Y-113334361D01*
X175042922Y-113242922D01*
X175042921Y-113242922D01*
X175051043Y-113236764D01*
X175052089Y-113238144D01*
X175108498Y-113205577D01*
X175147062Y-113200500D01*
X175803506Y-113200500D01*
X175878006Y-113220462D01*
X175922230Y-113259468D01*
X175957079Y-113305423D01*
X175958584Y-113306564D01*
X176077658Y-113396861D01*
X176218436Y-113452377D01*
X176306898Y-113463000D01*
X176306899Y-113463000D01*
X177693101Y-113463000D01*
X177693102Y-113463000D01*
X177781564Y-113452377D01*
X177922342Y-113396861D01*
X178035862Y-113310776D01*
X178107286Y-113281666D01*
X178125893Y-113280500D01*
X179450501Y-113280500D01*
X179525001Y-113300462D01*
X179579539Y-113355000D01*
X179599501Y-113429500D01*
X179599501Y-113473108D01*
X179610122Y-113561560D01*
X179610124Y-113561569D01*
X179665638Y-113702342D01*
X179737863Y-113797585D01*
X179757077Y-113822923D01*
X179877657Y-113914361D01*
X180018435Y-113969877D01*
X180106897Y-113980500D01*
X181893102Y-113980499D01*
X181981565Y-113969877D01*
X182122343Y-113914361D01*
X182242923Y-113822923D01*
X182334361Y-113702343D01*
X182389877Y-113561565D01*
X182400500Y-113473103D01*
X182400499Y-111686898D01*
X182389877Y-111598435D01*
X182334361Y-111457657D01*
X182242923Y-111337077D01*
X182122343Y-111245639D01*
X182122341Y-111245638D01*
X182122342Y-111245638D01*
X181981564Y-111190122D01*
X181893103Y-111179500D01*
X180106902Y-111179500D01*
X180106891Y-111179501D01*
X180018439Y-111190122D01*
X180018430Y-111190124D01*
X179877657Y-111245638D01*
X179757077Y-111337076D01*
X179757076Y-111337077D01*
X179665638Y-111457657D01*
X179610122Y-111598435D01*
X179599500Y-111686893D01*
X179599500Y-111730500D01*
X179579538Y-111805000D01*
X179525000Y-111859538D01*
X179450500Y-111879500D01*
X178257159Y-111879500D01*
X178182659Y-111859538D01*
X178138435Y-111820531D01*
X178117888Y-111793436D01*
X178042922Y-111694578D01*
X178042920Y-111694576D01*
X177968447Y-111638102D01*
X177922342Y-111603139D01*
X177922341Y-111603138D01*
X177781563Y-111547622D01*
X177693105Y-111537000D01*
X177693102Y-111537000D01*
X176306898Y-111537000D01*
X176306894Y-111537000D01*
X176218436Y-111547622D01*
X176077658Y-111603138D01*
X176077658Y-111603139D01*
X175957079Y-111694576D01*
X175922230Y-111740532D01*
X175861308Y-111787832D01*
X175803506Y-111799500D01*
X175243889Y-111799500D01*
X175169389Y-111779538D01*
X175125165Y-111740531D01*
X175042923Y-111632079D01*
X175042920Y-111632076D01*
X174986477Y-111589274D01*
X174922342Y-111540639D01*
X174922341Y-111540638D01*
X174781563Y-111485122D01*
X174693105Y-111474500D01*
X174693102Y-111474500D01*
X173306898Y-111474500D01*
X173306894Y-111474500D01*
X173218436Y-111485122D01*
X173077658Y-111540638D01*
X173077658Y-111540639D01*
X172957079Y-111632076D01*
X172922230Y-111678032D01*
X172861308Y-111725332D01*
X172803506Y-111737000D01*
X168749500Y-111737000D01*
X168675000Y-111717038D01*
X168620462Y-111662500D01*
X168602013Y-111593650D01*
X168600766Y-111593725D01*
X168600500Y-111589290D01*
X168600500Y-111589278D01*
X168589877Y-111500816D01*
X168534361Y-111360038D01*
X168482145Y-111291181D01*
X168442923Y-111239459D01*
X168442920Y-111239456D01*
X168390230Y-111199500D01*
X168322342Y-111148019D01*
X168322341Y-111148018D01*
X168181563Y-111092502D01*
X168093105Y-111081880D01*
X168093102Y-111081880D01*
X166906898Y-111081880D01*
X166906894Y-111081880D01*
X166818436Y-111092502D01*
X166677658Y-111148018D01*
X166677658Y-111148019D01*
X166557079Y-111239456D01*
X166557076Y-111239459D01*
X166465641Y-111360034D01*
X166465637Y-111360041D01*
X166454793Y-111387541D01*
X166408892Y-111449524D01*
X166338150Y-111480252D01*
X166316182Y-111481880D01*
X163311127Y-111481880D01*
X163215929Y-111500815D01*
X163215930Y-111500816D01*
X163175792Y-111508799D01*
X163175787Y-111508801D01*
X163048311Y-111561603D01*
X163048307Y-111561605D01*
X162991760Y-111599389D01*
X162918725Y-111624181D01*
X162908981Y-111624500D01*
X155249499Y-111624500D01*
X155174999Y-111604538D01*
X155120461Y-111550000D01*
X155100499Y-111475500D01*
X155100499Y-110755133D01*
X155097585Y-110730010D01*
X155097584Y-110730008D01*
X155052206Y-110627235D01*
X154972765Y-110547794D01*
X154972764Y-110547793D01*
X154869994Y-110502416D01*
X154869991Y-110502415D01*
X154869982Y-110502414D01*
X154844865Y-110499500D01*
X154844859Y-110499500D01*
X151155133Y-110499500D01*
X151130010Y-110502414D01*
X151130007Y-110502415D01*
X151027235Y-110547793D01*
X150947793Y-110627235D01*
X150902416Y-110730005D01*
X150902415Y-110730008D01*
X150902415Y-110730009D01*
X150899500Y-110755135D01*
X150899500Y-110755136D01*
X150899500Y-110755140D01*
X150899500Y-111350500D01*
X150879538Y-111425000D01*
X150825000Y-111479538D01*
X150750500Y-111499500D01*
X145375357Y-111499500D01*
X145300857Y-111479538D01*
X145253140Y-111435729D01*
X145244881Y-111423886D01*
X145202206Y-111327235D01*
X145122765Y-111247794D01*
X145121779Y-111247358D01*
X145112971Y-111234728D01*
X145104181Y-111210435D01*
X145091265Y-111188063D01*
X145091265Y-111174735D01*
X145086730Y-111162201D01*
X145091265Y-111136767D01*
X145091265Y-111110935D01*
X145097929Y-111099392D01*
X145100269Y-111086270D01*
X145116912Y-111066512D01*
X145129829Y-111044140D01*
X145141372Y-111037475D01*
X145149959Y-111027282D01*
X145174251Y-111018492D01*
X145196624Y-111005576D01*
X145217575Y-111002817D01*
X145222486Y-111001041D01*
X145226132Y-111001691D01*
X145235183Y-111000499D01*
X145944864Y-111000499D01*
X145944867Y-111000499D01*
X145959940Y-110998750D01*
X145969991Y-110997585D01*
X146072765Y-110952206D01*
X146152206Y-110872765D01*
X146197585Y-110769991D01*
X146200500Y-110744865D01*
X146200499Y-109595812D01*
X166400000Y-109595812D01*
X166400000Y-109768947D01*
X166427086Y-109939966D01*
X166480590Y-110104633D01*
X166559197Y-110258906D01*
X166593464Y-110306071D01*
X166593465Y-110306071D01*
X167113629Y-109785906D01*
X167127259Y-109836774D01*
X167179920Y-109927986D01*
X167254394Y-110002460D01*
X167345606Y-110055121D01*
X167396471Y-110068750D01*
X166876307Y-110588914D01*
X166923472Y-110623182D01*
X166923473Y-110623183D01*
X167077746Y-110701789D01*
X167242413Y-110755293D01*
X167413433Y-110782380D01*
X167586567Y-110782380D01*
X167757586Y-110755293D01*
X167922253Y-110701789D01*
X168076525Y-110623184D01*
X168123691Y-110588914D01*
X168123691Y-110588913D01*
X167603528Y-110068750D01*
X167654394Y-110055121D01*
X167745606Y-110002460D01*
X167820080Y-109927986D01*
X167872741Y-109836774D01*
X167886370Y-109785908D01*
X168406533Y-110306071D01*
X168406534Y-110306071D01*
X168440804Y-110258905D01*
X168519409Y-110104633D01*
X168572913Y-109939966D01*
X168600000Y-109768947D01*
X168600000Y-109768060D01*
X172800000Y-109768060D01*
X172810613Y-109856443D01*
X172866079Y-109997096D01*
X172957433Y-110117562D01*
X172957437Y-110117566D01*
X173077904Y-110208920D01*
X173077903Y-110208920D01*
X173218556Y-110264386D01*
X173306939Y-110274999D01*
X173306941Y-110275000D01*
X173800000Y-110275000D01*
X174200000Y-110275000D01*
X174693059Y-110275000D01*
X174693060Y-110274999D01*
X174781443Y-110264386D01*
X174922096Y-110208920D01*
X175042562Y-110117566D01*
X175042566Y-110117562D01*
X175133920Y-109997096D01*
X175189386Y-109856443D01*
X175192494Y-109830560D01*
X175800000Y-109830560D01*
X175810613Y-109918943D01*
X175866079Y-110059596D01*
X175957433Y-110180062D01*
X175957437Y-110180066D01*
X176077904Y-110271420D01*
X176077903Y-110271420D01*
X176218556Y-110326886D01*
X176306939Y-110337499D01*
X176306941Y-110337500D01*
X176800000Y-110337500D01*
X177200000Y-110337500D01*
X177693059Y-110337500D01*
X177693060Y-110337499D01*
X177781443Y-110326886D01*
X177922096Y-110271420D01*
X178042562Y-110180066D01*
X178042566Y-110180062D01*
X178133920Y-110059596D01*
X178189386Y-109918943D01*
X178199999Y-109830560D01*
X178200000Y-109830558D01*
X178200000Y-109575000D01*
X177200000Y-109575000D01*
X177200000Y-110337500D01*
X176800000Y-110337500D01*
X176800000Y-109575000D01*
X175800000Y-109575000D01*
X175800000Y-109830560D01*
X175192494Y-109830560D01*
X175199999Y-109768060D01*
X175200000Y-109768058D01*
X175200000Y-109512500D01*
X174200000Y-109512500D01*
X174200000Y-110275000D01*
X173800000Y-110275000D01*
X173800000Y-109512500D01*
X172800000Y-109512500D01*
X172800000Y-109768060D01*
X168600000Y-109768060D01*
X168600000Y-109595812D01*
X168580721Y-109474091D01*
X168580721Y-109474090D01*
X168572913Y-109424795D01*
X168572913Y-109424793D01*
X168519409Y-109260126D01*
X168440803Y-109105853D01*
X168440802Y-109105852D01*
X168406534Y-109058687D01*
X167886370Y-109578850D01*
X167872741Y-109527986D01*
X167820080Y-109436774D01*
X167745606Y-109362300D01*
X167654394Y-109309639D01*
X167603526Y-109296009D01*
X168042597Y-108856939D01*
X172800000Y-108856939D01*
X172800000Y-109112500D01*
X173800000Y-109112500D01*
X174200000Y-109112500D01*
X175200000Y-109112500D01*
X175200000Y-108919439D01*
X175800000Y-108919439D01*
X175800000Y-109175000D01*
X176800000Y-109175000D01*
X177200000Y-109175000D01*
X178200000Y-109175000D01*
X178200000Y-108919441D01*
X178199999Y-108919439D01*
X178189386Y-108831056D01*
X178133920Y-108690403D01*
X178042566Y-108569937D01*
X178042562Y-108569933D01*
X177922095Y-108478579D01*
X177922096Y-108478579D01*
X177781443Y-108423113D01*
X177693060Y-108412500D01*
X177200000Y-108412500D01*
X177200000Y-109175000D01*
X176800000Y-109175000D01*
X176800000Y-108412500D01*
X176306939Y-108412500D01*
X176218556Y-108423113D01*
X176077903Y-108478579D01*
X175957437Y-108569933D01*
X175957433Y-108569937D01*
X175866079Y-108690403D01*
X175810613Y-108831056D01*
X175800000Y-108919439D01*
X175200000Y-108919439D01*
X175200000Y-108856941D01*
X175199999Y-108856939D01*
X175189386Y-108768556D01*
X175133920Y-108627903D01*
X175042566Y-108507437D01*
X175042562Y-108507433D01*
X174922095Y-108416079D01*
X174922096Y-108416079D01*
X174781443Y-108360613D01*
X174693060Y-108350000D01*
X174200000Y-108350000D01*
X174200000Y-109112500D01*
X173800000Y-109112500D01*
X173800000Y-108350000D01*
X173306939Y-108350000D01*
X173218556Y-108360613D01*
X173077903Y-108416079D01*
X172957437Y-108507433D01*
X172957433Y-108507437D01*
X172866079Y-108627903D01*
X172810613Y-108768556D01*
X172800000Y-108856939D01*
X168042597Y-108856939D01*
X168123691Y-108775845D01*
X168123691Y-108775844D01*
X168076526Y-108741577D01*
X168076526Y-108741576D01*
X167922253Y-108662970D01*
X167757586Y-108609466D01*
X167586567Y-108582380D01*
X167413433Y-108582380D01*
X167242413Y-108609466D01*
X167077746Y-108662970D01*
X166923477Y-108741575D01*
X166876307Y-108775845D01*
X167396471Y-109296009D01*
X167345606Y-109309639D01*
X167254394Y-109362300D01*
X167179920Y-109436774D01*
X167127259Y-109527986D01*
X167113629Y-109578851D01*
X166593465Y-109058687D01*
X166559195Y-109105857D01*
X166480590Y-109260126D01*
X166427086Y-109424793D01*
X166400000Y-109595812D01*
X146200499Y-109595812D01*
X146200499Y-109255136D01*
X146197585Y-109230009D01*
X146152206Y-109127235D01*
X146072765Y-109047794D01*
X146072764Y-109047793D01*
X145969994Y-109002416D01*
X145969991Y-109002415D01*
X145944865Y-108999500D01*
X145944859Y-108999500D01*
X145849500Y-108999500D01*
X145775000Y-108979538D01*
X145720462Y-108925000D01*
X145700500Y-108850500D01*
X145700500Y-107613394D01*
X145720462Y-107538894D01*
X145775000Y-107484356D01*
X145794825Y-107474788D01*
X145897342Y-107434361D01*
X146017922Y-107342922D01*
X146043290Y-107309469D01*
X146104210Y-107262169D01*
X146162014Y-107250500D01*
X176938990Y-107250500D01*
X176938994Y-107250500D01*
X177074328Y-107223580D01*
X177161889Y-107187311D01*
X177201802Y-107170779D01*
X177201803Y-107170778D01*
X177201811Y-107170775D01*
X177316543Y-107094114D01*
X180577441Y-103833214D01*
X180644234Y-103794652D01*
X180706105Y-103791409D01*
X180889778Y-103820500D01*
X180889782Y-103820500D01*
X181110217Y-103820500D01*
X181110222Y-103820500D01*
X181293893Y-103791409D01*
X181370597Y-103799472D01*
X181422559Y-103833216D01*
X188028359Y-110439016D01*
X188066923Y-110505811D01*
X188072000Y-110544375D01*
X188072000Y-111638105D01*
X188082622Y-111726563D01*
X188138138Y-111867341D01*
X188147358Y-111879500D01*
X188229578Y-111987922D01*
X188350158Y-112079361D01*
X188490936Y-112134877D01*
X188579398Y-112145500D01*
X188579399Y-112145500D01*
X190765601Y-112145500D01*
X190765602Y-112145500D01*
X190854064Y-112134877D01*
X190994842Y-112079361D01*
X191115422Y-111987922D01*
X191206861Y-111867342D01*
X191262377Y-111726564D01*
X191273000Y-111638102D01*
X191273000Y-109996874D01*
X191292962Y-109922374D01*
X191316641Y-109891515D01*
X193898686Y-107309470D01*
X196549113Y-104659043D01*
X196554822Y-104650500D01*
X196625775Y-104544311D01*
X196671318Y-104434361D01*
X196678580Y-104416829D01*
X196694832Y-104335122D01*
X196696945Y-104324502D01*
X196696945Y-104324501D01*
X196705499Y-104281496D01*
X196705500Y-104281493D01*
X196705500Y-98269481D01*
X196725462Y-98194981D01*
X196766919Y-98148938D01*
X196852219Y-98086966D01*
X196996966Y-97942219D01*
X197117287Y-97776610D01*
X197210220Y-97594219D01*
X197273477Y-97399534D01*
X197305500Y-97197352D01*
X197305500Y-96992648D01*
X197273477Y-96790466D01*
X197210220Y-96595781D01*
X197117287Y-96413390D01*
X197112571Y-96406899D01*
X196996971Y-96247787D01*
X196996964Y-96247779D01*
X196852220Y-96103035D01*
X196852212Y-96103028D01*
X196686612Y-95982714D01*
X196504224Y-95889782D01*
X196504220Y-95889780D01*
X196504219Y-95889780D01*
X196309534Y-95826523D01*
X196107352Y-95794500D01*
X195902648Y-95794500D01*
X195734163Y-95821185D01*
X195700465Y-95826523D01*
X195505787Y-95889778D01*
X195505775Y-95889782D01*
X195323387Y-95982714D01*
X195157787Y-96103028D01*
X195157779Y-96103035D01*
X195013035Y-96247779D01*
X195013028Y-96247787D01*
X194892714Y-96413387D01*
X194799782Y-96595775D01*
X194799778Y-96595787D01*
X194748244Y-96754394D01*
X194736523Y-96790466D01*
X194704500Y-96992648D01*
X194704500Y-97197352D01*
X194736523Y-97399534D01*
X194786880Y-97554518D01*
X194799778Y-97594212D01*
X194799782Y-97594224D01*
X194892714Y-97776612D01*
X195013028Y-97942212D01*
X195013033Y-97942218D01*
X195013034Y-97942219D01*
X195157781Y-98086966D01*
X195243079Y-98148938D01*
X195291617Y-98208875D01*
X195304500Y-98269481D01*
X195304500Y-103860625D01*
X195284538Y-103935125D01*
X195260859Y-103965984D01*
X190325984Y-108900859D01*
X190259189Y-108939423D01*
X190220625Y-108944500D01*
X188576875Y-108944500D01*
X188502375Y-108924538D01*
X188471516Y-108900859D01*
X184909695Y-105339038D01*
X188072000Y-105339038D01*
X188072000Y-105590962D01*
X188111410Y-105839785D01*
X188189259Y-106079379D01*
X188299895Y-106296515D01*
X188303631Y-106303846D01*
X188303631Y-106303847D01*
X188330011Y-106340156D01*
X188451707Y-106507656D01*
X188629844Y-106685793D01*
X188833655Y-106833870D01*
X189058121Y-106948241D01*
X189297715Y-107026090D01*
X189546538Y-107065500D01*
X189546543Y-107065500D01*
X189798457Y-107065500D01*
X189798462Y-107065500D01*
X190047285Y-107026090D01*
X190286879Y-106948241D01*
X190511345Y-106833870D01*
X190715156Y-106685793D01*
X190893293Y-106507656D01*
X191041370Y-106303845D01*
X191155741Y-106079379D01*
X191233590Y-105839785D01*
X191273000Y-105590962D01*
X191273000Y-105339038D01*
X191233590Y-105090215D01*
X191155741Y-104850621D01*
X191041370Y-104626155D01*
X191024298Y-104602658D01*
X190985314Y-104549000D01*
X190893293Y-104422344D01*
X190715156Y-104244207D01*
X190511345Y-104096130D01*
X190454354Y-104067091D01*
X190397038Y-104015482D01*
X190373204Y-103942129D01*
X190373000Y-103934332D01*
X190373000Y-89779373D01*
X190392962Y-89704873D01*
X190416637Y-89674018D01*
X195669845Y-84420809D01*
X195736638Y-84382247D01*
X195798507Y-84379005D01*
X195902648Y-84395500D01*
X195902649Y-84395500D01*
X196107347Y-84395500D01*
X196107352Y-84395500D01*
X196309534Y-84363477D01*
X196504219Y-84300220D01*
X196686610Y-84207287D01*
X196852219Y-84086966D01*
X196996966Y-83942219D01*
X197117287Y-83776610D01*
X197210220Y-83594219D01*
X197273477Y-83399534D01*
X197305500Y-83197352D01*
X197305500Y-82992648D01*
X197273477Y-82790466D01*
X197210220Y-82595781D01*
X197117287Y-82413390D01*
X197058126Y-82331961D01*
X196996971Y-82247787D01*
X196996964Y-82247779D01*
X196852220Y-82103035D01*
X196852212Y-82103028D01*
X196686612Y-81982714D01*
X196504224Y-81889782D01*
X196504220Y-81889780D01*
X196504219Y-81889780D01*
X196309534Y-81826523D01*
X196107352Y-81794500D01*
X195902648Y-81794500D01*
X195734163Y-81821185D01*
X195700465Y-81826523D01*
X195505787Y-81889778D01*
X195505775Y-81889782D01*
X195323387Y-81982714D01*
X195157787Y-82103028D01*
X195157779Y-82103035D01*
X195013035Y-82247779D01*
X195013028Y-82247787D01*
X194892714Y-82413387D01*
X194799782Y-82595775D01*
X194799778Y-82595787D01*
X194740298Y-82778849D01*
X194736523Y-82790466D01*
X194704500Y-82992648D01*
X194704500Y-83197352D01*
X194709300Y-83227658D01*
X194720993Y-83301490D01*
X194712930Y-83378195D01*
X194679186Y-83430156D01*
X189128386Y-88980956D01*
X189128381Y-88980962D01*
X189111054Y-89006896D01*
X189111053Y-89006898D01*
X189051728Y-89095684D01*
X189051720Y-89095697D01*
X188998920Y-89223170D01*
X188998919Y-89223174D01*
X188972000Y-89358506D01*
X188972000Y-103934332D01*
X188952038Y-104008832D01*
X188897500Y-104063370D01*
X188890649Y-104067089D01*
X188862244Y-104081563D01*
X188833653Y-104096131D01*
X188833652Y-104096131D01*
X188629845Y-104244206D01*
X188629842Y-104244208D01*
X188451708Y-104422342D01*
X188451706Y-104422345D01*
X188303631Y-104626152D01*
X188303631Y-104626153D01*
X188189262Y-104850615D01*
X188189257Y-104850627D01*
X188155057Y-104955885D01*
X188111410Y-105090215D01*
X188072000Y-105339038D01*
X184909695Y-105339038D01*
X182413216Y-102842559D01*
X182374652Y-102775764D01*
X182371409Y-102713893D01*
X182400500Y-102530222D01*
X182400500Y-102309778D01*
X182366015Y-102092049D01*
X182366014Y-102092048D01*
X182366014Y-102092043D01*
X182323922Y-101962499D01*
X182297895Y-101882394D01*
X182197815Y-101685978D01*
X182068242Y-101507635D01*
X181912365Y-101351758D01*
X181812578Y-101279259D01*
X181734024Y-101222186D01*
X181734023Y-101222185D01*
X181537606Y-101122105D01*
X181327956Y-101053985D01*
X181206990Y-101034826D01*
X181110222Y-101019500D01*
X180889778Y-101019500D01*
X180802686Y-101033294D01*
X180672043Y-101053985D01*
X180462393Y-101122105D01*
X180265976Y-101222185D01*
X180265975Y-101222186D01*
X180087636Y-101351757D01*
X180087633Y-101351759D01*
X179931759Y-101507633D01*
X179931757Y-101507636D01*
X179802186Y-101685975D01*
X179802185Y-101685976D01*
X179702105Y-101882393D01*
X179633985Y-102092043D01*
X179612848Y-102225500D01*
X179599500Y-102309778D01*
X179599500Y-102530222D01*
X179614060Y-102622149D01*
X179628590Y-102713891D01*
X179620527Y-102790596D01*
X179586783Y-102842558D01*
X176623484Y-105805859D01*
X176556689Y-105844423D01*
X176518125Y-105849500D01*
X146162014Y-105849500D01*
X146087514Y-105829538D01*
X146043290Y-105790531D01*
X146017922Y-105757078D01*
X146017921Y-105757077D01*
X146017920Y-105757076D01*
X145966635Y-105718186D01*
X145897342Y-105665639D01*
X145897341Y-105665638D01*
X145756563Y-105610122D01*
X145668105Y-105599500D01*
X145668102Y-105599500D01*
X144349500Y-105599500D01*
X144275000Y-105579538D01*
X144220462Y-105525000D01*
X144200500Y-105450500D01*
X144200500Y-104549000D01*
X144220462Y-104474500D01*
X144275000Y-104419962D01*
X144349500Y-104400000D01*
X144800000Y-104400000D01*
X145200000Y-104400000D01*
X145668059Y-104400000D01*
X145668060Y-104399999D01*
X145756443Y-104389386D01*
X145897096Y-104333920D01*
X146017562Y-104242566D01*
X146017566Y-104242562D01*
X146108920Y-104122096D01*
X146164386Y-103981443D01*
X146174999Y-103893060D01*
X146175000Y-103893058D01*
X146175000Y-103650000D01*
X145200000Y-103650000D01*
X145200000Y-104400000D01*
X144800000Y-104400000D01*
X144800000Y-103250000D01*
X145200000Y-103250000D01*
X146175000Y-103250000D01*
X146175000Y-103006941D01*
X146174999Y-103006939D01*
X146164386Y-102918556D01*
X146108920Y-102777903D01*
X146017566Y-102657437D01*
X146017562Y-102657433D01*
X145897095Y-102566079D01*
X145897096Y-102566079D01*
X145756443Y-102510613D01*
X145668060Y-102500000D01*
X145200000Y-102500000D01*
X145200000Y-103250000D01*
X144800000Y-103250000D01*
X144800000Y-102500000D01*
X144331939Y-102500000D01*
X144243555Y-102510614D01*
X144132019Y-102554597D01*
X144055390Y-102563357D01*
X143984648Y-102532628D01*
X143972009Y-102521352D01*
X138364089Y-96913432D01*
X144582380Y-96913432D01*
X144582380Y-97086567D01*
X144609466Y-97257586D01*
X144662970Y-97422253D01*
X144741577Y-97576526D01*
X144775844Y-97623691D01*
X144775845Y-97623691D01*
X145296009Y-97103526D01*
X145309639Y-97154394D01*
X145362300Y-97245606D01*
X145436774Y-97320080D01*
X145527986Y-97372741D01*
X145578851Y-97386370D01*
X145058687Y-97906534D01*
X145105852Y-97940802D01*
X145105853Y-97940803D01*
X145260126Y-98019409D01*
X145424793Y-98072913D01*
X145595813Y-98100000D01*
X145768947Y-98100000D01*
X145939966Y-98072913D01*
X146104633Y-98019409D01*
X146258905Y-97940804D01*
X146306071Y-97906534D01*
X146306071Y-97906533D01*
X145785908Y-97386370D01*
X145836774Y-97372741D01*
X145927986Y-97320080D01*
X146002460Y-97245606D01*
X146055121Y-97154394D01*
X146068750Y-97103528D01*
X146588913Y-97623691D01*
X146588914Y-97623691D01*
X146623184Y-97576525D01*
X146701789Y-97422253D01*
X146755293Y-97257586D01*
X146782380Y-97086567D01*
X146782380Y-96913432D01*
X146755293Y-96742413D01*
X146701789Y-96577746D01*
X146646936Y-96470090D01*
X146646935Y-96470088D01*
X146623186Y-96423478D01*
X146623182Y-96423472D01*
X146588914Y-96376307D01*
X146068750Y-96896470D01*
X146055121Y-96845606D01*
X146002460Y-96754394D01*
X145927986Y-96679920D01*
X145836774Y-96627259D01*
X145785906Y-96613629D01*
X146306071Y-96093465D01*
X146306071Y-96093464D01*
X146258906Y-96059197D01*
X146258906Y-96059196D01*
X146104633Y-95980590D01*
X145939966Y-95927086D01*
X145768947Y-95900000D01*
X145595813Y-95900000D01*
X145424793Y-95927086D01*
X145260126Y-95980590D01*
X145105857Y-96059195D01*
X145058687Y-96093465D01*
X145578851Y-96613629D01*
X145527986Y-96627259D01*
X145436774Y-96679920D01*
X145362300Y-96754394D01*
X145309639Y-96845606D01*
X145296009Y-96896471D01*
X144775845Y-96376307D01*
X144741575Y-96423477D01*
X144662970Y-96577746D01*
X144609466Y-96742413D01*
X144582380Y-96913432D01*
X138364089Y-96913432D01*
X136867831Y-95417174D01*
X136829269Y-95350382D01*
X136829269Y-95273254D01*
X136867833Y-95206459D01*
X136934628Y-95167895D01*
X137011756Y-95167895D01*
X137040836Y-95179058D01*
X137094615Y-95206459D01*
X137099015Y-95208701D01*
X137275333Y-95265990D01*
X137286582Y-95269645D01*
X137286582Y-95269646D01*
X137286587Y-95269646D01*
X137286588Y-95269647D01*
X137481387Y-95300500D01*
X137481391Y-95300500D01*
X137678609Y-95300500D01*
X137678613Y-95300500D01*
X137873412Y-95269647D01*
X137873413Y-95269646D01*
X137873417Y-95269646D01*
X137873417Y-95269645D01*
X138060985Y-95208701D01*
X138236715Y-95119162D01*
X138396275Y-95003235D01*
X138535735Y-94863775D01*
X138651662Y-94704215D01*
X138741201Y-94528485D01*
X138802145Y-94340917D01*
X138802146Y-94340917D01*
X138805922Y-94317077D01*
X138833000Y-94146113D01*
X138833000Y-93853887D01*
X138802147Y-93659088D01*
X138802146Y-93659087D01*
X138802146Y-93659082D01*
X138758579Y-93524999D01*
X138741201Y-93471515D01*
X138651662Y-93295785D01*
X138535735Y-93136225D01*
X138396275Y-92996765D01*
X138391237Y-92993105D01*
X138338983Y-92955140D01*
X138236715Y-92880838D01*
X138153690Y-92838534D01*
X138060990Y-92791301D01*
X138060986Y-92791299D01*
X138060985Y-92791299D01*
X137972351Y-92762500D01*
X137873417Y-92730354D01*
X137873417Y-92730353D01*
X137746732Y-92710289D01*
X137678613Y-92699500D01*
X137481387Y-92699500D01*
X137374021Y-92716504D01*
X137297316Y-92708442D01*
X137245355Y-92674698D01*
X133476546Y-88905889D01*
X133476543Y-88905886D01*
X133361811Y-88829225D01*
X133361808Y-88829223D01*
X133361802Y-88829220D01*
X133234329Y-88776420D01*
X133234327Y-88776419D01*
X133098997Y-88749500D01*
X133098994Y-88749500D01*
X133098993Y-88749500D01*
X124162014Y-88749500D01*
X124087514Y-88729538D01*
X124043290Y-88690531D01*
X124017922Y-88657078D01*
X124017921Y-88657077D01*
X124017920Y-88657076D01*
X123970982Y-88621482D01*
X123897342Y-88565639D01*
X123897340Y-88565638D01*
X123794838Y-88525216D01*
X123785829Y-88518544D01*
X123775000Y-88515643D01*
X123755272Y-88495915D01*
X123732856Y-88479315D01*
X123728389Y-88469032D01*
X123720462Y-88461105D01*
X123713241Y-88434158D01*
X123702128Y-88408572D01*
X123700500Y-88386605D01*
X123700500Y-88113394D01*
X123720462Y-88038894D01*
X123775000Y-87984356D01*
X123794825Y-87974788D01*
X123897342Y-87934361D01*
X124017922Y-87842922D01*
X124109361Y-87722342D01*
X124164877Y-87581564D01*
X124175500Y-87493102D01*
X124175500Y-87468060D01*
X124800000Y-87468060D01*
X124810613Y-87556443D01*
X124866079Y-87697096D01*
X124957433Y-87817562D01*
X124957437Y-87817566D01*
X125077904Y-87908920D01*
X125077903Y-87908920D01*
X125218556Y-87964386D01*
X125306939Y-87974999D01*
X125306941Y-87975000D01*
X125800000Y-87975000D01*
X126200000Y-87975000D01*
X126693059Y-87975000D01*
X126693060Y-87974999D01*
X126781443Y-87964386D01*
X126922096Y-87908920D01*
X127042562Y-87817566D01*
X127042566Y-87817562D01*
X127133920Y-87697096D01*
X127189386Y-87556443D01*
X127199999Y-87468060D01*
X127200000Y-87468058D01*
X127200000Y-87443060D01*
X127825000Y-87443060D01*
X127835613Y-87531443D01*
X127891079Y-87672096D01*
X127982433Y-87792562D01*
X127982437Y-87792566D01*
X128102904Y-87883920D01*
X128102903Y-87883920D01*
X128243556Y-87939386D01*
X128331939Y-87949999D01*
X128331941Y-87950000D01*
X128800000Y-87950000D01*
X129200000Y-87950000D01*
X129668059Y-87950000D01*
X129668060Y-87949999D01*
X129756443Y-87939386D01*
X129897096Y-87883920D01*
X130017562Y-87792566D01*
X130017566Y-87792562D01*
X130108920Y-87672096D01*
X130164386Y-87531443D01*
X130174999Y-87443060D01*
X130175000Y-87443058D01*
X130175000Y-87200000D01*
X129200000Y-87200000D01*
X129200000Y-87950000D01*
X128800000Y-87950000D01*
X128800000Y-87200000D01*
X127825000Y-87200000D01*
X127825000Y-87443060D01*
X127200000Y-87443060D01*
X127200000Y-87212500D01*
X126200000Y-87212500D01*
X126200000Y-87975000D01*
X125800000Y-87975000D01*
X125800000Y-87212500D01*
X124800000Y-87212500D01*
X124800000Y-87468060D01*
X124175500Y-87468060D01*
X124175500Y-86606898D01*
X124169501Y-86556939D01*
X124800000Y-86556939D01*
X124800000Y-86812500D01*
X125800000Y-86812500D01*
X126200000Y-86812500D01*
X127200000Y-86812500D01*
X127200000Y-86556941D01*
X127199999Y-86556939D01*
X127825000Y-86556939D01*
X127825000Y-86800000D01*
X128800000Y-86800000D01*
X129200000Y-86800000D01*
X130175000Y-86800000D01*
X130175000Y-86556941D01*
X130174999Y-86556939D01*
X130164386Y-86468556D01*
X130108920Y-86327903D01*
X130017566Y-86207437D01*
X130017562Y-86207433D01*
X129897095Y-86116079D01*
X129897096Y-86116079D01*
X129756443Y-86060613D01*
X129668060Y-86050000D01*
X129200000Y-86050000D01*
X129200000Y-86800000D01*
X128800000Y-86800000D01*
X128800000Y-86050000D01*
X128331939Y-86050000D01*
X128243556Y-86060613D01*
X128102903Y-86116079D01*
X127982437Y-86207433D01*
X127982433Y-86207437D01*
X127891079Y-86327903D01*
X127835613Y-86468556D01*
X127825000Y-86556939D01*
X127199999Y-86556939D01*
X127189386Y-86468556D01*
X127133920Y-86327903D01*
X127042566Y-86207437D01*
X127042562Y-86207433D01*
X126922095Y-86116079D01*
X126922096Y-86116079D01*
X126781443Y-86060613D01*
X126693060Y-86050000D01*
X126200000Y-86050000D01*
X126200000Y-86812500D01*
X125800000Y-86812500D01*
X125800000Y-86050000D01*
X125306939Y-86050000D01*
X125218556Y-86060613D01*
X125077903Y-86116079D01*
X124957437Y-86207433D01*
X124957433Y-86207437D01*
X124866079Y-86327903D01*
X124810613Y-86468556D01*
X124800000Y-86556939D01*
X124169501Y-86556939D01*
X124164877Y-86518436D01*
X124109361Y-86377658D01*
X124086715Y-86347795D01*
X124017923Y-86257079D01*
X124017920Y-86257076D01*
X123970982Y-86221482D01*
X123897342Y-86165639D01*
X123897341Y-86165638D01*
X123756563Y-86110122D01*
X123668105Y-86099500D01*
X123668102Y-86099500D01*
X122331898Y-86099500D01*
X122331894Y-86099500D01*
X122243436Y-86110122D01*
X122102658Y-86165638D01*
X122102658Y-86165639D01*
X121982079Y-86257076D01*
X121982076Y-86257079D01*
X121890639Y-86377658D01*
X121890638Y-86377658D01*
X121835122Y-86518436D01*
X121824500Y-86606894D01*
X121824500Y-87493105D01*
X121835122Y-87581563D01*
X121890638Y-87722341D01*
X121973974Y-87832236D01*
X121982078Y-87842922D01*
X122102658Y-87934361D01*
X122205164Y-87974784D01*
X122214171Y-87981454D01*
X122225000Y-87984356D01*
X122244724Y-88004080D01*
X122267144Y-88020683D01*
X122271610Y-88030966D01*
X122279538Y-88038894D01*
X122286757Y-88065837D01*
X122297872Y-88091426D01*
X122299500Y-88113394D01*
X122299500Y-88386605D01*
X122279538Y-88461105D01*
X122225000Y-88515643D01*
X122205162Y-88525216D01*
X122102659Y-88565638D01*
X122102658Y-88565639D01*
X121982079Y-88657076D01*
X121982078Y-88657077D01*
X121967022Y-88676932D01*
X121956709Y-88690530D01*
X121895790Y-88737831D01*
X121837986Y-88749500D01*
X121162014Y-88749500D01*
X121087514Y-88729538D01*
X121043290Y-88690531D01*
X121017922Y-88657078D01*
X121017921Y-88657077D01*
X121017920Y-88657076D01*
X120970982Y-88621482D01*
X120897342Y-88565639D01*
X120897341Y-88565638D01*
X120756563Y-88510122D01*
X120668105Y-88499500D01*
X120668102Y-88499500D01*
X119331898Y-88499500D01*
X119331894Y-88499500D01*
X119243436Y-88510122D01*
X119102658Y-88565638D01*
X119102658Y-88565639D01*
X118982079Y-88657076D01*
X118982078Y-88657077D01*
X118966190Y-88678030D01*
X118905269Y-88725331D01*
X118847465Y-88737000D01*
X118196494Y-88737000D01*
X118121994Y-88717038D01*
X118077770Y-88678032D01*
X118042922Y-88632078D01*
X118042920Y-88632077D01*
X118042920Y-88632076D01*
X117955309Y-88565639D01*
X117922342Y-88540639D01*
X117922341Y-88540638D01*
X117781563Y-88485122D01*
X117693105Y-88474500D01*
X117693102Y-88474500D01*
X116306898Y-88474500D01*
X116306894Y-88474500D01*
X116218436Y-88485122D01*
X116077658Y-88540638D01*
X116077658Y-88540639D01*
X115957079Y-88632076D01*
X115938120Y-88657078D01*
X115912753Y-88690530D01*
X115912751Y-88690532D01*
X115851829Y-88737831D01*
X115794027Y-88749500D01*
X115162014Y-88749500D01*
X115087514Y-88729538D01*
X115043290Y-88690531D01*
X115017922Y-88657078D01*
X115017921Y-88657077D01*
X115017920Y-88657076D01*
X114970982Y-88621482D01*
X114897342Y-88565639D01*
X114897341Y-88565638D01*
X114756563Y-88510122D01*
X114668105Y-88499500D01*
X114668102Y-88499500D01*
X113331898Y-88499500D01*
X113331894Y-88499500D01*
X113243436Y-88510122D01*
X113102658Y-88565638D01*
X113102658Y-88565639D01*
X112982079Y-88657076D01*
X112982076Y-88657079D01*
X112890639Y-88777658D01*
X112890638Y-88777658D01*
X112835122Y-88918436D01*
X112824500Y-89006894D01*
X112824500Y-89573125D01*
X112804538Y-89647625D01*
X112780859Y-89678484D01*
X107955889Y-94503453D01*
X107955885Y-94503458D01*
X107879228Y-94618184D01*
X107879220Y-94618197D01*
X107826420Y-94745670D01*
X107826419Y-94745674D01*
X107818633Y-94784819D01*
X107799865Y-94879178D01*
X107799864Y-94879181D01*
X107799500Y-94881008D01*
X107799500Y-102068997D01*
X107826419Y-102204327D01*
X107826420Y-102204329D01*
X107879220Y-102331802D01*
X107879223Y-102331808D01*
X107879225Y-102331811D01*
X107955886Y-102446543D01*
X107955888Y-102446545D01*
X107955889Y-102446546D01*
X110903984Y-105394641D01*
X110942548Y-105461436D01*
X110942548Y-105538564D01*
X110909048Y-105596596D01*
X110910524Y-105597807D01*
X110905882Y-105603461D01*
X110829226Y-105718186D01*
X110829220Y-105718197D01*
X110776421Y-105845668D01*
X110776420Y-105845672D01*
X110756356Y-105946541D01*
X110756356Y-105946542D01*
X110749500Y-105981005D01*
X110749500Y-106563811D01*
X110729538Y-106638311D01*
X110705859Y-106669170D01*
X110697793Y-106677235D01*
X110652416Y-106780005D01*
X110652415Y-106780008D01*
X110652415Y-106780009D01*
X110649500Y-106805135D01*
X110649500Y-106805136D01*
X110649500Y-106805140D01*
X110649500Y-108294866D01*
X110652414Y-108319989D01*
X110652415Y-108319992D01*
X110697793Y-108422764D01*
X110770170Y-108495141D01*
X110808734Y-108561936D01*
X110808734Y-108639064D01*
X110770170Y-108705859D01*
X110703375Y-108744423D01*
X110664811Y-108749500D01*
X109955133Y-108749500D01*
X109930010Y-108752414D01*
X109930007Y-108752415D01*
X109827235Y-108797793D01*
X109747793Y-108877235D01*
X109702416Y-108980005D01*
X109702415Y-108980008D01*
X109702415Y-108980009D01*
X109699500Y-109005135D01*
X109699500Y-109005136D01*
X109699500Y-109005140D01*
X109699500Y-109050500D01*
X109679538Y-109125000D01*
X109625000Y-109179538D01*
X109550500Y-109199500D01*
X107774500Y-109199500D01*
X107700000Y-109179538D01*
X107645462Y-109125000D01*
X107625500Y-109050500D01*
X107625500Y-108306899D01*
X107625500Y-108306898D01*
X107614877Y-108218436D01*
X107559361Y-108077658D01*
X107467922Y-107957078D01*
X107467920Y-107957076D01*
X107381831Y-107891793D01*
X107347342Y-107865639D01*
X107347341Y-107865638D01*
X107206563Y-107810122D01*
X107118105Y-107799500D01*
X107118102Y-107799500D01*
X105781898Y-107799500D01*
X105781894Y-107799500D01*
X105693436Y-107810122D01*
X105552658Y-107865638D01*
X105552658Y-107865639D01*
X105432079Y-107957076D01*
X105432076Y-107957079D01*
X105340639Y-108077658D01*
X105340638Y-108077658D01*
X105285122Y-108218436D01*
X105274500Y-108306894D01*
X100500500Y-108306894D01*
X100500500Y-83506894D01*
X121824500Y-83506894D01*
X121824500Y-84393105D01*
X121835122Y-84481563D01*
X121890638Y-84622341D01*
X121944161Y-84692922D01*
X121982078Y-84742922D01*
X122102658Y-84834361D01*
X122243436Y-84889877D01*
X122331898Y-84900500D01*
X122331899Y-84900500D01*
X123668101Y-84900500D01*
X123668102Y-84900500D01*
X123756564Y-84889877D01*
X123897342Y-84834361D01*
X124017922Y-84742922D01*
X124109361Y-84622342D01*
X124164877Y-84481564D01*
X124164877Y-84481562D01*
X124167218Y-84472302D01*
X124168508Y-84472628D01*
X124193554Y-84410152D01*
X124254203Y-84362503D01*
X124312793Y-84350500D01*
X124676746Y-84350500D01*
X124751246Y-84370462D01*
X124805784Y-84425000D01*
X124815357Y-84444838D01*
X124846238Y-84523145D01*
X124865639Y-84572342D01*
X124957078Y-84692922D01*
X125077658Y-84784361D01*
X125218436Y-84839877D01*
X125306898Y-84850500D01*
X125306899Y-84850500D01*
X126693101Y-84850500D01*
X126693102Y-84850500D01*
X126781564Y-84839877D01*
X126922342Y-84784361D01*
X127042922Y-84692922D01*
X127134361Y-84572342D01*
X127189877Y-84431564D01*
X127189877Y-84431562D01*
X127192218Y-84422302D01*
X127193508Y-84422628D01*
X127218554Y-84360152D01*
X127279203Y-84312503D01*
X127337793Y-84300500D01*
X127687207Y-84300500D01*
X127761707Y-84320462D01*
X127816245Y-84375000D01*
X127832061Y-84422484D01*
X127832782Y-84422302D01*
X127835122Y-84431563D01*
X127890638Y-84572341D01*
X127928554Y-84622341D01*
X127982078Y-84692922D01*
X128102658Y-84784361D01*
X128243436Y-84839877D01*
X128331898Y-84850500D01*
X129322389Y-84850500D01*
X129396889Y-84870462D01*
X129427748Y-84894141D01*
X130279518Y-85745910D01*
X130279520Y-85745913D01*
X130354087Y-85820480D01*
X130445413Y-85873207D01*
X130547273Y-85900501D01*
X130547276Y-85900501D01*
X130661856Y-85900501D01*
X130661872Y-85900500D01*
X142552725Y-85900500D01*
X142552727Y-85900500D01*
X142654588Y-85873207D01*
X142745913Y-85820480D01*
X149072252Y-79494141D01*
X149139047Y-79455577D01*
X149177611Y-79450500D01*
X160122230Y-79450500D01*
X160196730Y-79470462D01*
X160251268Y-79525000D01*
X160254990Y-79531856D01*
X160347474Y-79713368D01*
X160347478Y-79713375D01*
X160464575Y-79874544D01*
X160464578Y-79874548D01*
X160605452Y-80015422D01*
X160605455Y-80015424D01*
X160766624Y-80132521D01*
X160766629Y-80132524D01*
X160874565Y-80187520D01*
X160931883Y-80239128D01*
X160955717Y-80312482D01*
X160939681Y-80387924D01*
X160888073Y-80445242D01*
X160874567Y-80453039D01*
X160766894Y-80507901D01*
X160766889Y-80507905D01*
X160688037Y-80565194D01*
X160688037Y-80565195D01*
X161326471Y-81203629D01*
X161275606Y-81217259D01*
X161184394Y-81269920D01*
X161109920Y-81344394D01*
X161057259Y-81435606D01*
X161043629Y-81486471D01*
X160405195Y-80848037D01*
X160405194Y-80848037D01*
X160347905Y-80926889D01*
X160257492Y-81104333D01*
X160195954Y-81293729D01*
X160164800Y-81490431D01*
X160164800Y-81689568D01*
X160195954Y-81886270D01*
X160257492Y-82075666D01*
X160347905Y-82253110D01*
X160405194Y-82331961D01*
X160405195Y-82331962D01*
X161043629Y-81693526D01*
X161057259Y-81744394D01*
X161109920Y-81835606D01*
X161184394Y-81910080D01*
X161275606Y-81962741D01*
X161326471Y-81976370D01*
X160688037Y-82614804D01*
X160766880Y-82672089D01*
X160766889Y-82672094D01*
X160874566Y-82726959D01*
X160931883Y-82778568D01*
X160955717Y-82851921D01*
X160939681Y-82927364D01*
X160888072Y-82984681D01*
X160874566Y-82992479D01*
X160766626Y-83047477D01*
X160605455Y-83164575D01*
X160464575Y-83305455D01*
X160347478Y-83466624D01*
X160347474Y-83466632D01*
X160257035Y-83644129D01*
X160257028Y-83644146D01*
X160223737Y-83746606D01*
X160195466Y-83833614D01*
X160164300Y-84030387D01*
X160164300Y-84229613D01*
X160195466Y-84426386D01*
X160257030Y-84615860D01*
X160257034Y-84615869D01*
X160257035Y-84615870D01*
X160347474Y-84793367D01*
X160347478Y-84793375D01*
X160463928Y-84953653D01*
X160464578Y-84954548D01*
X160585860Y-85075830D01*
X160624423Y-85142623D01*
X160629500Y-85181187D01*
X160629500Y-91250500D01*
X160609538Y-91325000D01*
X160555000Y-91379538D01*
X160480500Y-91399500D01*
X157721158Y-91399500D01*
X157566505Y-91430261D01*
X157566503Y-91430262D01*
X157420825Y-91490603D01*
X157420821Y-91490606D01*
X157290165Y-91577908D01*
X157289707Y-91578214D01*
X155878214Y-92989707D01*
X155878211Y-92989710D01*
X155878211Y-92989711D01*
X155875251Y-92994141D01*
X155790604Y-93120823D01*
X155730263Y-93266501D01*
X155730262Y-93266505D01*
X155699500Y-93421157D01*
X155699500Y-94106704D01*
X155679538Y-94181204D01*
X155655859Y-94212063D01*
X153679272Y-96188649D01*
X153612477Y-96227213D01*
X153535349Y-96227213D01*
X153468554Y-96188649D01*
X153435301Y-96137950D01*
X153386926Y-96015277D01*
X153386924Y-96015273D01*
X153299722Y-95900280D01*
X153299719Y-95900277D01*
X153184725Y-95813075D01*
X153050468Y-95760132D01*
X153050466Y-95760131D01*
X152966102Y-95750000D01*
X152700000Y-95750000D01*
X152700000Y-96351000D01*
X152680038Y-96425500D01*
X152625500Y-96480038D01*
X152551000Y-96500000D01*
X152500000Y-96500000D01*
X152500000Y-96551000D01*
X152480038Y-96625500D01*
X152425500Y-96680038D01*
X152351000Y-96700000D01*
X151550000Y-96700000D01*
X151550000Y-96766102D01*
X151560131Y-96850466D01*
X151560132Y-96850468D01*
X151616815Y-96994209D01*
X151613597Y-96995477D01*
X151628111Y-97052161D01*
X151607319Y-97126434D01*
X151552176Y-97180360D01*
X151479120Y-97199500D01*
X149575676Y-97199500D01*
X149556728Y-97194423D01*
X149537112Y-97194423D01*
X149520124Y-97184615D01*
X149501176Y-97179538D01*
X149470317Y-97155859D01*
X149326521Y-97012063D01*
X149287957Y-96945268D01*
X149282880Y-96906704D01*
X149282880Y-96406899D01*
X149282880Y-96406898D01*
X149272257Y-96318436D01*
X149238919Y-96233897D01*
X151550000Y-96233897D01*
X151550000Y-96300000D01*
X152300000Y-96300000D01*
X152300000Y-95750000D01*
X152033897Y-95750000D01*
X151949533Y-95760131D01*
X151949531Y-95760132D01*
X151815274Y-95813075D01*
X151815273Y-95813075D01*
X151700280Y-95900277D01*
X151700277Y-95900280D01*
X151613075Y-96015273D01*
X151613075Y-96015274D01*
X151560132Y-96149531D01*
X151560131Y-96149533D01*
X151550000Y-96233897D01*
X149238919Y-96233897D01*
X149216741Y-96177658D01*
X149190120Y-96142553D01*
X149125303Y-96057079D01*
X149125300Y-96057076D01*
X149057843Y-96005922D01*
X149004722Y-95965639D01*
X149004721Y-95965638D01*
X148863943Y-95910122D01*
X148775485Y-95899500D01*
X148775482Y-95899500D01*
X147589278Y-95899500D01*
X147589274Y-95899500D01*
X147500816Y-95910122D01*
X147360038Y-95965638D01*
X147360038Y-95965639D01*
X147239459Y-96057076D01*
X147239456Y-96057079D01*
X147148019Y-96177658D01*
X147148018Y-96177658D01*
X147092502Y-96318436D01*
X147081880Y-96406894D01*
X147081880Y-97593105D01*
X147092502Y-97681563D01*
X147148018Y-97822341D01*
X147238925Y-97942220D01*
X147239458Y-97942922D01*
X147360038Y-98034361D01*
X147500816Y-98089877D01*
X147589278Y-98100500D01*
X148089084Y-98100500D01*
X148163584Y-98120462D01*
X148194443Y-98144141D01*
X148672091Y-98621789D01*
X148803201Y-98709394D01*
X148803203Y-98709395D01*
X148803205Y-98709396D01*
X148840421Y-98724811D01*
X148948883Y-98769738D01*
X149103538Y-98800500D01*
X149261223Y-98800500D01*
X151478541Y-98800500D01*
X151553041Y-98820462D01*
X151607579Y-98875000D01*
X151627541Y-98949500D01*
X151613194Y-99004289D01*
X151616375Y-99005544D01*
X151559640Y-99149409D01*
X151549500Y-99233852D01*
X151549500Y-99766147D01*
X151559640Y-99850590D01*
X151612635Y-99984973D01*
X151612638Y-99984979D01*
X151652467Y-100037500D01*
X151699922Y-100100078D01*
X151733361Y-100125436D01*
X151815020Y-100187361D01*
X151815023Y-100187362D01*
X151815025Y-100187364D01*
X151860842Y-100205432D01*
X151949409Y-100240359D01*
X151965260Y-100242262D01*
X152033856Y-100250500D01*
X152050500Y-100250500D01*
X152125000Y-100270462D01*
X152179538Y-100325000D01*
X152199500Y-100399500D01*
X152199500Y-102050500D01*
X152179538Y-102125000D01*
X152125000Y-102179538D01*
X152050500Y-102199500D01*
X151155133Y-102199500D01*
X151130010Y-102202414D01*
X151130007Y-102202415D01*
X151027235Y-102247793D01*
X150947793Y-102327235D01*
X150902416Y-102430005D01*
X150902415Y-102430008D01*
X150902415Y-102430009D01*
X150899500Y-102455135D01*
X150899500Y-102455139D01*
X150899500Y-102455140D01*
X150899500Y-105244866D01*
X150902414Y-105269989D01*
X150902415Y-105269992D01*
X150947793Y-105372764D01*
X150947794Y-105372765D01*
X151027235Y-105452206D01*
X151130009Y-105497585D01*
X151155135Y-105500500D01*
X154844864Y-105500499D01*
X154844866Y-105500499D01*
X154857427Y-105499042D01*
X154869991Y-105497585D01*
X154972765Y-105452206D01*
X155052206Y-105372765D01*
X155097585Y-105269991D01*
X155100500Y-105244865D01*
X155100499Y-102943294D01*
X155120461Y-102868795D01*
X155144136Y-102837940D01*
X160598021Y-97384054D01*
X160598026Y-97384051D01*
X160610287Y-97371789D01*
X160610289Y-97371789D01*
X160721789Y-97260289D01*
X160809394Y-97129179D01*
X160869737Y-96983497D01*
X160882137Y-96921158D01*
X160900500Y-96828843D01*
X160900500Y-96671158D01*
X160900500Y-96647450D01*
X160920462Y-96572950D01*
X160975000Y-96518412D01*
X161025003Y-96500477D01*
X161979932Y-96341323D01*
X162046126Y-96318519D01*
X162133259Y-96247600D01*
X162188889Y-96149994D01*
X162200500Y-96080951D01*
X162200500Y-94919046D01*
X162188889Y-94850007D01*
X162133259Y-94752401D01*
X162133258Y-94752400D01*
X162133253Y-94752395D01*
X162046130Y-94681484D01*
X162046127Y-94681482D01*
X162046126Y-94681481D01*
X162046124Y-94681480D01*
X162046122Y-94681479D01*
X161979939Y-94658678D01*
X159300245Y-94212063D01*
X158316924Y-94048176D01*
X158315411Y-94048163D01*
X158254793Y-94047655D01*
X158148628Y-94084402D01*
X158148626Y-94084403D01*
X158062905Y-94157020D01*
X158062903Y-94157021D01*
X158009201Y-94255702D01*
X158009200Y-94255705D01*
X157999501Y-94317063D01*
X157999500Y-94317077D01*
X157999500Y-96682928D01*
X158004912Y-96717157D01*
X158009203Y-96744298D01*
X158062904Y-96842979D01*
X158148626Y-96915596D01*
X158254793Y-96952343D01*
X158316926Y-96951824D01*
X158397311Y-96938426D01*
X158474076Y-96945869D01*
X158536838Y-96990699D01*
X158568777Y-97060903D01*
X158561334Y-97137671D01*
X158527163Y-97190758D01*
X157009859Y-98708063D01*
X156943064Y-98746627D01*
X156865936Y-98746627D01*
X156799141Y-98708063D01*
X156760577Y-98641268D01*
X156755500Y-98602704D01*
X156755500Y-97133501D01*
X156755499Y-97133482D01*
X156755173Y-97126434D01*
X156754197Y-97105312D01*
X156723472Y-96997327D01*
X156655814Y-96907733D01*
X156630466Y-96892038D01*
X156560360Y-96848630D01*
X156560359Y-96848629D01*
X156450004Y-96828000D01*
X156450000Y-96828000D01*
X155663796Y-96828000D01*
X155589296Y-96808038D01*
X155534758Y-96753500D01*
X155514796Y-96679000D01*
X155534758Y-96604500D01*
X155558437Y-96573641D01*
X156337578Y-95794500D01*
X157121788Y-95010290D01*
X157126502Y-95003235D01*
X157209394Y-94879179D01*
X157260950Y-94754711D01*
X157269737Y-94733498D01*
X157300500Y-94578843D01*
X157300500Y-94421158D01*
X157300500Y-93893296D01*
X157320462Y-93818796D01*
X157344141Y-93787937D01*
X158087937Y-93044141D01*
X158154732Y-93005577D01*
X158193296Y-93000500D01*
X161421158Y-93000500D01*
X161578842Y-93000500D01*
X166907704Y-93000500D01*
X166982204Y-93020462D01*
X167036742Y-93075000D01*
X167056704Y-93149500D01*
X167036742Y-93224000D01*
X167013063Y-93254858D01*
X166479984Y-93787937D01*
X165960844Y-94307077D01*
X165894049Y-94345641D01*
X165879983Y-94348690D01*
X165569127Y-94400500D01*
X164020070Y-94658676D01*
X164020069Y-94658676D01*
X163953873Y-94681481D01*
X163953872Y-94681482D01*
X163866741Y-94752400D01*
X163811111Y-94850006D01*
X163799500Y-94919047D01*
X163799500Y-95944204D01*
X163779538Y-96018704D01*
X163755859Y-96049563D01*
X161049563Y-98755859D01*
X160982768Y-98794423D01*
X160944204Y-98799500D01*
X160481894Y-98799500D01*
X160393436Y-98810122D01*
X160252658Y-98865638D01*
X160252658Y-98865639D01*
X160132079Y-98957076D01*
X160132076Y-98957079D01*
X160040639Y-99077658D01*
X160040638Y-99077658D01*
X159985122Y-99218436D01*
X159974500Y-99306894D01*
X159974500Y-100693105D01*
X159985122Y-100781563D01*
X159992393Y-100800000D01*
X160040639Y-100922342D01*
X160106725Y-101009489D01*
X160135834Y-101080910D01*
X160137000Y-101099518D01*
X160137000Y-101900481D01*
X160117038Y-101974981D01*
X160106724Y-101990512D01*
X160040639Y-102077658D01*
X160040638Y-102077658D01*
X159985122Y-102218436D01*
X159974500Y-102306894D01*
X159974500Y-103693105D01*
X159985122Y-103781563D01*
X160040638Y-103922341D01*
X160118971Y-104025639D01*
X160132078Y-104042922D01*
X160252658Y-104134361D01*
X160393436Y-104189877D01*
X160481898Y-104200500D01*
X160481899Y-104200500D01*
X161393101Y-104200500D01*
X161393102Y-104200500D01*
X161481564Y-104189877D01*
X161622342Y-104134361D01*
X161742922Y-104042922D01*
X161834361Y-103922342D01*
X161889877Y-103781564D01*
X161900500Y-103693102D01*
X161900500Y-103693060D01*
X163100000Y-103693060D01*
X163110613Y-103781443D01*
X163166079Y-103922096D01*
X163257433Y-104042562D01*
X163257437Y-104042566D01*
X163377904Y-104133920D01*
X163377903Y-104133920D01*
X163518556Y-104189386D01*
X163606939Y-104199999D01*
X163606941Y-104200000D01*
X163862500Y-104200000D01*
X164262500Y-104200000D01*
X164518059Y-104200000D01*
X164518060Y-104199999D01*
X164606443Y-104189386D01*
X164747096Y-104133920D01*
X164867562Y-104042566D01*
X164867566Y-104042562D01*
X164958920Y-103922096D01*
X165014386Y-103781443D01*
X165024999Y-103693060D01*
X165025000Y-103693058D01*
X165025000Y-103200000D01*
X164262500Y-103200000D01*
X164262500Y-104200000D01*
X163862500Y-104200000D01*
X163862500Y-103200000D01*
X163100000Y-103200000D01*
X163100000Y-103693060D01*
X161900500Y-103693060D01*
X161900500Y-102306939D01*
X163100000Y-102306939D01*
X163100000Y-102800000D01*
X163862500Y-102800000D01*
X164262500Y-102800000D01*
X165025000Y-102800000D01*
X165025000Y-102306941D01*
X165024999Y-102306939D01*
X165014386Y-102218556D01*
X164958920Y-102077903D01*
X164867566Y-101957437D01*
X164867562Y-101957433D01*
X164747095Y-101866079D01*
X164747096Y-101866079D01*
X164606443Y-101810613D01*
X164518060Y-101800000D01*
X164262500Y-101800000D01*
X164262500Y-102800000D01*
X163862500Y-102800000D01*
X163862500Y-101800000D01*
X163606939Y-101800000D01*
X163518556Y-101810613D01*
X163377903Y-101866079D01*
X163257437Y-101957433D01*
X163257433Y-101957437D01*
X163166079Y-102077903D01*
X163110613Y-102218556D01*
X163100000Y-102306939D01*
X161900500Y-102306939D01*
X161900500Y-102306898D01*
X161889877Y-102218436D01*
X161834361Y-102077658D01*
X161768276Y-101990512D01*
X161739166Y-101919088D01*
X161738000Y-101900481D01*
X161738000Y-101099518D01*
X161757962Y-101025018D01*
X161768266Y-101009500D01*
X161834361Y-100922342D01*
X161889877Y-100781564D01*
X161900500Y-100693102D01*
X161900500Y-100693060D01*
X163100000Y-100693060D01*
X163110613Y-100781443D01*
X163166079Y-100922096D01*
X163257433Y-101042562D01*
X163257437Y-101042566D01*
X163377904Y-101133920D01*
X163377903Y-101133920D01*
X163518556Y-101189386D01*
X163606939Y-101199999D01*
X163606941Y-101200000D01*
X163862500Y-101200000D01*
X164262500Y-101200000D01*
X164518059Y-101200000D01*
X164518060Y-101199999D01*
X164606443Y-101189386D01*
X164747096Y-101133920D01*
X164867562Y-101042566D01*
X164867566Y-101042562D01*
X164958920Y-100922096D01*
X165014386Y-100781443D01*
X165024999Y-100693060D01*
X165025000Y-100693058D01*
X165025000Y-100200000D01*
X164262500Y-100200000D01*
X164262500Y-101200000D01*
X163862500Y-101200000D01*
X163862500Y-100200000D01*
X163100000Y-100200000D01*
X163100000Y-100693060D01*
X161900500Y-100693060D01*
X161900500Y-100230795D01*
X161905577Y-100211847D01*
X161905577Y-100192231D01*
X161915384Y-100175243D01*
X161920462Y-100156295D01*
X161944137Y-100125440D01*
X162845642Y-99223934D01*
X162912436Y-99185372D01*
X162989564Y-99185372D01*
X163056359Y-99223936D01*
X163094923Y-99290731D01*
X163100000Y-99329295D01*
X163100000Y-99800000D01*
X163862500Y-99800000D01*
X164262500Y-99800000D01*
X165025000Y-99800000D01*
X165025000Y-99306941D01*
X165024999Y-99306939D01*
X165014386Y-99218556D01*
X164958920Y-99077903D01*
X164867566Y-98957437D01*
X164867562Y-98957433D01*
X164747095Y-98866079D01*
X164747096Y-98866079D01*
X164606443Y-98810613D01*
X164518060Y-98800000D01*
X164262500Y-98800000D01*
X164262500Y-99800000D01*
X163862500Y-99800000D01*
X163862500Y-98800000D01*
X163629296Y-98800000D01*
X163554796Y-98780038D01*
X163500258Y-98725500D01*
X163480296Y-98651000D01*
X163500258Y-98576500D01*
X163523937Y-98545641D01*
X164943143Y-97126434D01*
X165430010Y-96639566D01*
X165496803Y-96601004D01*
X165559858Y-96597954D01*
X167683076Y-96951824D01*
X167744199Y-96952335D01*
X167745206Y-96952344D01*
X167745206Y-96952343D01*
X167745208Y-96952344D01*
X167851374Y-96915596D01*
X167937097Y-96842978D01*
X167990798Y-96744298D01*
X168000500Y-96682926D01*
X168000500Y-94593296D01*
X168005577Y-94574348D01*
X168005577Y-94554732D01*
X168015384Y-94537744D01*
X168020462Y-94518796D01*
X168044141Y-94487937D01*
X168079430Y-94452648D01*
X171704500Y-94452648D01*
X171704500Y-94657352D01*
X171736523Y-94859534D01*
X171796740Y-95044864D01*
X171799778Y-95054212D01*
X171799782Y-95054224D01*
X171892714Y-95236612D01*
X172013028Y-95402212D01*
X172013035Y-95402220D01*
X172157779Y-95546964D01*
X172157787Y-95546971D01*
X172247130Y-95611881D01*
X172323390Y-95667287D01*
X172372363Y-95692240D01*
X172429680Y-95743849D01*
X172453514Y-95817203D01*
X172437478Y-95892645D01*
X172385869Y-95949962D01*
X172372363Y-95957760D01*
X172323388Y-95982714D01*
X172157787Y-96103028D01*
X172157779Y-96103035D01*
X172013035Y-96247779D01*
X172013028Y-96247787D01*
X171892714Y-96413387D01*
X171799782Y-96595775D01*
X171799778Y-96595787D01*
X171748244Y-96754394D01*
X171736523Y-96790466D01*
X171704500Y-96992648D01*
X171704500Y-97197352D01*
X171736523Y-97399534D01*
X171786880Y-97554518D01*
X171799778Y-97594212D01*
X171799782Y-97594224D01*
X171892714Y-97776612D01*
X172013028Y-97942212D01*
X172013035Y-97942220D01*
X172157779Y-98086964D01*
X172157787Y-98086971D01*
X172275197Y-98172273D01*
X172323390Y-98207287D01*
X172505781Y-98300220D01*
X172700466Y-98363477D01*
X172902648Y-98395500D01*
X172902653Y-98395500D01*
X173107347Y-98395500D01*
X173107352Y-98395500D01*
X173309534Y-98363477D01*
X173504219Y-98300220D01*
X173686610Y-98207287D01*
X173852219Y-98086966D01*
X173996966Y-97942219D01*
X174117287Y-97776610D01*
X174210220Y-97594219D01*
X174273477Y-97399534D01*
X174305500Y-97197352D01*
X174305500Y-96992648D01*
X174273477Y-96790466D01*
X174210220Y-96595781D01*
X174117287Y-96413390D01*
X174112571Y-96406899D01*
X173996971Y-96247787D01*
X173996964Y-96247779D01*
X173852220Y-96103035D01*
X173852212Y-96103028D01*
X173686609Y-95982712D01*
X173637637Y-95957760D01*
X173580319Y-95906152D01*
X173556485Y-95832798D01*
X173572521Y-95757356D01*
X173624129Y-95700038D01*
X173637637Y-95692240D01*
X173686610Y-95667287D01*
X173852219Y-95546966D01*
X173996966Y-95402219D01*
X174117287Y-95236610D01*
X174210220Y-95054219D01*
X174273477Y-94859534D01*
X174305500Y-94657352D01*
X174305500Y-94452648D01*
X174273477Y-94250466D01*
X174210220Y-94055781D01*
X174117287Y-93873390D01*
X174103120Y-93853890D01*
X173996971Y-93707787D01*
X173996964Y-93707779D01*
X173852220Y-93563035D01*
X173852212Y-93563028D01*
X173686612Y-93442714D01*
X173504224Y-93349782D01*
X173504220Y-93349780D01*
X173504219Y-93349780D01*
X173309534Y-93286523D01*
X173107352Y-93254500D01*
X172902648Y-93254500D01*
X172734163Y-93281185D01*
X172700465Y-93286523D01*
X172505787Y-93349778D01*
X172505775Y-93349782D01*
X172323387Y-93442714D01*
X172157787Y-93563028D01*
X172157779Y-93563035D01*
X172013035Y-93707779D01*
X172013028Y-93707787D01*
X171892714Y-93873387D01*
X171799782Y-94055775D01*
X171799778Y-94055787D01*
X171759028Y-94181204D01*
X171736523Y-94250466D01*
X171704500Y-94452648D01*
X168079430Y-94452648D01*
X185687937Y-76844141D01*
X185754732Y-76805577D01*
X185793296Y-76800500D01*
X188250500Y-76800500D01*
X188325000Y-76820462D01*
X188379538Y-76875000D01*
X188399500Y-76949500D01*
X188399500Y-77093105D01*
X188410122Y-77181563D01*
X188465638Y-77322341D01*
X188465639Y-77322342D01*
X188557078Y-77442922D01*
X188677658Y-77534361D01*
X188818436Y-77589877D01*
X188906898Y-77600500D01*
X188906899Y-77600500D01*
X191093101Y-77600500D01*
X191093102Y-77600500D01*
X191181564Y-77589877D01*
X191322342Y-77534361D01*
X191442922Y-77442922D01*
X191534361Y-77322342D01*
X191589877Y-77181564D01*
X191600500Y-77093102D01*
X191600500Y-74906898D01*
X191589877Y-74818436D01*
X191534361Y-74677658D01*
X191442922Y-74557078D01*
X191442920Y-74557076D01*
X191395982Y-74521482D01*
X191322342Y-74465639D01*
X191322341Y-74465638D01*
X191181563Y-74410122D01*
X191093105Y-74399500D01*
X191093102Y-74399500D01*
X188906898Y-74399500D01*
X188906894Y-74399500D01*
X188818436Y-74410122D01*
X188677658Y-74465638D01*
X188677658Y-74465639D01*
X188557079Y-74557076D01*
X188557076Y-74557079D01*
X188465639Y-74677658D01*
X188465638Y-74677658D01*
X188410122Y-74818436D01*
X188399500Y-74906894D01*
X188399500Y-75050500D01*
X188379538Y-75125000D01*
X188325000Y-75179538D01*
X188250500Y-75199500D01*
X185321158Y-75199500D01*
X185166505Y-75230261D01*
X185166503Y-75230262D01*
X185020825Y-75290603D01*
X185020821Y-75290606D01*
X184889707Y-75378214D01*
X174559359Y-85708562D01*
X174492564Y-85747126D01*
X174415436Y-85747126D01*
X174348641Y-85708562D01*
X174310077Y-85641767D01*
X174305000Y-85603203D01*
X174305000Y-85532692D01*
X174272989Y-85330583D01*
X174209758Y-85135979D01*
X174209753Y-85135967D01*
X174116858Y-84953650D01*
X174116858Y-84953649D01*
X174054719Y-84868122D01*
X173473019Y-85449821D01*
X173470925Y-85442007D01*
X173405099Y-85327993D01*
X173312007Y-85234901D01*
X173197993Y-85169075D01*
X173190174Y-85166980D01*
X173771876Y-84585279D01*
X173771876Y-84585278D01*
X173686356Y-84523145D01*
X173686349Y-84523141D01*
X173637086Y-84498040D01*
X173579769Y-84446431D01*
X173555935Y-84373078D01*
X173571971Y-84297635D01*
X173623580Y-84240318D01*
X173637083Y-84232522D01*
X173686610Y-84207287D01*
X173852219Y-84086966D01*
X173996966Y-83942219D01*
X174117287Y-83776610D01*
X174210220Y-83594219D01*
X174273477Y-83399534D01*
X174305500Y-83197352D01*
X174305500Y-82992648D01*
X174273477Y-82790466D01*
X174210220Y-82595781D01*
X174117287Y-82413390D01*
X174058126Y-82331961D01*
X173996971Y-82247787D01*
X173996964Y-82247779D01*
X173852220Y-82103035D01*
X173852212Y-82103028D01*
X173686612Y-81982714D01*
X173504224Y-81889782D01*
X173504220Y-81889780D01*
X173504219Y-81889780D01*
X173309534Y-81826523D01*
X173107352Y-81794500D01*
X172902648Y-81794500D01*
X172734163Y-81821185D01*
X172700465Y-81826523D01*
X172505787Y-81889778D01*
X172505775Y-81889782D01*
X172323387Y-81982714D01*
X172157787Y-82103028D01*
X172157779Y-82103035D01*
X172013035Y-82247779D01*
X172013028Y-82247787D01*
X171892714Y-82413387D01*
X171799782Y-82595775D01*
X171799778Y-82595787D01*
X171740298Y-82778849D01*
X171736523Y-82790466D01*
X171704500Y-82992648D01*
X171704500Y-83197352D01*
X171736523Y-83399534D01*
X171771406Y-83506894D01*
X171799778Y-83594212D01*
X171799782Y-83594224D01*
X171892714Y-83776612D01*
X172013028Y-83942212D01*
X172013035Y-83942220D01*
X172157779Y-84086964D01*
X172157787Y-84086971D01*
X172315982Y-84201905D01*
X172323390Y-84207287D01*
X172367207Y-84229613D01*
X172372911Y-84232519D01*
X172430228Y-84284127D01*
X172454063Y-84357480D01*
X172438027Y-84432923D01*
X172386419Y-84490240D01*
X172372914Y-84498038D01*
X172323652Y-84523138D01*
X172238122Y-84585278D01*
X172819823Y-85166980D01*
X172812007Y-85169075D01*
X172697993Y-85234901D01*
X172604901Y-85327993D01*
X172539075Y-85442007D01*
X172536980Y-85449823D01*
X171955278Y-84868122D01*
X171893137Y-84953653D01*
X171893137Y-84953655D01*
X171800248Y-85135961D01*
X171800241Y-85135979D01*
X171737010Y-85330583D01*
X171705000Y-85532692D01*
X171705000Y-85737307D01*
X171737010Y-85939416D01*
X171800241Y-86134020D01*
X171800246Y-86134032D01*
X171893141Y-86316349D01*
X171893145Y-86316356D01*
X171955278Y-86401876D01*
X171955279Y-86401876D01*
X172536980Y-85820174D01*
X172539075Y-85827993D01*
X172604901Y-85942007D01*
X172697993Y-86035099D01*
X172812007Y-86100925D01*
X172819821Y-86103019D01*
X172238122Y-86684719D01*
X172323649Y-86746858D01*
X172505967Y-86839753D01*
X172505979Y-86839758D01*
X172700583Y-86902989D01*
X172902693Y-86935000D01*
X172973203Y-86935000D01*
X173047703Y-86954962D01*
X173102241Y-87009500D01*
X173122203Y-87084000D01*
X173102241Y-87158500D01*
X173078562Y-87189359D01*
X168912063Y-91355859D01*
X168845268Y-91394423D01*
X168806704Y-91399500D01*
X162379500Y-91399500D01*
X162305000Y-91379538D01*
X162250462Y-91325000D01*
X162230500Y-91250500D01*
X162230500Y-86422295D01*
X162250462Y-86347795D01*
X162305000Y-86293257D01*
X162379500Y-86273295D01*
X162454000Y-86293257D01*
X162484859Y-86316936D01*
X163740709Y-87572786D01*
X163740709Y-87572787D01*
X163852202Y-87684281D01*
X163852207Y-87684285D01*
X163852211Y-87684289D01*
X163983321Y-87771894D01*
X164129003Y-87832237D01*
X164283657Y-87863000D01*
X164283658Y-87863000D01*
X165150481Y-87863000D01*
X165224981Y-87882962D01*
X165240513Y-87893276D01*
X165327658Y-87959361D01*
X165468436Y-88014877D01*
X165556898Y-88025500D01*
X165556899Y-88025500D01*
X166943101Y-88025500D01*
X166943102Y-88025500D01*
X167031564Y-88014877D01*
X167172342Y-87959361D01*
X167292922Y-87867922D01*
X167384361Y-87747342D01*
X167439877Y-87606564D01*
X167450500Y-87518102D01*
X167450500Y-86606898D01*
X167439877Y-86518436D01*
X167384361Y-86377658D01*
X167361715Y-86347795D01*
X167292923Y-86257079D01*
X167292920Y-86257076D01*
X167245982Y-86221482D01*
X167172342Y-86165639D01*
X167172341Y-86165638D01*
X167031563Y-86110122D01*
X166943105Y-86099500D01*
X166943102Y-86099500D01*
X165556898Y-86099500D01*
X165556894Y-86099500D01*
X165468436Y-86110122D01*
X165327658Y-86165638D01*
X165327658Y-86165639D01*
X165240512Y-86231724D01*
X165169088Y-86260834D01*
X165150481Y-86262000D01*
X164755795Y-86262000D01*
X164681295Y-86242038D01*
X164650436Y-86218359D01*
X162825137Y-84393060D01*
X165050000Y-84393060D01*
X165060613Y-84481443D01*
X165116079Y-84622096D01*
X165207433Y-84742562D01*
X165207437Y-84742566D01*
X165327904Y-84833920D01*
X165327903Y-84833920D01*
X165468556Y-84889386D01*
X165556939Y-84899999D01*
X165556941Y-84900000D01*
X166050000Y-84900000D01*
X166450000Y-84900000D01*
X166943059Y-84900000D01*
X166943060Y-84899999D01*
X167031443Y-84889386D01*
X167172096Y-84833920D01*
X167292562Y-84742566D01*
X167292566Y-84742562D01*
X167383920Y-84622096D01*
X167439386Y-84481443D01*
X167449999Y-84393060D01*
X167450000Y-84393058D01*
X167450000Y-84137500D01*
X166450000Y-84137500D01*
X166450000Y-84900000D01*
X166050000Y-84900000D01*
X166050000Y-84137500D01*
X165050000Y-84137500D01*
X165050000Y-84393060D01*
X162825137Y-84393060D01*
X162739341Y-84307264D01*
X162729533Y-84290276D01*
X162715662Y-84276405D01*
X162710584Y-84257456D01*
X162700777Y-84240469D01*
X162695700Y-84201905D01*
X162695700Y-84058094D01*
X162715662Y-83983594D01*
X162739341Y-83952735D01*
X163210137Y-83481939D01*
X165050000Y-83481939D01*
X165050000Y-83737500D01*
X166050000Y-83737500D01*
X166450000Y-83737500D01*
X167450000Y-83737500D01*
X167450000Y-83481941D01*
X167449999Y-83481939D01*
X167439386Y-83393556D01*
X167383920Y-83252903D01*
X167292566Y-83132437D01*
X167292564Y-83132435D01*
X167257068Y-83105517D01*
X167257066Y-83105515D01*
X167172096Y-83041079D01*
X167031443Y-82985613D01*
X166943060Y-82975000D01*
X166450000Y-82975000D01*
X166450000Y-83737500D01*
X166050000Y-83737500D01*
X166050000Y-82975000D01*
X165556939Y-82975000D01*
X165468556Y-82985613D01*
X165327903Y-83041079D01*
X165207437Y-83132433D01*
X165207433Y-83132437D01*
X165116079Y-83252903D01*
X165060613Y-83393556D01*
X165050000Y-83481939D01*
X163210137Y-83481939D01*
X163319948Y-83372128D01*
X165160698Y-81531378D01*
X167065642Y-79626434D01*
X167065647Y-79626430D01*
X167077908Y-79614168D01*
X167077910Y-79614168D01*
X167189410Y-79502668D01*
X167277015Y-79371558D01*
X167337358Y-79225876D01*
X167368121Y-79071222D01*
X167368121Y-78913537D01*
X167368121Y-78124931D01*
X167388083Y-78050431D01*
X167427090Y-78006207D01*
X167478166Y-77967474D01*
X167510543Y-77942922D01*
X167601982Y-77822342D01*
X167657498Y-77681564D01*
X167668121Y-77593102D01*
X167668121Y-76913432D01*
X167967621Y-76913432D01*
X167967621Y-77086567D01*
X167994707Y-77257586D01*
X168048211Y-77422253D01*
X168126818Y-77576526D01*
X168161085Y-77623691D01*
X168161086Y-77623691D01*
X168681250Y-77103526D01*
X168694880Y-77154394D01*
X168747541Y-77245606D01*
X168822015Y-77320080D01*
X168913227Y-77372741D01*
X168964092Y-77386370D01*
X168443928Y-77906534D01*
X168491093Y-77940802D01*
X168491094Y-77940803D01*
X168645367Y-78019409D01*
X168810034Y-78072913D01*
X168981054Y-78100000D01*
X169154188Y-78100000D01*
X169325207Y-78072913D01*
X169489874Y-78019409D01*
X169644146Y-77940804D01*
X169691312Y-77906534D01*
X169691312Y-77906533D01*
X169171149Y-77386370D01*
X169222015Y-77372741D01*
X169313227Y-77320080D01*
X169387701Y-77245606D01*
X169440362Y-77154394D01*
X169453991Y-77103528D01*
X169974154Y-77623691D01*
X169974155Y-77623691D01*
X170008425Y-77576525D01*
X170087030Y-77422253D01*
X170140534Y-77257586D01*
X170167621Y-77086567D01*
X170167621Y-76913432D01*
X170140534Y-76742413D01*
X170087030Y-76577746D01*
X170008424Y-76423473D01*
X170008423Y-76423472D01*
X169974155Y-76376307D01*
X169453991Y-76896470D01*
X169440362Y-76845606D01*
X169387701Y-76754394D01*
X169313227Y-76679920D01*
X169222015Y-76627259D01*
X169171147Y-76613629D01*
X169691312Y-76093465D01*
X169691312Y-76093464D01*
X169644147Y-76059197D01*
X169644147Y-76059196D01*
X169489874Y-75980590D01*
X169325207Y-75927086D01*
X169154188Y-75900000D01*
X168981054Y-75900000D01*
X168810034Y-75927086D01*
X168645367Y-75980590D01*
X168491098Y-76059195D01*
X168443928Y-76093465D01*
X168964092Y-76613629D01*
X168913227Y-76627259D01*
X168822015Y-76679920D01*
X168747541Y-76754394D01*
X168694880Y-76845606D01*
X168681250Y-76896471D01*
X168161086Y-76376307D01*
X168126816Y-76423477D01*
X168048211Y-76577746D01*
X167994707Y-76742413D01*
X167967621Y-76913432D01*
X167668121Y-76913432D01*
X167668121Y-76406898D01*
X167657498Y-76318436D01*
X167657497Y-76318433D01*
X167612735Y-76204924D01*
X167612731Y-76204916D01*
X167601982Y-76177658D01*
X167538136Y-76093465D01*
X167510544Y-76057079D01*
X167510541Y-76057076D01*
X167463603Y-76021482D01*
X167389963Y-75965639D01*
X167389962Y-75965638D01*
X167249184Y-75910122D01*
X167160726Y-75899500D01*
X167160723Y-75899500D01*
X165974519Y-75899500D01*
X165974515Y-75899500D01*
X165886057Y-75910122D01*
X165745279Y-75965638D01*
X165745279Y-75965639D01*
X165624700Y-76057076D01*
X165624697Y-76057079D01*
X165533260Y-76177658D01*
X165533259Y-76177658D01*
X165477743Y-76318436D01*
X165467121Y-76406894D01*
X165467121Y-77593105D01*
X165477743Y-77681563D01*
X165533259Y-77822341D01*
X165624697Y-77942920D01*
X165624700Y-77942923D01*
X165708152Y-78006207D01*
X165755452Y-78067129D01*
X165767121Y-78124931D01*
X165767121Y-78599082D01*
X165747159Y-78673582D01*
X165723480Y-78704441D01*
X162935106Y-81492814D01*
X162868311Y-81531378D01*
X162791183Y-81531378D01*
X162724388Y-81492814D01*
X162685824Y-81426019D01*
X162682581Y-81410763D01*
X162664045Y-81293730D01*
X162602507Y-81104333D01*
X162512094Y-80926889D01*
X162512089Y-80926880D01*
X162454804Y-80848037D01*
X161816370Y-81486471D01*
X161802741Y-81435606D01*
X161750080Y-81344394D01*
X161675606Y-81269920D01*
X161584394Y-81217259D01*
X161533526Y-81203629D01*
X162171962Y-80565195D01*
X162171961Y-80565194D01*
X162093110Y-80507905D01*
X162093110Y-80507904D01*
X161985433Y-80453040D01*
X161928116Y-80401431D01*
X161904282Y-80328077D01*
X161920318Y-80252635D01*
X161971927Y-80195318D01*
X161985427Y-80187523D01*
X162093371Y-80132524D01*
X162254548Y-80015422D01*
X162395422Y-79874548D01*
X162512524Y-79713371D01*
X162602970Y-79535860D01*
X162664534Y-79346386D01*
X162695700Y-79149613D01*
X162695700Y-78950387D01*
X162664534Y-78753614D01*
X162602970Y-78564140D01*
X162512524Y-78386629D01*
X162512522Y-78386626D01*
X162512521Y-78386624D01*
X162395424Y-78225455D01*
X162395422Y-78225452D01*
X162254548Y-78084578D01*
X162093371Y-77967476D01*
X162093368Y-77967474D01*
X161985984Y-77912760D01*
X161928666Y-77861152D01*
X161904832Y-77787799D01*
X161920868Y-77712356D01*
X161972476Y-77655038D01*
X161985984Y-77647240D01*
X162093371Y-77592524D01*
X162093375Y-77592521D01*
X162115390Y-77576526D01*
X162254548Y-77475422D01*
X162395422Y-77334548D01*
X162512524Y-77173371D01*
X162602970Y-76995860D01*
X162664534Y-76806386D01*
X162695700Y-76609613D01*
X162695700Y-76410387D01*
X162664534Y-76213614D01*
X162653603Y-76179974D01*
X162649565Y-76102955D01*
X162684579Y-76034233D01*
X162689932Y-76028591D01*
X167432186Y-71286337D01*
X167463051Y-71262657D01*
X167471092Y-71258015D01*
X167588015Y-71190510D01*
X167940510Y-70838015D01*
X168012984Y-70712485D01*
X168022351Y-70677526D01*
X168050500Y-70572475D01*
X168050500Y-68789742D01*
X168070462Y-68715242D01*
X168094141Y-68684383D01*
X168551900Y-68226624D01*
X169095143Y-67683380D01*
X169161936Y-67644818D01*
X169239064Y-67644818D01*
X169305859Y-67683382D01*
X169344423Y-67750177D01*
X169349500Y-67788741D01*
X169349500Y-68894866D01*
X169352414Y-68919989D01*
X169352415Y-68919992D01*
X169397793Y-69022764D01*
X169397794Y-69022765D01*
X169477235Y-69102206D01*
X169580009Y-69147585D01*
X169605135Y-69150500D01*
X171394864Y-69150499D01*
X171394866Y-69150499D01*
X171407427Y-69149042D01*
X171419991Y-69147585D01*
X171522765Y-69102206D01*
X171530830Y-69094141D01*
X171597625Y-69055577D01*
X171636189Y-69050500D01*
X173353200Y-69050500D01*
X173427700Y-69070462D01*
X173482238Y-69125000D01*
X173501137Y-69181735D01*
X173510122Y-69256563D01*
X173565638Y-69397341D01*
X173565639Y-69397342D01*
X173657078Y-69517922D01*
X173777658Y-69609361D01*
X173918436Y-69664877D01*
X174006898Y-69675500D01*
X174785257Y-69675500D01*
X174859757Y-69695462D01*
X174890616Y-69719141D01*
X176531985Y-71360510D01*
X176657515Y-71432984D01*
X176797525Y-71470500D01*
X176797526Y-71470500D01*
X176942474Y-71470500D01*
X188392903Y-71470500D01*
X188467403Y-71490462D01*
X188521941Y-71545000D01*
X188525663Y-71551855D01*
X188631130Y-71758845D01*
X188779207Y-71962656D01*
X188957344Y-72140793D01*
X189161155Y-72288870D01*
X189385621Y-72403241D01*
X189625215Y-72481090D01*
X189874038Y-72520500D01*
X189874043Y-72520500D01*
X190125957Y-72520500D01*
X190125962Y-72520500D01*
X190374785Y-72481090D01*
X190614379Y-72403241D01*
X190838845Y-72288870D01*
X191042656Y-72140793D01*
X191220793Y-71962656D01*
X191368870Y-71758845D01*
X191483241Y-71534379D01*
X191561090Y-71294785D01*
X191600500Y-71045962D01*
X191600500Y-70794038D01*
X191561090Y-70545215D01*
X191483241Y-70305621D01*
X191368870Y-70081155D01*
X191220793Y-69877344D01*
X191042656Y-69699207D01*
X190838845Y-69551130D01*
X190614379Y-69436759D01*
X190374785Y-69358910D01*
X190125962Y-69319500D01*
X189874038Y-69319500D01*
X189666685Y-69352341D01*
X189625214Y-69358910D01*
X189385627Y-69436757D01*
X189385621Y-69436759D01*
X189385615Y-69436761D01*
X189385615Y-69436762D01*
X189161153Y-69551131D01*
X189161152Y-69551131D01*
X188957345Y-69699206D01*
X188957342Y-69699208D01*
X188779208Y-69877342D01*
X188779206Y-69877345D01*
X188631131Y-70081152D01*
X188631131Y-70081153D01*
X188525663Y-70288145D01*
X188474054Y-70345462D01*
X188400701Y-70369296D01*
X188392903Y-70369500D01*
X177159743Y-70369500D01*
X177085243Y-70349538D01*
X177054384Y-70325859D01*
X175896585Y-69168060D01*
X176600000Y-69168060D01*
X176610613Y-69256443D01*
X176666079Y-69397096D01*
X176757433Y-69517562D01*
X176757437Y-69517566D01*
X176877904Y-69608920D01*
X176877903Y-69608920D01*
X177018556Y-69664386D01*
X177106939Y-69674999D01*
X177106941Y-69675000D01*
X177350000Y-69675000D01*
X177750000Y-69675000D01*
X177993059Y-69675000D01*
X177993060Y-69674999D01*
X178081443Y-69664386D01*
X178222096Y-69608920D01*
X178342562Y-69517566D01*
X178342566Y-69517562D01*
X178433920Y-69397096D01*
X178489386Y-69256443D01*
X178499999Y-69168060D01*
X178500000Y-69168058D01*
X178500000Y-68700000D01*
X177750000Y-68700000D01*
X177750000Y-69675000D01*
X177350000Y-69675000D01*
X177350000Y-68700000D01*
X176600000Y-68700000D01*
X176600000Y-69168060D01*
X175896585Y-69168060D01*
X175444141Y-68715616D01*
X175405577Y-68648821D01*
X175400500Y-68610257D01*
X175400500Y-67831939D01*
X176600000Y-67831939D01*
X176600000Y-68300000D01*
X177350000Y-68300000D01*
X177750000Y-68300000D01*
X178500000Y-68300000D01*
X178500000Y-67831941D01*
X178499999Y-67831939D01*
X178489386Y-67743556D01*
X178433920Y-67602903D01*
X178342566Y-67482437D01*
X178342562Y-67482433D01*
X178222095Y-67391079D01*
X178222096Y-67391079D01*
X178081443Y-67335613D01*
X177993060Y-67325000D01*
X177750000Y-67325000D01*
X177750000Y-68300000D01*
X177350000Y-68300000D01*
X177350000Y-67325000D01*
X177106939Y-67325000D01*
X177018556Y-67335613D01*
X176877903Y-67391079D01*
X176757437Y-67482433D01*
X176757433Y-67482437D01*
X176666079Y-67602903D01*
X176610613Y-67743556D01*
X176600000Y-67831939D01*
X175400500Y-67831939D01*
X175400500Y-67831899D01*
X175400500Y-67831898D01*
X175389877Y-67743436D01*
X175334361Y-67602658D01*
X175285973Y-67538849D01*
X175242923Y-67482079D01*
X175242920Y-67482076D01*
X175177575Y-67432524D01*
X175122342Y-67390639D01*
X175122341Y-67390638D01*
X174981563Y-67335122D01*
X174893105Y-67324500D01*
X174893102Y-67324500D01*
X174006898Y-67324500D01*
X174006894Y-67324500D01*
X173918436Y-67335122D01*
X173777658Y-67390638D01*
X173777658Y-67390639D01*
X173657079Y-67482076D01*
X173657076Y-67482079D01*
X173565639Y-67602658D01*
X173565638Y-67602658D01*
X173510122Y-67743436D01*
X173501137Y-67818265D01*
X173472435Y-67889854D01*
X173411783Y-67937500D01*
X173353200Y-67949500D01*
X171799499Y-67949500D01*
X171724999Y-67929538D01*
X171670461Y-67875000D01*
X171650499Y-67800500D01*
X171650499Y-67105133D01*
X171647585Y-67080008D01*
X171602206Y-66977235D01*
X171522764Y-66897793D01*
X171419994Y-66852416D01*
X171419991Y-66852415D01*
X171394865Y-66849500D01*
X171394859Y-66849500D01*
X170887406Y-66849500D01*
X170812906Y-66829538D01*
X170758368Y-66775000D01*
X170738406Y-66700500D01*
X170758368Y-66626000D01*
X170812906Y-66571462D01*
X170841363Y-66558792D01*
X170941639Y-66526211D01*
X171102994Y-66443996D01*
X171249501Y-66337553D01*
X171377553Y-66209501D01*
X171483996Y-66062994D01*
X171566211Y-65901639D01*
X171622171Y-65729409D01*
X171624599Y-65714081D01*
X188400000Y-65714081D01*
X188400000Y-65965918D01*
X188439397Y-66214673D01*
X188517221Y-66454189D01*
X188631558Y-66678584D01*
X188735503Y-66821652D01*
X189419668Y-66137486D01*
X189423978Y-66147890D01*
X189495112Y-66254351D01*
X189585649Y-66344888D01*
X189692110Y-66416022D01*
X189702511Y-66420330D01*
X189018346Y-67104495D01*
X189018346Y-67104497D01*
X189161406Y-67208436D01*
X189161415Y-67208441D01*
X189385810Y-67322778D01*
X189625326Y-67400601D01*
X189625326Y-67400602D01*
X189874082Y-67440000D01*
X190125918Y-67440000D01*
X190374673Y-67400602D01*
X190374673Y-67400601D01*
X190614189Y-67322778D01*
X190838584Y-67208441D01*
X190981652Y-67104496D01*
X190981652Y-67104495D01*
X190297488Y-66420330D01*
X190307890Y-66416022D01*
X190414351Y-66344888D01*
X190504888Y-66254351D01*
X190576022Y-66147890D01*
X190580330Y-66137487D01*
X191264495Y-66821652D01*
X191264496Y-66821652D01*
X191368441Y-66678584D01*
X191482778Y-66454189D01*
X191560601Y-66214673D01*
X191560602Y-66214673D01*
X191600000Y-65965918D01*
X191600000Y-65714081D01*
X191560602Y-65465326D01*
X191482778Y-65225810D01*
X191368441Y-65001415D01*
X191368436Y-65001406D01*
X191264497Y-64858346D01*
X191264495Y-64858346D01*
X190580330Y-65542510D01*
X190576022Y-65532110D01*
X190504888Y-65425649D01*
X190414351Y-65335112D01*
X190307890Y-65263978D01*
X190297486Y-65259668D01*
X190981652Y-64575503D01*
X190981652Y-64575502D01*
X190838584Y-64471558D01*
X190614189Y-64357221D01*
X190374673Y-64279398D01*
X190374673Y-64279397D01*
X190125918Y-64240000D01*
X189874082Y-64240000D01*
X189625326Y-64279397D01*
X189625326Y-64279398D01*
X189385810Y-64357221D01*
X189161415Y-64471558D01*
X189018346Y-64575502D01*
X189018346Y-64575503D01*
X189702512Y-65259669D01*
X189692110Y-65263978D01*
X189585649Y-65335112D01*
X189495112Y-65425649D01*
X189423978Y-65532110D01*
X189419669Y-65542512D01*
X188735503Y-64858346D01*
X188735502Y-64858346D01*
X188631558Y-65001415D01*
X188517221Y-65225810D01*
X188439398Y-65465326D01*
X188439397Y-65465326D01*
X188400000Y-65714081D01*
X171624599Y-65714081D01*
X171650500Y-65550546D01*
X171650500Y-65369454D01*
X171622171Y-65190591D01*
X171566211Y-65018361D01*
X171483996Y-64857006D01*
X171377553Y-64710499D01*
X171249501Y-64582447D01*
X171102994Y-64476004D01*
X170941639Y-64393789D01*
X170769408Y-64337828D01*
X170765223Y-64337166D01*
X170694762Y-64305796D01*
X170649427Y-64243398D01*
X170641364Y-64166693D01*
X170672734Y-64096232D01*
X170735132Y-64050897D01*
X170765223Y-64042834D01*
X170765362Y-64042811D01*
X170769409Y-64042171D01*
X170941639Y-63986211D01*
X171102994Y-63903996D01*
X171249501Y-63797553D01*
X171377553Y-63669501D01*
X171483996Y-63522994D01*
X171566211Y-63361639D01*
X171622171Y-63189409D01*
X171650500Y-63010546D01*
X171650500Y-62829454D01*
X171622171Y-62650591D01*
X171566211Y-62478361D01*
X171483996Y-62317006D01*
X171377553Y-62170499D01*
X171344141Y-62137087D01*
X171305577Y-62070292D01*
X171300500Y-62031728D01*
X171300500Y-59646799D01*
X171320462Y-59572299D01*
X171375000Y-59517761D01*
X171431732Y-59498863D01*
X171506564Y-59489877D01*
X171647342Y-59434361D01*
X171767922Y-59342922D01*
X171859361Y-59222342D01*
X171914877Y-59081564D01*
X171916867Y-59064989D01*
X173033071Y-59064989D01*
X173043684Y-59153372D01*
X173099150Y-59294025D01*
X173190504Y-59414491D01*
X173190508Y-59414495D01*
X173310975Y-59505849D01*
X173310974Y-59505849D01*
X173451627Y-59561315D01*
X173540010Y-59571928D01*
X173540012Y-59571929D01*
X174033071Y-59571929D01*
X174433071Y-59571929D01*
X174926130Y-59571929D01*
X174926131Y-59571928D01*
X175014514Y-59561315D01*
X175155167Y-59505849D01*
X175275633Y-59414495D01*
X175275637Y-59414491D01*
X175366991Y-59294025D01*
X175422457Y-59153372D01*
X175433070Y-59064989D01*
X175433071Y-59064987D01*
X175433071Y-58809429D01*
X174433071Y-58809429D01*
X174433071Y-59571929D01*
X174033071Y-59571929D01*
X174033071Y-58809429D01*
X173033071Y-58809429D01*
X173033071Y-59064989D01*
X171916867Y-59064989D01*
X171925500Y-58993102D01*
X171925500Y-58214743D01*
X171930577Y-58195795D01*
X171930577Y-58176179D01*
X171940384Y-58159191D01*
X171941811Y-58153868D01*
X173033071Y-58153868D01*
X173033071Y-58409429D01*
X174033071Y-58409429D01*
X174433071Y-58409429D01*
X175433071Y-58409429D01*
X175433071Y-58153870D01*
X175433070Y-58153868D01*
X175422457Y-58065485D01*
X175366991Y-57924832D01*
X175275637Y-57804366D01*
X175275633Y-57804362D01*
X175155166Y-57713008D01*
X175155167Y-57713008D01*
X175014514Y-57657542D01*
X174926131Y-57646929D01*
X174433071Y-57646929D01*
X174433071Y-58409429D01*
X174033071Y-58409429D01*
X174033071Y-57646929D01*
X173540010Y-57646929D01*
X173451627Y-57657542D01*
X173310974Y-57713008D01*
X173190508Y-57804362D01*
X173190504Y-57804366D01*
X173099150Y-57924832D01*
X173043684Y-58065485D01*
X173033071Y-58153868D01*
X171941811Y-58153868D01*
X171945462Y-58140243D01*
X171969141Y-58109384D01*
X172734384Y-57344141D01*
X172801179Y-57305577D01*
X172839743Y-57300500D01*
X178161000Y-57300500D01*
X178235500Y-57320462D01*
X178290038Y-57375000D01*
X178310000Y-57449500D01*
X178310000Y-57820000D01*
X179042457Y-57820000D01*
X179010556Y-57875255D01*
X178985000Y-57970630D01*
X178985000Y-58069370D01*
X179010556Y-58164745D01*
X179042457Y-58220000D01*
X178310001Y-58220000D01*
X178310001Y-58589794D01*
X178312909Y-58614874D01*
X178358212Y-58717477D01*
X178437521Y-58796786D01*
X178540128Y-58842091D01*
X178565204Y-58844999D01*
X179160000Y-58844999D01*
X179160000Y-58337542D01*
X179215255Y-58369444D01*
X179310630Y-58395000D01*
X179409370Y-58395000D01*
X179504745Y-58369444D01*
X179560000Y-58337542D01*
X179560000Y-58844999D01*
X180154795Y-58844999D01*
X180179874Y-58842090D01*
X180282477Y-58796787D01*
X180282478Y-58796787D01*
X180361786Y-58717478D01*
X180407091Y-58614871D01*
X180410000Y-58589795D01*
X180410000Y-58220000D01*
X179677543Y-58220000D01*
X179709444Y-58164745D01*
X179735000Y-58069370D01*
X179735000Y-57970630D01*
X179709444Y-57875255D01*
X179677543Y-57820000D01*
X180409999Y-57820000D01*
X180409999Y-57450205D01*
X180407090Y-57425125D01*
X180361787Y-57322522D01*
X180347036Y-57307771D01*
X180308472Y-57240976D01*
X180308472Y-57163848D01*
X180314737Y-57145392D01*
X180316548Y-57141021D01*
X180378776Y-56990789D01*
X180410500Y-56831305D01*
X180410500Y-56668695D01*
X180378776Y-56509211D01*
X180316548Y-56358979D01*
X180226208Y-56223775D01*
X180222792Y-56220359D01*
X180184228Y-56153564D01*
X180184228Y-56076436D01*
X180222792Y-56009641D01*
X180226208Y-56006225D01*
X180316548Y-55871021D01*
X180378776Y-55720789D01*
X180410500Y-55561305D01*
X180410500Y-55398695D01*
X180378776Y-55239211D01*
X180316548Y-55088979D01*
X180226208Y-54953775D01*
X180111225Y-54838792D01*
X179976021Y-54748452D01*
X179976017Y-54748450D01*
X179976015Y-54748449D01*
X179873915Y-54706158D01*
X179825789Y-54686224D01*
X179825787Y-54686223D01*
X179825788Y-54686223D01*
X179666308Y-54654500D01*
X179666305Y-54654500D01*
X179053695Y-54654500D01*
X179053691Y-54654500D01*
X178894212Y-54686223D01*
X178743984Y-54748449D01*
X178743974Y-54748455D01*
X178608776Y-54838791D01*
X178608771Y-54838795D01*
X178507279Y-54940288D01*
X178440484Y-54978852D01*
X178401920Y-54983929D01*
X175541536Y-54983929D01*
X175467036Y-54963967D01*
X175412498Y-54909429D01*
X175402925Y-54889591D01*
X175382892Y-54838792D01*
X175367432Y-54799587D01*
X175275993Y-54679007D01*
X175275991Y-54679005D01*
X175229053Y-54643411D01*
X175155413Y-54587568D01*
X175155412Y-54587567D01*
X175014634Y-54532051D01*
X174926176Y-54521429D01*
X174926173Y-54521429D01*
X173539969Y-54521429D01*
X173539965Y-54521429D01*
X173451507Y-54532051D01*
X173310729Y-54587567D01*
X173310729Y-54587568D01*
X173190150Y-54679005D01*
X173190147Y-54679008D01*
X173098710Y-54799587D01*
X173098709Y-54799587D01*
X173076794Y-54855162D01*
X173030893Y-54917144D01*
X172960150Y-54947872D01*
X172938183Y-54949500D01*
X172028536Y-54949500D01*
X171954036Y-54929538D01*
X171899498Y-54875000D01*
X171889925Y-54855162D01*
X171859361Y-54777658D01*
X171767923Y-54657079D01*
X171767920Y-54657076D01*
X171720982Y-54621482D01*
X171647342Y-54565639D01*
X171647341Y-54565638D01*
X171506563Y-54510122D01*
X171418105Y-54499500D01*
X171418102Y-54499500D01*
X170081898Y-54499500D01*
X170081894Y-54499500D01*
X169993436Y-54510122D01*
X169852658Y-54565638D01*
X169852658Y-54565639D01*
X169732079Y-54657076D01*
X169732076Y-54657079D01*
X169640639Y-54777658D01*
X169640638Y-54777658D01*
X169610075Y-54855162D01*
X169564174Y-54917144D01*
X169493431Y-54947872D01*
X169471464Y-54949500D01*
X167315892Y-54949500D01*
X167184108Y-54949500D01*
X167056814Y-54983608D01*
X167056812Y-54983608D01*
X167056812Y-54983609D01*
X166942689Y-55049497D01*
X166942688Y-55049498D01*
X140072100Y-81920084D01*
X140005305Y-81958648D01*
X139928177Y-81958648D01*
X139861382Y-81920084D01*
X139822818Y-81853289D01*
X139819575Y-81791420D01*
X139835700Y-81689613D01*
X139835700Y-81490387D01*
X139804534Y-81293614D01*
X139742970Y-81104140D01*
X139652524Y-80926629D01*
X139652522Y-80926626D01*
X139652521Y-80926624D01*
X139535424Y-80765455D01*
X139535422Y-80765452D01*
X139394548Y-80624578D01*
X139233371Y-80507476D01*
X139233368Y-80507474D01*
X139125984Y-80452760D01*
X139068666Y-80401152D01*
X139044832Y-80327799D01*
X139060868Y-80252356D01*
X139112476Y-80195038D01*
X139125984Y-80187240D01*
X139233371Y-80132524D01*
X139233375Y-80132521D01*
X139394548Y-80015422D01*
X139535422Y-79874548D01*
X139652524Y-79713371D01*
X139742970Y-79535860D01*
X139804534Y-79346386D01*
X139835700Y-79149613D01*
X139835700Y-78950387D01*
X139804534Y-78753614D01*
X139742970Y-78564140D01*
X139652524Y-78386629D01*
X139652522Y-78386626D01*
X139652521Y-78386624D01*
X139535424Y-78225455D01*
X139535422Y-78225452D01*
X139394548Y-78084578D01*
X139233371Y-77967476D01*
X139233368Y-77967474D01*
X139125984Y-77912760D01*
X139068666Y-77861152D01*
X139044832Y-77787799D01*
X139060868Y-77712356D01*
X139112476Y-77655038D01*
X139125984Y-77647240D01*
X139233371Y-77592524D01*
X139233375Y-77592521D01*
X139255390Y-77576526D01*
X139394548Y-77475422D01*
X139535422Y-77334548D01*
X139652524Y-77173371D01*
X139742970Y-76995860D01*
X139804534Y-76806386D01*
X139835700Y-76609613D01*
X139835700Y-76410387D01*
X139804534Y-76213614D01*
X139742970Y-76024140D01*
X139652524Y-75846629D01*
X139652522Y-75846626D01*
X139652521Y-75846624D01*
X139535424Y-75685455D01*
X139535422Y-75685452D01*
X139394548Y-75544578D01*
X139233371Y-75427476D01*
X139233368Y-75427474D01*
X139136688Y-75378214D01*
X139125983Y-75372759D01*
X139068666Y-75321152D01*
X139044832Y-75247799D01*
X139060868Y-75172356D01*
X139112476Y-75115038D01*
X139125984Y-75107240D01*
X139233371Y-75052524D01*
X139233375Y-75052521D01*
X139290346Y-75011129D01*
X139394548Y-74935422D01*
X139535422Y-74794548D01*
X139652524Y-74633371D01*
X139742970Y-74455860D01*
X139804534Y-74266386D01*
X139835700Y-74069613D01*
X139835700Y-73870387D01*
X139804534Y-73673614D01*
X139742970Y-73484140D01*
X139652524Y-73306629D01*
X139652522Y-73306626D01*
X139652521Y-73306624D01*
X139535424Y-73145455D01*
X139535422Y-73145452D01*
X139394548Y-73004578D01*
X139233371Y-72887476D01*
X139233368Y-72887474D01*
X139125984Y-72832760D01*
X139068666Y-72781152D01*
X139044832Y-72707799D01*
X139060868Y-72632356D01*
X139112476Y-72575038D01*
X139125984Y-72567240D01*
X139233371Y-72512524D01*
X139233375Y-72512521D01*
X139276636Y-72481090D01*
X139394548Y-72395422D01*
X139535422Y-72254548D01*
X139652524Y-72093371D01*
X139742970Y-71915860D01*
X139804534Y-71726386D01*
X139835700Y-71529613D01*
X139835700Y-71330387D01*
X139804534Y-71133614D01*
X139742970Y-70944140D01*
X139652524Y-70766629D01*
X139652522Y-70766626D01*
X139652521Y-70766624D01*
X139535424Y-70605455D01*
X139535422Y-70605452D01*
X139394548Y-70464578D01*
X139233371Y-70347476D01*
X139233368Y-70347474D01*
X139151214Y-70305615D01*
X139125983Y-70292759D01*
X139068666Y-70241152D01*
X139044832Y-70167799D01*
X139060868Y-70092356D01*
X139112476Y-70035038D01*
X139125984Y-70027240D01*
X139233371Y-69972524D01*
X139233375Y-69972521D01*
X139394548Y-69855422D01*
X139535422Y-69714548D01*
X139652524Y-69553371D01*
X139742970Y-69375860D01*
X139804534Y-69186386D01*
X139835700Y-68989613D01*
X139835700Y-68790387D01*
X139804534Y-68593614D01*
X139742970Y-68404140D01*
X139652524Y-68226629D01*
X139652522Y-68226626D01*
X139652521Y-68226624D01*
X139535424Y-68065455D01*
X139535422Y-68065452D01*
X139394548Y-67924578D01*
X139266979Y-67831894D01*
X139233371Y-67807476D01*
X139233368Y-67807474D01*
X139125984Y-67752760D01*
X139068666Y-67701152D01*
X139044832Y-67627799D01*
X139060868Y-67552356D01*
X139112476Y-67495038D01*
X139125984Y-67487240D01*
X139135411Y-67482437D01*
X139233371Y-67432524D01*
X139394548Y-67315422D01*
X139535422Y-67174548D01*
X139652524Y-67013371D01*
X139742970Y-66835860D01*
X139804534Y-66646386D01*
X139835700Y-66449613D01*
X139835700Y-66250387D01*
X139804534Y-66053614D01*
X139742970Y-65864140D01*
X139652524Y-65686629D01*
X139652522Y-65686626D01*
X139652521Y-65686624D01*
X139535424Y-65525455D01*
X139535422Y-65525452D01*
X139394548Y-65384578D01*
X139233371Y-65267476D01*
X139055860Y-65177030D01*
X138866386Y-65115466D01*
X138669613Y-65084300D01*
X138470387Y-65084300D01*
X138306409Y-65110271D01*
X138273613Y-65115466D01*
X138084146Y-65177028D01*
X138084140Y-65177030D01*
X138084135Y-65177032D01*
X138084129Y-65177035D01*
X137906632Y-65267474D01*
X137906629Y-65267476D01*
X137745455Y-65384575D01*
X137604575Y-65525455D01*
X137487478Y-65686624D01*
X137487474Y-65686632D01*
X137397035Y-65864129D01*
X137397032Y-65864135D01*
X137397030Y-65864140D01*
X137335466Y-66053614D01*
X137304300Y-66250387D01*
X137304300Y-66449613D01*
X137335466Y-66646386D01*
X137397030Y-66835860D01*
X137397034Y-66835869D01*
X137397035Y-66835870D01*
X137487474Y-67013367D01*
X137487478Y-67013375D01*
X137554145Y-67105133D01*
X137604578Y-67174548D01*
X137745452Y-67315422D01*
X137745455Y-67315424D01*
X137906624Y-67432521D01*
X137906629Y-67432524D01*
X138014015Y-67487240D01*
X138071333Y-67538849D01*
X138095167Y-67612202D01*
X138079131Y-67687644D01*
X138027522Y-67744962D01*
X138014015Y-67752760D01*
X137906632Y-67807474D01*
X137906629Y-67807476D01*
X137745455Y-67924575D01*
X137604575Y-68065455D01*
X137487478Y-68226624D01*
X137487474Y-68226632D01*
X137397035Y-68404129D01*
X137397032Y-68404135D01*
X137397030Y-68404140D01*
X137335466Y-68593614D01*
X137304300Y-68790387D01*
X137304300Y-68989613D01*
X137335466Y-69186386D01*
X137397030Y-69375860D01*
X137397034Y-69375869D01*
X137397035Y-69375870D01*
X137487474Y-69553367D01*
X137487478Y-69553375D01*
X137576207Y-69675499D01*
X137604578Y-69714548D01*
X137745452Y-69855422D01*
X137745455Y-69855424D01*
X137906624Y-69972521D01*
X137906629Y-69972524D01*
X138014015Y-70027240D01*
X138071333Y-70078849D01*
X138095167Y-70152202D01*
X138079131Y-70227644D01*
X138027522Y-70284962D01*
X138014015Y-70292760D01*
X137906632Y-70347474D01*
X137906629Y-70347476D01*
X137745455Y-70464575D01*
X137604575Y-70605455D01*
X137487478Y-70766624D01*
X137487474Y-70766632D01*
X137397035Y-70944129D01*
X137397028Y-70944146D01*
X137363948Y-71045957D01*
X137335466Y-71133614D01*
X137304300Y-71330387D01*
X137304300Y-71529613D01*
X137335466Y-71726386D01*
X137397030Y-71915860D01*
X137397034Y-71915869D01*
X137397035Y-71915870D01*
X137487474Y-72093367D01*
X137487478Y-72093375D01*
X137604575Y-72254544D01*
X137604578Y-72254548D01*
X137745452Y-72395422D01*
X137756214Y-72403241D01*
X137906624Y-72512521D01*
X137906629Y-72512524D01*
X138014015Y-72567240D01*
X138071333Y-72618849D01*
X138095167Y-72692202D01*
X138079131Y-72767644D01*
X138027522Y-72824962D01*
X138014015Y-72832760D01*
X137906632Y-72887474D01*
X137906629Y-72887476D01*
X137745455Y-73004575D01*
X137604575Y-73145455D01*
X137487478Y-73306624D01*
X137487474Y-73306632D01*
X137397035Y-73484129D01*
X137397032Y-73484135D01*
X137397030Y-73484140D01*
X137335466Y-73673614D01*
X137304300Y-73870387D01*
X137304300Y-74069613D01*
X137335466Y-74266386D01*
X137397030Y-74455860D01*
X137397034Y-74455869D01*
X137397035Y-74455870D01*
X137487474Y-74633367D01*
X137487478Y-74633375D01*
X137604575Y-74794544D01*
X137604578Y-74794548D01*
X137745452Y-74935422D01*
X137745455Y-74935424D01*
X137906624Y-75052521D01*
X137906629Y-75052524D01*
X138014015Y-75107240D01*
X138071333Y-75158849D01*
X138095167Y-75232202D01*
X138079131Y-75307644D01*
X138027522Y-75364962D01*
X138014015Y-75372760D01*
X137906632Y-75427474D01*
X137906629Y-75427476D01*
X137745455Y-75544575D01*
X137604575Y-75685455D01*
X137487478Y-75846624D01*
X137487474Y-75846632D01*
X137397035Y-76024129D01*
X137397028Y-76024146D01*
X137335467Y-76213612D01*
X137335466Y-76213614D01*
X137304300Y-76410387D01*
X137304300Y-76609613D01*
X137335466Y-76806386D01*
X137397030Y-76995860D01*
X137397034Y-76995869D01*
X137397035Y-76995870D01*
X137487474Y-77173367D01*
X137487478Y-77173375D01*
X137567011Y-77282842D01*
X137604578Y-77334548D01*
X137745452Y-77475422D01*
X137745455Y-77475424D01*
X137906624Y-77592521D01*
X137906629Y-77592524D01*
X138014015Y-77647240D01*
X138071333Y-77698849D01*
X138095167Y-77772202D01*
X138079131Y-77847644D01*
X138027522Y-77904962D01*
X138014015Y-77912760D01*
X137906632Y-77967474D01*
X137906629Y-77967476D01*
X137745455Y-78084575D01*
X137604575Y-78225455D01*
X137487478Y-78386624D01*
X137487474Y-78386632D01*
X137397035Y-78564129D01*
X137397028Y-78564146D01*
X137343295Y-78729520D01*
X137335466Y-78753614D01*
X137304300Y-78950387D01*
X137304300Y-79149613D01*
X137335466Y-79346386D01*
X137397030Y-79535860D01*
X137397034Y-79535869D01*
X137397035Y-79535870D01*
X137487474Y-79713367D01*
X137487478Y-79713375D01*
X137604575Y-79874544D01*
X137604578Y-79874548D01*
X137745452Y-80015422D01*
X137745455Y-80015424D01*
X137906624Y-80132521D01*
X137906629Y-80132524D01*
X138014015Y-80187240D01*
X138071333Y-80238849D01*
X138095167Y-80312202D01*
X138079131Y-80387644D01*
X138027522Y-80444962D01*
X138014015Y-80452760D01*
X137906632Y-80507474D01*
X137906629Y-80507476D01*
X137745455Y-80624575D01*
X137604575Y-80765455D01*
X137487478Y-80926624D01*
X137487474Y-80926632D01*
X137397035Y-81104129D01*
X137397028Y-81104146D01*
X137335466Y-81293613D01*
X137333321Y-81307157D01*
X137304300Y-81490387D01*
X137304300Y-81689613D01*
X137335466Y-81886386D01*
X137397030Y-82075860D01*
X137397034Y-82075869D01*
X137397035Y-82075870D01*
X137487474Y-82253367D01*
X137487478Y-82253375D01*
X137603734Y-82413387D01*
X137604578Y-82414548D01*
X137745452Y-82555422D01*
X137745455Y-82555424D01*
X137906624Y-82672521D01*
X137906629Y-82672524D01*
X138014015Y-82727240D01*
X138071333Y-82778849D01*
X138095167Y-82852202D01*
X138079131Y-82927644D01*
X138027522Y-82984962D01*
X138014015Y-82992760D01*
X137906632Y-83047474D01*
X137906629Y-83047476D01*
X137745455Y-83164575D01*
X137604575Y-83305455D01*
X137487478Y-83466624D01*
X137487474Y-83466632D01*
X137397035Y-83644129D01*
X137397028Y-83644146D01*
X137363737Y-83746606D01*
X137335466Y-83833614D01*
X137304300Y-84030387D01*
X137304300Y-84229613D01*
X137335466Y-84426386D01*
X137397030Y-84615860D01*
X137397034Y-84615869D01*
X137397035Y-84615870D01*
X137487474Y-84793367D01*
X137487478Y-84793374D01*
X137538006Y-84862919D01*
X137565647Y-84934924D01*
X137553582Y-85011103D01*
X137505044Y-85071043D01*
X137433039Y-85098684D01*
X137417463Y-85099500D01*
X130827610Y-85099500D01*
X130753110Y-85079538D01*
X130722251Y-85055859D01*
X130208915Y-84542523D01*
X130170351Y-84475728D01*
X130166337Y-84419402D01*
X130175500Y-84343102D01*
X130175500Y-83456898D01*
X130164877Y-83368436D01*
X130109361Y-83227658D01*
X130061526Y-83164578D01*
X130017923Y-83107079D01*
X130017920Y-83107076D01*
X129963275Y-83065638D01*
X129897342Y-83015639D01*
X129897341Y-83015638D01*
X129756563Y-82960122D01*
X129668105Y-82949500D01*
X129668102Y-82949500D01*
X128331898Y-82949500D01*
X128331894Y-82949500D01*
X128243436Y-82960122D01*
X128102658Y-83015638D01*
X128102658Y-83015639D01*
X127982079Y-83107076D01*
X127982076Y-83107079D01*
X127890639Y-83227658D01*
X127890638Y-83227658D01*
X127835122Y-83368436D01*
X127832782Y-83377698D01*
X127831491Y-83377371D01*
X127806446Y-83439848D01*
X127745797Y-83487497D01*
X127687207Y-83499500D01*
X127340796Y-83499500D01*
X127266296Y-83479538D01*
X127211758Y-83425000D01*
X127192859Y-83368267D01*
X127192405Y-83364488D01*
X127189877Y-83343436D01*
X127134361Y-83202658D01*
X127099797Y-83157079D01*
X127042923Y-83082079D01*
X127042920Y-83082076D01*
X126955309Y-83015639D01*
X126922342Y-82990639D01*
X126922341Y-82990638D01*
X126781563Y-82935122D01*
X126693105Y-82924500D01*
X126693102Y-82924500D01*
X125306898Y-82924500D01*
X125306894Y-82924500D01*
X125218436Y-82935122D01*
X125077658Y-82990638D01*
X125077658Y-82990639D01*
X124957079Y-83082076D01*
X124957076Y-83082079D01*
X124865639Y-83202658D01*
X124865638Y-83202658D01*
X124810122Y-83343436D01*
X124801137Y-83418265D01*
X124772435Y-83489854D01*
X124711783Y-83537500D01*
X124653200Y-83549500D01*
X124312793Y-83549500D01*
X124238293Y-83529538D01*
X124183755Y-83475000D01*
X124167938Y-83427515D01*
X124167218Y-83427698D01*
X124164877Y-83418436D01*
X124109361Y-83277658D01*
X124017923Y-83157079D01*
X124017920Y-83157076D01*
X123970982Y-83121482D01*
X123897342Y-83065639D01*
X123897341Y-83065638D01*
X123756563Y-83010122D01*
X123668105Y-82999500D01*
X123668102Y-82999500D01*
X122331898Y-82999500D01*
X122331894Y-82999500D01*
X122243436Y-83010122D01*
X122102658Y-83065638D01*
X122102658Y-83065639D01*
X121982079Y-83157076D01*
X121982076Y-83157079D01*
X121890639Y-83277658D01*
X121890638Y-83277658D01*
X121835122Y-83418436D01*
X121824500Y-83506894D01*
X100500500Y-83506894D01*
X100500500Y-44878706D01*
X103149500Y-44878706D01*
X103149500Y-45121293D01*
X103181160Y-45361781D01*
X103181161Y-45361787D01*
X103181162Y-45361789D01*
X103243946Y-45596100D01*
X103336776Y-45820212D01*
X103458064Y-46030289D01*
X103605735Y-46222738D01*
X103777262Y-46394265D01*
X103969711Y-46541936D01*
X104179788Y-46663224D01*
X104403900Y-46756054D01*
X104638211Y-46818838D01*
X104638217Y-46818838D01*
X104638218Y-46818839D01*
X104703600Y-46827446D01*
X104878712Y-46850500D01*
X105121288Y-46850500D01*
X105361789Y-46818838D01*
X105596100Y-46756054D01*
X105820212Y-46663224D01*
X106030289Y-46541936D01*
X106222738Y-46394265D01*
X106394265Y-46222738D01*
X106541936Y-46030289D01*
X106663224Y-45820212D01*
X106756054Y-45596100D01*
X106818838Y-45361789D01*
X106850500Y-45121288D01*
X106850500Y-44878712D01*
X106850499Y-44878706D01*
X193149500Y-44878706D01*
X193149500Y-45121293D01*
X193181160Y-45361781D01*
X193181161Y-45361787D01*
X193181162Y-45361789D01*
X193243946Y-45596100D01*
X193336776Y-45820212D01*
X193458064Y-46030289D01*
X193605735Y-46222738D01*
X193777262Y-46394265D01*
X193969711Y-46541936D01*
X194179788Y-46663224D01*
X194403900Y-46756054D01*
X194638211Y-46818838D01*
X194638217Y-46818838D01*
X194638218Y-46818839D01*
X194703600Y-46827446D01*
X194878712Y-46850500D01*
X195121288Y-46850500D01*
X195361789Y-46818838D01*
X195596100Y-46756054D01*
X195820212Y-46663224D01*
X196030289Y-46541936D01*
X196222738Y-46394265D01*
X196394265Y-46222738D01*
X196541936Y-46030289D01*
X196663224Y-45820212D01*
X196756054Y-45596100D01*
X196818838Y-45361789D01*
X196850500Y-45121288D01*
X196850500Y-44878712D01*
X196818838Y-44638211D01*
X196756054Y-44403900D01*
X196663224Y-44179788D01*
X196541936Y-43969711D01*
X196394265Y-43777262D01*
X196222738Y-43605735D01*
X196030289Y-43458064D01*
X195960263Y-43417634D01*
X195820216Y-43336778D01*
X195820214Y-43336777D01*
X195820212Y-43336776D01*
X195688932Y-43282398D01*
X195596103Y-43243947D01*
X195596101Y-43243946D01*
X195596100Y-43243946D01*
X195361789Y-43181162D01*
X195361787Y-43181161D01*
X195361781Y-43181160D01*
X195121293Y-43149500D01*
X195121288Y-43149500D01*
X194878712Y-43149500D01*
X194878706Y-43149500D01*
X194638218Y-43181160D01*
X194403896Y-43243947D01*
X194179783Y-43336778D01*
X193969712Y-43458063D01*
X193969711Y-43458064D01*
X193777262Y-43605735D01*
X193777260Y-43605736D01*
X193777256Y-43605740D01*
X193605740Y-43777256D01*
X193458063Y-43969712D01*
X193336778Y-44179783D01*
X193243947Y-44403896D01*
X193181160Y-44638218D01*
X193149500Y-44878706D01*
X106850499Y-44878706D01*
X106818838Y-44638211D01*
X106756054Y-44403900D01*
X106663224Y-44179788D01*
X106541936Y-43969711D01*
X106394265Y-43777262D01*
X106222738Y-43605735D01*
X106030289Y-43458064D01*
X105960263Y-43417634D01*
X105820216Y-43336778D01*
X105820214Y-43336777D01*
X105820212Y-43336776D01*
X105688932Y-43282398D01*
X105596103Y-43243947D01*
X105596101Y-43243946D01*
X105596100Y-43243946D01*
X105361789Y-43181162D01*
X105361787Y-43181161D01*
X105361781Y-43181160D01*
X105121293Y-43149500D01*
X105121288Y-43149500D01*
X104878712Y-43149500D01*
X104878706Y-43149500D01*
X104638218Y-43181160D01*
X104403896Y-43243947D01*
X104179783Y-43336778D01*
X103969712Y-43458063D01*
X103969711Y-43458064D01*
X103777262Y-43605735D01*
X103777260Y-43605736D01*
X103777256Y-43605740D01*
X103605740Y-43777256D01*
X103458063Y-43969712D01*
X103336778Y-44179783D01*
X103243947Y-44403896D01*
X103181160Y-44638218D01*
X103149500Y-44878706D01*
X100500500Y-44878706D01*
X100500500Y-40649500D01*
X100520462Y-40575000D01*
X100575000Y-40520462D01*
X100649500Y-40500500D01*
X199350500Y-40500500D01*
X199425000Y-40520462D01*
G37*
%TD.AperFunction*%
%TD*%
M02*
