%TF.GenerationSoftware,KiCad,Pcbnew,10.0.1*%
%TF.CreationDate,2026-07-16T16:07:39+02:00*%
%TF.ProjectId,BirdNest_pcb,42697264-4e65-4737-945f-7063622e6b69,v2.0*%
%TF.SameCoordinates,Original*%
%TF.FileFunction,Copper,L2,Bot*%
%TF.FilePolarity,Positive*%
%FSLAX46Y46*%
G04 Gerber Fmt 4.6, Leading zero omitted, Abs format (unit mm)*
G04 Created by KiCad (PCBNEW 10.0.1) date 2026-07-16 16:07:39*
%MOMM*%
%LPD*%
G01*
G04 APERTURE LIST*
G04 Aperture macros list*
%AMRoundRect*
0 Rectangle with rounded corners*
0 $1 Rounding radius*
0 $2 $3 $4 $5 $6 $7 $8 $9 X,Y pos of 4 corners*
0 Add a 4 corners polygon primitive as box body*
4,1,4,$2,$3,$4,$5,$6,$7,$8,$9,$2,$3,0*
0 Add four circle primitives for the rounded corners*
1,1,$1+$1,$2,$3*
1,1,$1+$1,$4,$5*
1,1,$1+$1,$6,$7*
1,1,$1+$1,$8,$9*
0 Add four rect primitives between the rounded corners*
20,1,$1+$1,$2,$3,$4,$5,0*
20,1,$1+$1,$4,$5,$6,$7,0*
20,1,$1+$1,$6,$7,$8,$9,0*
20,1,$1+$1,$8,$9,$2,$3,0*%
G04 Aperture macros list end*
%TA.AperFunction,ComponentPad*%
%ADD10C,1.930400*%
%TD*%
%TA.AperFunction,ComponentPad*%
%ADD11R,1.700000X1.700000*%
%TD*%
%TA.AperFunction,ComponentPad*%
%ADD12C,1.700000*%
%TD*%
%TA.AperFunction,ComponentPad*%
%ADD13RoundRect,0.250000X0.550000X-0.550000X0.550000X0.550000X-0.550000X0.550000X-0.550000X-0.550000X0*%
%TD*%
%TA.AperFunction,ComponentPad*%
%ADD14C,1.600000*%
%TD*%
%TA.AperFunction,ComponentPad*%
%ADD15RoundRect,0.249999X0.850001X-0.850001X0.850001X0.850001X-0.850001X0.850001X-0.850001X-0.850001X0*%
%TD*%
%TA.AperFunction,ComponentPad*%
%ADD16C,2.200000*%
%TD*%
%TA.AperFunction,ComponentPad*%
%ADD17RoundRect,0.250000X-0.550000X0.550000X-0.550000X-0.550000X0.550000X-0.550000X0.550000X0.550000X0*%
%TD*%
%TA.AperFunction,ComponentPad*%
%ADD18RoundRect,0.250000X-0.550000X-0.550000X0.550000X-0.550000X0.550000X0.550000X-0.550000X0.550000X0*%
%TD*%
%TA.AperFunction,ComponentPad*%
%ADD19R,1.500000X1.050000*%
%TD*%
%TA.AperFunction,ComponentPad*%
%ADD20O,1.500000X1.050000*%
%TD*%
%TA.AperFunction,ComponentPad*%
%ADD21R,1.905000X2.000000*%
%TD*%
%TA.AperFunction,ComponentPad*%
%ADD22O,1.905000X2.000000*%
%TD*%
%TA.AperFunction,ComponentPad*%
%ADD23RoundRect,0.250000X0.550000X0.550000X-0.550000X0.550000X-0.550000X-0.550000X0.550000X-0.550000X0*%
%TD*%
%TA.AperFunction,ComponentPad*%
%ADD24C,2.000000*%
%TD*%
%TA.AperFunction,ComponentPad*%
%ADD25RoundRect,0.250000X1.050000X-1.050000X1.050000X1.050000X-1.050000X1.050000X-1.050000X-1.050000X0*%
%TD*%
%TA.AperFunction,ComponentPad*%
%ADD26C,2.600000*%
%TD*%
G04 APERTURE END LIST*
D10*
%TO.P,U4,3V3,3V3_3V3*%
%TO.N,/+3V3*%
X138570000Y-84130000D03*
%TO.P,U4,5V,5V_5V*%
%TO.N,/+5V*%
X161430000Y-84130000D03*
%TO.P,U4,GND,GND_GND*%
%TO.N,unconnected-(U4-PadGND)*%
X138570000Y-76510000D03*
%TO.P,U4,GND1,GND1_GND1*%
%TO.N,unconnected-(U4-PadGND1)*%
X138570000Y-66350000D03*
%TO.P,U4,GND2,GND2_GND2*%
%TO.N,GND*%
X161430000Y-81590000D03*
%TO.P,U4,IO0,IO0_IO0*%
%TO.N,unconnected-(U4-PadIO0)*%
X138570000Y-79050000D03*
%TO.P,U4,IO2,IO2_IO2*%
%TO.N,unconnected-(U4-PadIO2)*%
X161430000Y-68890000D03*
%TO.P,U4,IO4,IO4_IO4*%
%TO.N,unconnected-(U4-PadIO4)*%
X161430000Y-66350000D03*
%TO.P,U4,IO12,IO12_IO12*%
%TO.N,/BAT_MON*%
X161430000Y-79050000D03*
%TO.P,U4,IO13,IO13_IO13*%
%TO.N,Net-(JP3-C)*%
X161430000Y-76510000D03*
%TO.P,U4,IO14,IO14_IO14*%
%TO.N,unconnected-(U4-PadIO14)*%
X161430000Y-71430000D03*
%TO.P,U4,IO15,IO15_IO15*%
%TO.N,unconnected-(U4-PadIO15)*%
X161430000Y-73970000D03*
%TO.P,U4,IO16,IO16_IO16*%
%TO.N,unconnected-(U4-PadIO16)*%
X138570000Y-81590000D03*
%TO.P,U4,U0R,U0R_U0R*%
%TO.N,unconnected-(U4-PadU0R)*%
X138570000Y-71430000D03*
%TO.P,U4,U0T,U0T_U0T*%
%TO.N,unconnected-(U4-PadU0T)*%
X138570000Y-68890000D03*
%TO.P,U4,VOUT,VOUT_VOUT*%
%TO.N,unconnected-(U4-PadVOUT)*%
X138570000Y-73970000D03*
%TD*%
D11*
%TO.P,JP3,1,A_1*%
%TO.N,/PIR. SIG.*%
X170500000Y-68000000D03*
D12*
%TO.P,JP3,2,C_2*%
%TO.N,Net-(JP3-C)*%
X170500000Y-65460000D03*
%TO.P,JP3,3,B_3*%
%TO.N,/TEMP. SIG.*%
X170500000Y-62920000D03*
%TD*%
D13*
%TO.P,C6,1*%
%TO.N,/SYS_PWR*%
X167500000Y-112182380D03*
D14*
%TO.P,C6,2*%
%TO.N,GND*%
X167500000Y-109682380D03*
%TD*%
D11*
%TO.P,JP7,1,A_1*%
%TO.N,GND*%
X127500000Y-92725000D03*
D12*
%TO.P,JP7,2,B_2*%
%TO.N,/UVLO_GATE*%
X127500000Y-95265000D03*
%TD*%
D15*
%TO.P,D1,1,K_1*%
%TO.N,/SYS_PWR*%
X181000000Y-112580000D03*
D16*
%TO.P,D1,2,A_2*%
%TO.N,Net-(D1-A)*%
X181000000Y-102420000D03*
%TD*%
D17*
%TO.P,U7,1*%
%TO.N,/UVLO_GATE*%
X124540000Y-99695000D03*
D14*
%TO.P,U7,2,-_2*%
%TO.N,/UVLO_SENSE*%
X122000000Y-99695000D03*
%TO.P,U7,3,+_3*%
%TO.N,Net-(U7A-+)*%
X119460000Y-99695000D03*
%TO.P,U7,4,V-_4*%
%TO.N,GND*%
X116920000Y-99695000D03*
%TO.P,U7,5,+_5*%
X116920000Y-107315000D03*
%TO.P,U7,6,-_6*%
X119460000Y-107315000D03*
%TO.P,U7,7*%
%TO.N,unconnected-(U7-Pad7)*%
X122000000Y-107315000D03*
%TO.P,U7,8,V+_8*%
%TO.N,/BAT_RAW*%
X124540000Y-107315000D03*
%TD*%
D18*
%TO.P,C2,1*%
%TO.N,/+5V*%
X166567621Y-77000000D03*
D14*
%TO.P,C2,2*%
%TO.N,GND*%
X169067621Y-77000000D03*
%TD*%
D19*
%TO.P,U1,1,GND_1*%
%TO.N,GND*%
X179360000Y-58020000D03*
D20*
%TO.P,U1,2,DQ_2*%
%TO.N,/TEMP. SIG.*%
X179360000Y-56750000D03*
%TO.P,U1,3,V_{DD}_3*%
%TO.N,/+3V3*%
X179360000Y-55480000D03*
%TD*%
D21*
%TO.P,Q6,1,G_1*%
%TO.N,/UVLO_GATE*%
X132500000Y-94000000D03*
D22*
%TO.P,Q6,2,D_2*%
%TO.N,/SYS_BATT_SW*%
X135040000Y-94000000D03*
%TO.P,Q6,3,S_3*%
%TO.N,/BAT_RAW*%
X137580000Y-94000000D03*
%TD*%
D23*
%TO.P,C12,1*%
%TO.N,/+5V*%
X148182380Y-97000000D03*
D14*
%TO.P,C12,2*%
%TO.N,GND*%
X145682380Y-97000000D03*
%TD*%
D24*
%TO.P,U2,1,IN+_1*%
%TO.N,Net-(D1-A)*%
X196005000Y-97095000D03*
%TO.P,U2,2,IN-_2*%
%TO.N,Net-(J3-Pin_2)*%
X196005000Y-83095000D03*
%TO.P,U2,3,OUT+_3*%
%TO.N,unconnected-(U2-OUT+-Pad3)*%
X173005000Y-97095000D03*
%TO.P,U2,4,OUT-_4*%
%TO.N,unconnected-(U2-OUT--Pad4)*%
X173005000Y-83095000D03*
%TO.P,U2,5,BAT+_5*%
%TO.N,+BATT*%
X173005000Y-94555000D03*
%TO.P,U2,6,BAT-_6*%
%TO.N,GND*%
X173005000Y-85635000D03*
%TD*%
D25*
%TO.P,J3,1,Pin_1_1*%
%TO.N,Net-(D1-A)*%
X189672500Y-110545000D03*
D26*
%TO.P,J3,2,Pin_2_2*%
%TO.N,Net-(J3-Pin_2)*%
X189672500Y-105465000D03*
%TD*%
D25*
%TO.P,J2,1,Pin_1_1*%
%TO.N,/+5V*%
X190000000Y-76000000D03*
D26*
%TO.P,J2,2,Pin_2_2*%
%TO.N,/PIR. SIG.*%
X190000000Y-70920000D03*
%TO.P,J2,3,Pin_3_3*%
%TO.N,GND*%
X190000000Y-65840000D03*
%TD*%
%TA.AperFunction,Conductor*%
%TO.N,GND*%
G36*
X199425000Y-40520462D02*
G01*
X199479538Y-40575000D01*
X199499500Y-40649500D01*
X199499500Y-139350500D01*
X199479538Y-139425000D01*
X199425000Y-139479538D01*
X199350500Y-139499500D01*
X100649500Y-139499500D01*
X100575000Y-139479538D01*
X100520462Y-139425000D01*
X100500500Y-139350500D01*
X100500500Y-134878706D01*
X103149500Y-134878706D01*
X103149500Y-135121293D01*
X103181160Y-135361781D01*
X103181161Y-135361787D01*
X103181162Y-135361789D01*
X103243946Y-135596100D01*
X103336776Y-135820212D01*
X103458064Y-136030289D01*
X103605735Y-136222738D01*
X103777262Y-136394265D01*
X103969711Y-136541936D01*
X104179788Y-136663224D01*
X104403900Y-136756054D01*
X104638211Y-136818838D01*
X104638217Y-136818838D01*
X104638218Y-136818839D01*
X104703600Y-136827446D01*
X104878712Y-136850500D01*
X105121288Y-136850500D01*
X105361789Y-136818838D01*
X105596100Y-136756054D01*
X105820212Y-136663224D01*
X106030289Y-136541936D01*
X106222738Y-136394265D01*
X106394265Y-136222738D01*
X106541936Y-136030289D01*
X106663224Y-135820212D01*
X106756054Y-135596100D01*
X106818838Y-135361789D01*
X106850500Y-135121288D01*
X106850500Y-134878712D01*
X106818838Y-134638211D01*
X106756054Y-134403900D01*
X106663224Y-134179788D01*
X106541936Y-133969711D01*
X106465819Y-133870513D01*
X119824500Y-133870513D01*
X119824500Y-134129486D01*
X119858298Y-134386212D01*
X119858301Y-134386229D01*
X119925322Y-134636361D01*
X119997694Y-134811079D01*
X120024426Y-134875616D01*
X120153907Y-135099884D01*
X120311553Y-135305333D01*
X120494667Y-135488447D01*
X120700116Y-135646093D01*
X120924384Y-135775574D01*
X121099097Y-135847943D01*
X121163638Y-135874677D01*
X121330392Y-135919357D01*
X121413772Y-135941699D01*
X121670519Y-135975500D01*
X121929481Y-135975500D01*
X122186228Y-135941699D01*
X122317743Y-135906459D01*
X122436361Y-135874677D01*
X122436366Y-135874675D01*
X122675616Y-135775574D01*
X122899884Y-135646093D01*
X123105333Y-135488447D01*
X123288447Y-135305333D01*
X123446093Y-135099884D01*
X123575574Y-134875616D01*
X123674675Y-134636366D01*
X123674675Y-134636365D01*
X123674677Y-134636361D01*
X123706459Y-134517743D01*
X123741699Y-134386228D01*
X123775500Y-134129481D01*
X123775500Y-133870519D01*
X123775499Y-133870513D01*
X147524500Y-133870513D01*
X147524500Y-134129486D01*
X147558298Y-134386212D01*
X147558301Y-134386229D01*
X147625322Y-134636361D01*
X147697694Y-134811079D01*
X147724426Y-134875616D01*
X147853907Y-135099884D01*
X148011553Y-135305333D01*
X148194667Y-135488447D01*
X148400116Y-135646093D01*
X148624384Y-135775574D01*
X148799097Y-135847943D01*
X148863638Y-135874677D01*
X149030392Y-135919357D01*
X149113772Y-135941699D01*
X149370519Y-135975500D01*
X149629481Y-135975500D01*
X149886228Y-135941699D01*
X150017743Y-135906459D01*
X150136361Y-135874677D01*
X150136366Y-135874675D01*
X150375616Y-135775574D01*
X150599884Y-135646093D01*
X150805333Y-135488447D01*
X150988447Y-135305333D01*
X151146093Y-135099884D01*
X151273790Y-134878706D01*
X193149500Y-134878706D01*
X193149500Y-135121293D01*
X193181160Y-135361781D01*
X193181161Y-135361787D01*
X193181162Y-135361789D01*
X193243946Y-135596100D01*
X193336776Y-135820212D01*
X193458064Y-136030289D01*
X193605735Y-136222738D01*
X193777262Y-136394265D01*
X193969711Y-136541936D01*
X194179788Y-136663224D01*
X194403900Y-136756054D01*
X194638211Y-136818838D01*
X194638217Y-136818838D01*
X194638218Y-136818839D01*
X194703600Y-136827446D01*
X194878712Y-136850500D01*
X195121288Y-136850500D01*
X195361789Y-136818838D01*
X195596100Y-136756054D01*
X195820212Y-136663224D01*
X196030289Y-136541936D01*
X196222738Y-136394265D01*
X196394265Y-136222738D01*
X196541936Y-136030289D01*
X196663224Y-135820212D01*
X196756054Y-135596100D01*
X196818838Y-135361789D01*
X196850500Y-135121288D01*
X196850500Y-134878712D01*
X196818838Y-134638211D01*
X196756054Y-134403900D01*
X196663224Y-134179788D01*
X196541936Y-133969711D01*
X196394265Y-133777262D01*
X196222738Y-133605735D01*
X196030289Y-133458064D01*
X195960263Y-133417634D01*
X195820216Y-133336778D01*
X195820214Y-133336777D01*
X195820212Y-133336776D01*
X195688932Y-133282398D01*
X195596103Y-133243947D01*
X195596101Y-133243946D01*
X195596100Y-133243946D01*
X195361789Y-133181162D01*
X195361787Y-133181161D01*
X195361781Y-133181160D01*
X195121293Y-133149500D01*
X195121288Y-133149500D01*
X194878712Y-133149500D01*
X194878706Y-133149500D01*
X194638218Y-133181160D01*
X194403896Y-133243947D01*
X194179783Y-133336778D01*
X193969712Y-133458063D01*
X193969711Y-133458064D01*
X193777262Y-133605735D01*
X193777260Y-133605736D01*
X193777256Y-133605740D01*
X193605740Y-133777256D01*
X193458063Y-133969712D01*
X193336778Y-134179783D01*
X193243947Y-134403896D01*
X193181160Y-134638218D01*
X193149500Y-134878706D01*
X151273790Y-134878706D01*
X151275574Y-134875616D01*
X151374675Y-134636366D01*
X151441699Y-134386228D01*
X151475500Y-134129481D01*
X151475500Y-133870519D01*
X151441699Y-133613772D01*
X151419357Y-133530392D01*
X151374677Y-133363638D01*
X151285977Y-133149500D01*
X151275574Y-133124384D01*
X151146093Y-132900116D01*
X150988447Y-132694667D01*
X150805333Y-132511553D01*
X150599884Y-132353907D01*
X150525128Y-132310746D01*
X150375620Y-132224428D01*
X150375618Y-132224427D01*
X150375616Y-132224426D01*
X150311079Y-132197694D01*
X150136361Y-132125322D01*
X149886229Y-132058301D01*
X149886212Y-132058298D01*
X149629486Y-132024500D01*
X149629481Y-132024500D01*
X149370519Y-132024500D01*
X149370513Y-132024500D01*
X149113787Y-132058298D01*
X149113770Y-132058301D01*
X148863638Y-132125322D01*
X148624379Y-132224428D01*
X148400117Y-132353906D01*
X148194665Y-132511554D01*
X148011554Y-132694665D01*
X147853906Y-132900117D01*
X147724428Y-133124379D01*
X147625322Y-133363638D01*
X147558301Y-133613770D01*
X147558298Y-133613787D01*
X147524500Y-133870513D01*
X123775499Y-133870513D01*
X123741699Y-133613772D01*
X123719357Y-133530392D01*
X123674677Y-133363638D01*
X123585977Y-133149500D01*
X123575574Y-133124384D01*
X123446093Y-132900116D01*
X123288447Y-132694667D01*
X123105333Y-132511553D01*
X122899884Y-132353907D01*
X122825128Y-132310746D01*
X122675620Y-132224428D01*
X122675618Y-132224427D01*
X122675616Y-132224426D01*
X122611079Y-132197694D01*
X122436361Y-132125322D01*
X122186229Y-132058301D01*
X122186212Y-132058298D01*
X121929486Y-132024500D01*
X121929481Y-132024500D01*
X121670519Y-132024500D01*
X121670513Y-132024500D01*
X121413787Y-132058298D01*
X121413770Y-132058301D01*
X121163638Y-132125322D01*
X120924379Y-132224428D01*
X120700117Y-132353906D01*
X120494665Y-132511554D01*
X120311554Y-132694665D01*
X120153906Y-132900117D01*
X120024428Y-133124379D01*
X119925322Y-133363638D01*
X119858301Y-133613770D01*
X119858298Y-133613787D01*
X119824500Y-133870513D01*
X106465819Y-133870513D01*
X106394265Y-133777262D01*
X106222738Y-133605735D01*
X106030289Y-133458064D01*
X105960263Y-133417634D01*
X105820216Y-133336778D01*
X105820214Y-133336777D01*
X105820212Y-133336776D01*
X105688932Y-133282398D01*
X105596103Y-133243947D01*
X105596101Y-133243946D01*
X105596100Y-133243946D01*
X105361789Y-133181162D01*
X105361787Y-133181161D01*
X105361781Y-133181160D01*
X105121293Y-133149500D01*
X105121288Y-133149500D01*
X104878712Y-133149500D01*
X104878706Y-133149500D01*
X104638218Y-133181160D01*
X104403896Y-133243947D01*
X104179783Y-133336778D01*
X103969712Y-133458063D01*
X103969711Y-133458064D01*
X103777262Y-133605735D01*
X103777260Y-133605736D01*
X103777256Y-133605740D01*
X103605740Y-133777256D01*
X103458063Y-133969712D01*
X103336778Y-134179783D01*
X103243947Y-134403896D01*
X103181160Y-134638218D01*
X103149500Y-134878706D01*
X100500500Y-134878706D01*
X100500500Y-117886237D01*
X112134500Y-117886237D01*
X112134500Y-118113763D01*
X112150319Y-118213641D01*
X112170093Y-118338494D01*
X112230239Y-118523603D01*
X112240402Y-118554879D01*
X112281919Y-118636361D01*
X112343698Y-118757608D01*
X112343699Y-118757611D01*
X112477431Y-118941676D01*
X112477434Y-118941680D01*
X112638320Y-119102566D01*
X112638323Y-119102568D01*
X112822388Y-119236300D01*
X112822389Y-119236300D01*
X112822393Y-119236303D01*
X113025121Y-119339598D01*
X113241505Y-119409905D01*
X113241505Y-119409906D01*
X113241510Y-119409906D01*
X113241511Y-119409907D01*
X113466237Y-119445500D01*
X113466241Y-119445500D01*
X113693759Y-119445500D01*
X113693763Y-119445500D01*
X113918489Y-119409907D01*
X113918490Y-119409906D01*
X113918494Y-119409906D01*
X113918494Y-119409905D01*
X114134879Y-119339598D01*
X114337607Y-119236303D01*
X114521680Y-119102566D01*
X114682566Y-118941680D01*
X114816303Y-118757607D01*
X114919598Y-118554879D01*
X114989905Y-118338494D01*
X114989906Y-118338494D01*
X114989907Y-118338489D01*
X115025500Y-118113763D01*
X115025500Y-117886237D01*
X115023010Y-117870513D01*
X147524500Y-117870513D01*
X147524500Y-118129486D01*
X147558298Y-118386212D01*
X147558301Y-118386229D01*
X147625322Y-118636361D01*
X147697694Y-118811079D01*
X147724426Y-118875616D01*
X147853907Y-119099884D01*
X148011553Y-119305333D01*
X148194667Y-119488447D01*
X148400116Y-119646093D01*
X148624384Y-119775574D01*
X148799097Y-119847943D01*
X148863638Y-119874677D01*
X149030392Y-119919357D01*
X149113772Y-119941699D01*
X149370519Y-119975500D01*
X149629481Y-119975500D01*
X149886228Y-119941699D01*
X150017743Y-119906459D01*
X150136361Y-119874677D01*
X150136366Y-119874675D01*
X150375616Y-119775574D01*
X150599884Y-119646093D01*
X150805333Y-119488447D01*
X150988447Y-119305333D01*
X151146093Y-119099884D01*
X151275574Y-118875616D01*
X151374675Y-118636366D01*
X151374675Y-118636365D01*
X151374677Y-118636361D01*
X151406459Y-118517743D01*
X151441699Y-118386228D01*
X151475500Y-118129481D01*
X151475500Y-117870519D01*
X151475499Y-117870513D01*
X175024500Y-117870513D01*
X175024500Y-118129486D01*
X175058298Y-118386212D01*
X175058301Y-118386229D01*
X175125322Y-118636361D01*
X175197694Y-118811079D01*
X175224426Y-118875616D01*
X175353907Y-119099884D01*
X175511553Y-119305333D01*
X175694667Y-119488447D01*
X175900116Y-119646093D01*
X176124384Y-119775574D01*
X176299097Y-119847943D01*
X176363638Y-119874677D01*
X176530392Y-119919357D01*
X176613772Y-119941699D01*
X176870519Y-119975500D01*
X177129481Y-119975500D01*
X177386228Y-119941699D01*
X177517743Y-119906459D01*
X177636361Y-119874677D01*
X177636366Y-119874675D01*
X177875616Y-119775574D01*
X178099884Y-119646093D01*
X178305333Y-119488447D01*
X178488447Y-119305333D01*
X178646093Y-119099884D01*
X178775574Y-118875616D01*
X178874675Y-118636366D01*
X178874675Y-118636365D01*
X178874677Y-118636361D01*
X178906459Y-118517743D01*
X178941699Y-118386228D01*
X178975500Y-118129481D01*
X178975500Y-117870519D01*
X178941699Y-117613772D01*
X178896511Y-117445127D01*
X178874677Y-117363638D01*
X178824453Y-117242388D01*
X178775574Y-117124384D01*
X178646093Y-116900116D01*
X178488447Y-116694667D01*
X178305333Y-116511553D01*
X178099884Y-116353907D01*
X178025128Y-116310746D01*
X177875620Y-116224428D01*
X177875618Y-116224427D01*
X177875616Y-116224426D01*
X177811079Y-116197694D01*
X177636361Y-116125322D01*
X177386229Y-116058301D01*
X177386212Y-116058298D01*
X177129486Y-116024500D01*
X177129481Y-116024500D01*
X176870519Y-116024500D01*
X176870513Y-116024500D01*
X176613787Y-116058298D01*
X176613770Y-116058301D01*
X176363638Y-116125322D01*
X176124379Y-116224428D01*
X175900117Y-116353906D01*
X175694665Y-116511554D01*
X175511554Y-116694665D01*
X175353906Y-116900117D01*
X175224428Y-117124379D01*
X175125322Y-117363638D01*
X175058301Y-117613770D01*
X175058298Y-117613787D01*
X175024500Y-117870513D01*
X151475499Y-117870513D01*
X151441699Y-117613772D01*
X151396511Y-117445127D01*
X151374677Y-117363638D01*
X151324453Y-117242388D01*
X151275574Y-117124384D01*
X151146093Y-116900116D01*
X150988447Y-116694667D01*
X150805333Y-116511553D01*
X150599884Y-116353907D01*
X150525128Y-116310746D01*
X150375620Y-116224428D01*
X150375618Y-116224427D01*
X150375616Y-116224426D01*
X150311079Y-116197694D01*
X150136361Y-116125322D01*
X149886229Y-116058301D01*
X149886212Y-116058298D01*
X149629486Y-116024500D01*
X149629481Y-116024500D01*
X149370519Y-116024500D01*
X149370513Y-116024500D01*
X149113787Y-116058298D01*
X149113770Y-116058301D01*
X148863638Y-116125322D01*
X148624379Y-116224428D01*
X148400117Y-116353906D01*
X148194665Y-116511554D01*
X148011554Y-116694665D01*
X147853906Y-116900117D01*
X147724428Y-117124379D01*
X147625322Y-117363638D01*
X147558301Y-117613770D01*
X147558298Y-117613787D01*
X147524500Y-117870513D01*
X115023010Y-117870513D01*
X114989907Y-117661511D01*
X114989906Y-117661510D01*
X114989906Y-117661505D01*
X114954752Y-117553316D01*
X114919598Y-117445121D01*
X114816303Y-117242393D01*
X114816300Y-117242389D01*
X114816300Y-117242388D01*
X114682568Y-117058323D01*
X114682566Y-117058320D01*
X114521680Y-116897434D01*
X114521676Y-116897431D01*
X114337611Y-116763699D01*
X114337608Y-116763698D01*
X114337609Y-116763698D01*
X114337607Y-116763697D01*
X114134879Y-116660402D01*
X114068822Y-116638938D01*
X113918494Y-116590094D01*
X113918494Y-116590093D01*
X113793641Y-116570319D01*
X113693763Y-116554500D01*
X113466237Y-116554500D01*
X113376346Y-116568737D01*
X113241505Y-116590093D01*
X113241505Y-116590094D01*
X113025127Y-116660400D01*
X113025121Y-116660402D01*
X113025115Y-116660404D01*
X113025115Y-116660405D01*
X112822391Y-116763698D01*
X112822388Y-116763699D01*
X112638323Y-116897431D01*
X112477431Y-117058323D01*
X112343699Y-117242388D01*
X112343698Y-117242391D01*
X112240405Y-117445115D01*
X112240400Y-117445127D01*
X112170094Y-117661505D01*
X112170093Y-117661505D01*
X112146364Y-117811328D01*
X112134500Y-117886237D01*
X100500500Y-117886237D01*
X100500500Y-111589274D01*
X166399500Y-111589274D01*
X166399500Y-112775485D01*
X166410122Y-112863943D01*
X166465638Y-113004721D01*
X166465639Y-113004722D01*
X166557078Y-113125302D01*
X166677658Y-113216741D01*
X166818436Y-113272257D01*
X166906898Y-113282880D01*
X166906899Y-113282880D01*
X168093101Y-113282880D01*
X168093102Y-113282880D01*
X168181564Y-113272257D01*
X168322342Y-113216741D01*
X168442922Y-113125302D01*
X168534361Y-113004722D01*
X168589877Y-112863944D01*
X168600500Y-112775482D01*
X168600500Y-111686893D01*
X179599500Y-111686893D01*
X179599500Y-113473097D01*
X179599501Y-113473108D01*
X179610122Y-113561560D01*
X179610124Y-113561569D01*
X179665638Y-113702342D01*
X179665639Y-113702343D01*
X179757077Y-113822923D01*
X179877657Y-113914361D01*
X180018435Y-113969877D01*
X180106897Y-113980500D01*
X181893102Y-113980499D01*
X181981565Y-113969877D01*
X182122343Y-113914361D01*
X182242923Y-113822923D01*
X182334361Y-113702343D01*
X182389877Y-113561565D01*
X182400500Y-113473103D01*
X182400499Y-111686898D01*
X182389877Y-111598435D01*
X182334361Y-111457657D01*
X182242923Y-111337077D01*
X182122343Y-111245639D01*
X182122341Y-111245638D01*
X182122342Y-111245638D01*
X181981564Y-111190122D01*
X181893103Y-111179500D01*
X180106902Y-111179500D01*
X180106891Y-111179501D01*
X180018439Y-111190122D01*
X180018430Y-111190124D01*
X179877657Y-111245638D01*
X179757077Y-111337076D01*
X179757076Y-111337077D01*
X179665638Y-111457657D01*
X179610122Y-111598435D01*
X179599500Y-111686893D01*
X168600500Y-111686893D01*
X168600500Y-111589278D01*
X168589877Y-111500816D01*
X168534361Y-111360038D01*
X168447609Y-111245639D01*
X168442923Y-111239459D01*
X168442920Y-111239456D01*
X168395982Y-111203862D01*
X168322342Y-111148019D01*
X168322341Y-111148018D01*
X168181563Y-111092502D01*
X168093105Y-111081880D01*
X168093102Y-111081880D01*
X166906898Y-111081880D01*
X166906894Y-111081880D01*
X166818436Y-111092502D01*
X166677658Y-111148018D01*
X166677658Y-111148019D01*
X166557079Y-111239456D01*
X166557076Y-111239459D01*
X166465639Y-111360038D01*
X166465638Y-111360038D01*
X166410122Y-111500816D01*
X166399500Y-111589274D01*
X100500500Y-111589274D01*
X100500500Y-109595812D01*
X166400000Y-109595812D01*
X166400000Y-109768947D01*
X166427086Y-109939966D01*
X166480590Y-110104633D01*
X166559197Y-110258906D01*
X166593464Y-110306071D01*
X166593465Y-110306071D01*
X167113629Y-109785906D01*
X167127259Y-109836774D01*
X167179920Y-109927986D01*
X167254394Y-110002460D01*
X167345606Y-110055121D01*
X167396471Y-110068750D01*
X166876307Y-110588914D01*
X166923472Y-110623182D01*
X166923473Y-110623183D01*
X167077746Y-110701789D01*
X167242413Y-110755293D01*
X167413433Y-110782380D01*
X167586567Y-110782380D01*
X167757586Y-110755293D01*
X167922253Y-110701789D01*
X168076525Y-110623184D01*
X168123691Y-110588914D01*
X168123691Y-110588913D01*
X167603528Y-110068750D01*
X167654394Y-110055121D01*
X167745606Y-110002460D01*
X167820080Y-109927986D01*
X167872741Y-109836774D01*
X167886370Y-109785908D01*
X168406533Y-110306071D01*
X168406534Y-110306071D01*
X168440804Y-110258905D01*
X168519409Y-110104633D01*
X168572913Y-109939966D01*
X168600000Y-109768947D01*
X168600000Y-109595811D01*
X168580193Y-109470753D01*
X168580193Y-109470749D01*
X168577207Y-109451894D01*
X188072000Y-109451894D01*
X188072000Y-111638105D01*
X188082622Y-111726563D01*
X188138138Y-111867341D01*
X188138139Y-111867342D01*
X188229578Y-111987922D01*
X188350158Y-112079361D01*
X188490936Y-112134877D01*
X188579398Y-112145500D01*
X188579399Y-112145500D01*
X190765601Y-112145500D01*
X190765602Y-112145500D01*
X190854064Y-112134877D01*
X190994842Y-112079361D01*
X191115422Y-111987922D01*
X191206861Y-111867342D01*
X191262377Y-111726564D01*
X191273000Y-111638102D01*
X191273000Y-109451898D01*
X191262377Y-109363436D01*
X191206861Y-109222658D01*
X191115422Y-109102078D01*
X191115420Y-109102076D01*
X191068482Y-109066482D01*
X190994842Y-109010639D01*
X190994841Y-109010638D01*
X190854063Y-108955122D01*
X190765605Y-108944500D01*
X190765602Y-108944500D01*
X188579398Y-108944500D01*
X188579394Y-108944500D01*
X188490936Y-108955122D01*
X188350158Y-109010638D01*
X188350158Y-109010639D01*
X188229579Y-109102076D01*
X188229576Y-109102079D01*
X188138139Y-109222658D01*
X188138138Y-109222658D01*
X188082622Y-109363436D01*
X188072000Y-109451894D01*
X168577207Y-109451894D01*
X168572916Y-109424806D01*
X168572913Y-109424793D01*
X168519409Y-109260126D01*
X168440803Y-109105853D01*
X168440802Y-109105852D01*
X168406534Y-109058687D01*
X167886370Y-109578850D01*
X167872741Y-109527986D01*
X167820080Y-109436774D01*
X167745606Y-109362300D01*
X167654394Y-109309639D01*
X167603526Y-109296009D01*
X168123691Y-108775845D01*
X168123691Y-108775844D01*
X168076526Y-108741577D01*
X168076526Y-108741576D01*
X167922253Y-108662970D01*
X167757586Y-108609466D01*
X167586567Y-108582380D01*
X167413433Y-108582380D01*
X167242413Y-108609466D01*
X167077746Y-108662970D01*
X166923477Y-108741575D01*
X166876307Y-108775845D01*
X167396471Y-109296009D01*
X167345606Y-109309639D01*
X167254394Y-109362300D01*
X167179920Y-109436774D01*
X167127259Y-109527986D01*
X167113629Y-109578851D01*
X166593465Y-109058687D01*
X166559195Y-109105857D01*
X166480590Y-109260126D01*
X166427086Y-109424793D01*
X166400000Y-109595812D01*
X100500500Y-109595812D01*
X100500500Y-107228432D01*
X115820000Y-107228432D01*
X115820000Y-107401567D01*
X115847086Y-107572586D01*
X115900590Y-107737253D01*
X115979197Y-107891526D01*
X116013464Y-107938691D01*
X116013465Y-107938691D01*
X116533629Y-107418526D01*
X116547259Y-107469394D01*
X116599920Y-107560606D01*
X116674394Y-107635080D01*
X116765606Y-107687741D01*
X116816471Y-107701370D01*
X116296307Y-108221534D01*
X116343472Y-108255802D01*
X116343473Y-108255803D01*
X116497746Y-108334409D01*
X116662413Y-108387913D01*
X116833433Y-108415000D01*
X117006567Y-108415000D01*
X117177586Y-108387913D01*
X117342253Y-108334409D01*
X117496525Y-108255804D01*
X117543691Y-108221534D01*
X117543691Y-108221533D01*
X117023528Y-107701370D01*
X117074394Y-107687741D01*
X117165606Y-107635080D01*
X117240080Y-107560606D01*
X117292741Y-107469394D01*
X117306370Y-107418528D01*
X117826533Y-107938691D01*
X117826534Y-107938691D01*
X117860804Y-107891525D01*
X117939409Y-107737253D01*
X117992913Y-107572586D01*
X118020000Y-107401567D01*
X118020000Y-107228432D01*
X118360000Y-107228432D01*
X118360000Y-107401567D01*
X118387086Y-107572586D01*
X118440590Y-107737253D01*
X118519197Y-107891526D01*
X118553464Y-107938691D01*
X118553465Y-107938691D01*
X119073629Y-107418526D01*
X119087259Y-107469394D01*
X119139920Y-107560606D01*
X119214394Y-107635080D01*
X119305606Y-107687741D01*
X119356471Y-107701370D01*
X118836307Y-108221534D01*
X118883472Y-108255802D01*
X118883473Y-108255803D01*
X119037746Y-108334409D01*
X119202413Y-108387913D01*
X119373433Y-108415000D01*
X119546567Y-108415000D01*
X119717586Y-108387913D01*
X119882253Y-108334409D01*
X120036525Y-108255804D01*
X120083691Y-108221534D01*
X120083691Y-108221533D01*
X119563528Y-107701370D01*
X119614394Y-107687741D01*
X119705606Y-107635080D01*
X119780080Y-107560606D01*
X119832741Y-107469394D01*
X119846370Y-107418528D01*
X120366533Y-107938691D01*
X120366534Y-107938691D01*
X120400804Y-107891525D01*
X120479409Y-107737253D01*
X120532913Y-107572586D01*
X120560000Y-107401567D01*
X120560000Y-107228432D01*
X120559993Y-107228389D01*
X120899500Y-107228389D01*
X120899500Y-107401611D01*
X120910236Y-107469394D01*
X120926597Y-107572700D01*
X120946866Y-107635080D01*
X120980127Y-107737445D01*
X120980130Y-107737450D01*
X121058771Y-107891793D01*
X121092845Y-107938691D01*
X121160586Y-108031928D01*
X121283072Y-108154414D01*
X121283075Y-108154416D01*
X121422622Y-108255804D01*
X121423212Y-108256232D01*
X121577555Y-108334873D01*
X121742299Y-108388402D01*
X121913389Y-108415500D01*
X121913393Y-108415500D01*
X122086607Y-108415500D01*
X122086611Y-108415500D01*
X122257701Y-108388402D01*
X122422445Y-108334873D01*
X122576788Y-108256232D01*
X122716928Y-108154414D01*
X122839414Y-108031928D01*
X122941232Y-107891788D01*
X123019873Y-107737445D01*
X123073402Y-107572701D01*
X123100500Y-107401611D01*
X123100500Y-107228389D01*
X123439500Y-107228389D01*
X123439500Y-107401611D01*
X123450236Y-107469394D01*
X123466597Y-107572700D01*
X123486866Y-107635080D01*
X123520127Y-107737445D01*
X123520130Y-107737450D01*
X123598771Y-107891793D01*
X123632845Y-107938691D01*
X123700586Y-108031928D01*
X123823072Y-108154414D01*
X123823075Y-108154416D01*
X123962622Y-108255804D01*
X123963212Y-108256232D01*
X124117555Y-108334873D01*
X124282299Y-108388402D01*
X124453389Y-108415500D01*
X124453393Y-108415500D01*
X124626607Y-108415500D01*
X124626611Y-108415500D01*
X124797701Y-108388402D01*
X124962445Y-108334873D01*
X125116788Y-108256232D01*
X125256928Y-108154414D01*
X125379414Y-108031928D01*
X125481232Y-107891788D01*
X125559873Y-107737445D01*
X125613402Y-107572701D01*
X125640500Y-107401611D01*
X125640500Y-107228389D01*
X125613402Y-107057299D01*
X125559873Y-106892555D01*
X125481232Y-106738212D01*
X125447153Y-106691307D01*
X125379416Y-106598075D01*
X125379414Y-106598072D01*
X125256928Y-106475586D01*
X125256924Y-106475583D01*
X125116793Y-106373771D01*
X125116790Y-106373769D01*
X125116788Y-106373768D01*
X124962445Y-106295127D01*
X124914821Y-106279653D01*
X124797700Y-106241597D01*
X124700086Y-106226137D01*
X124626611Y-106214500D01*
X124453389Y-106214500D01*
X124387037Y-106225009D01*
X124282299Y-106241597D01*
X124117561Y-106295125D01*
X124117555Y-106295127D01*
X124117549Y-106295129D01*
X124117549Y-106295130D01*
X123963206Y-106373771D01*
X123823075Y-106475583D01*
X123700583Y-106598075D01*
X123598771Y-106738206D01*
X123520130Y-106892549D01*
X123520125Y-106892561D01*
X123466597Y-107057299D01*
X123450236Y-107160606D01*
X123439500Y-107228389D01*
X123100500Y-107228389D01*
X123073402Y-107057299D01*
X123019873Y-106892555D01*
X122941232Y-106738212D01*
X122907153Y-106691307D01*
X122839416Y-106598075D01*
X122839414Y-106598072D01*
X122716928Y-106475586D01*
X122716924Y-106475583D01*
X122576793Y-106373771D01*
X122576790Y-106373769D01*
X122576788Y-106373768D01*
X122422445Y-106295127D01*
X122374821Y-106279653D01*
X122257700Y-106241597D01*
X122160086Y-106226137D01*
X122086611Y-106214500D01*
X121913389Y-106214500D01*
X121847037Y-106225009D01*
X121742299Y-106241597D01*
X121577561Y-106295125D01*
X121577555Y-106295127D01*
X121577549Y-106295129D01*
X121577549Y-106295130D01*
X121423206Y-106373771D01*
X121283075Y-106475583D01*
X121160583Y-106598075D01*
X121058771Y-106738206D01*
X120980130Y-106892549D01*
X120980125Y-106892561D01*
X120926597Y-107057299D01*
X120910236Y-107160606D01*
X120899500Y-107228389D01*
X120559993Y-107228389D01*
X120532913Y-107057413D01*
X120479409Y-106892746D01*
X120400803Y-106738473D01*
X120400802Y-106738472D01*
X120366534Y-106691307D01*
X119846370Y-107211470D01*
X119832741Y-107160606D01*
X119780080Y-107069394D01*
X119705606Y-106994920D01*
X119614394Y-106942259D01*
X119563526Y-106928629D01*
X120083691Y-106408465D01*
X120083691Y-106408464D01*
X120036526Y-106374197D01*
X120036526Y-106374196D01*
X119882253Y-106295590D01*
X119717586Y-106242086D01*
X119546567Y-106215000D01*
X119373433Y-106215000D01*
X119202413Y-106242086D01*
X119037746Y-106295590D01*
X118883477Y-106374195D01*
X118836307Y-106408465D01*
X119356471Y-106928629D01*
X119305606Y-106942259D01*
X119214394Y-106994920D01*
X119139920Y-107069394D01*
X119087259Y-107160606D01*
X119073629Y-107211471D01*
X118553465Y-106691307D01*
X118519195Y-106738477D01*
X118440590Y-106892746D01*
X118387086Y-107057413D01*
X118360000Y-107228432D01*
X118020000Y-107228432D01*
X117992913Y-107057413D01*
X117939409Y-106892746D01*
X117860803Y-106738473D01*
X117860802Y-106738472D01*
X117826534Y-106691307D01*
X117306370Y-107211470D01*
X117292741Y-107160606D01*
X117240080Y-107069394D01*
X117165606Y-106994920D01*
X117074394Y-106942259D01*
X117023526Y-106928629D01*
X117543691Y-106408465D01*
X117543691Y-106408464D01*
X117496526Y-106374197D01*
X117496526Y-106374196D01*
X117342253Y-106295590D01*
X117177586Y-106242086D01*
X117006567Y-106215000D01*
X116833433Y-106215000D01*
X116662413Y-106242086D01*
X116497746Y-106295590D01*
X116343477Y-106374195D01*
X116296307Y-106408465D01*
X116816471Y-106928629D01*
X116765606Y-106942259D01*
X116674394Y-106994920D01*
X116599920Y-107069394D01*
X116547259Y-107160606D01*
X116533629Y-107211471D01*
X116013465Y-106691307D01*
X115979195Y-106738477D01*
X115900590Y-106892746D01*
X115847086Y-107057413D01*
X115820000Y-107228432D01*
X100500500Y-107228432D01*
X100500500Y-105339038D01*
X188072000Y-105339038D01*
X188072000Y-105590962D01*
X188111410Y-105839785D01*
X188189259Y-106079379D01*
X188299189Y-106295130D01*
X188303631Y-106303846D01*
X188303631Y-106303847D01*
X188377668Y-106405750D01*
X188451707Y-106507656D01*
X188629844Y-106685793D01*
X188833655Y-106833870D01*
X189058121Y-106948241D01*
X189297715Y-107026090D01*
X189546538Y-107065500D01*
X189546543Y-107065500D01*
X189798457Y-107065500D01*
X189798462Y-107065500D01*
X190047285Y-107026090D01*
X190286879Y-106948241D01*
X190511345Y-106833870D01*
X190715156Y-106685793D01*
X190893293Y-106507656D01*
X191041370Y-106303845D01*
X191155741Y-106079379D01*
X191233590Y-105839785D01*
X191273000Y-105590962D01*
X191273000Y-105339038D01*
X191233590Y-105090215D01*
X191155741Y-104850621D01*
X191041370Y-104626155D01*
X190893293Y-104422344D01*
X190715156Y-104244207D01*
X190511345Y-104096130D01*
X190286879Y-103981759D01*
X190047285Y-103903910D01*
X189798462Y-103864500D01*
X189546538Y-103864500D01*
X189339185Y-103897341D01*
X189297714Y-103903910D01*
X189058127Y-103981757D01*
X189058121Y-103981759D01*
X189058115Y-103981761D01*
X189058115Y-103981762D01*
X188833653Y-104096131D01*
X188833652Y-104096131D01*
X188629845Y-104244206D01*
X188629842Y-104244208D01*
X188451708Y-104422342D01*
X188451706Y-104422345D01*
X188303631Y-104626152D01*
X188303631Y-104626153D01*
X188303630Y-104626155D01*
X188189259Y-104850621D01*
X188111410Y-105090215D01*
X188072000Y-105339038D01*
X100500500Y-105339038D01*
X100500500Y-102309778D01*
X179599500Y-102309778D01*
X179599500Y-102530222D01*
X179614826Y-102626990D01*
X179633985Y-102747956D01*
X179702105Y-102957606D01*
X179802185Y-103154023D01*
X179802186Y-103154024D01*
X179931758Y-103332365D01*
X180087635Y-103488242D01*
X180230625Y-103592129D01*
X180265975Y-103617813D01*
X180265976Y-103617814D01*
X180265978Y-103617815D01*
X180462394Y-103717895D01*
X180549512Y-103746201D01*
X180672043Y-103786014D01*
X180672048Y-103786014D01*
X180672049Y-103786015D01*
X180889778Y-103820500D01*
X180889782Y-103820500D01*
X181110218Y-103820500D01*
X181110222Y-103820500D01*
X181327951Y-103786015D01*
X181327952Y-103786014D01*
X181327956Y-103786014D01*
X181408556Y-103759825D01*
X181537606Y-103717895D01*
X181734022Y-103617815D01*
X181912365Y-103488242D01*
X182068242Y-103332365D01*
X182197815Y-103154022D01*
X182297895Y-102957606D01*
X182339825Y-102828556D01*
X182366014Y-102747956D01*
X182366015Y-102747951D01*
X182400500Y-102530222D01*
X182400500Y-102309778D01*
X182366015Y-102092049D01*
X182366014Y-102092048D01*
X182366014Y-102092043D01*
X182326201Y-101969512D01*
X182297895Y-101882394D01*
X182197815Y-101685978D01*
X182068242Y-101507635D01*
X181912365Y-101351758D01*
X181823193Y-101286971D01*
X181734024Y-101222186D01*
X181734023Y-101222185D01*
X181537606Y-101122105D01*
X181327956Y-101053985D01*
X181206990Y-101034826D01*
X181110222Y-101019500D01*
X180889778Y-101019500D01*
X180802686Y-101033294D01*
X180672043Y-101053985D01*
X180462393Y-101122105D01*
X180265976Y-101222185D01*
X180265975Y-101222186D01*
X180087636Y-101351757D01*
X180087633Y-101351759D01*
X179931759Y-101507633D01*
X179931757Y-101507636D01*
X179802186Y-101685975D01*
X179802185Y-101685976D01*
X179702105Y-101882393D01*
X179633985Y-102092043D01*
X179610995Y-102237201D01*
X179599500Y-102309778D01*
X100500500Y-102309778D01*
X100500500Y-99608432D01*
X115820000Y-99608432D01*
X115820000Y-99781567D01*
X115847086Y-99952586D01*
X115900590Y-100117253D01*
X115979197Y-100271526D01*
X116013464Y-100318691D01*
X116013465Y-100318691D01*
X116533629Y-99798526D01*
X116547259Y-99849394D01*
X116599920Y-99940606D01*
X116674394Y-100015080D01*
X116765606Y-100067741D01*
X116816471Y-100081370D01*
X116296307Y-100601534D01*
X116343472Y-100635802D01*
X116343473Y-100635803D01*
X116497746Y-100714409D01*
X116662413Y-100767913D01*
X116833433Y-100795000D01*
X117006567Y-100795000D01*
X117177586Y-100767913D01*
X117342253Y-100714409D01*
X117496525Y-100635804D01*
X117543691Y-100601534D01*
X117543691Y-100601533D01*
X117023528Y-100081370D01*
X117074394Y-100067741D01*
X117165606Y-100015080D01*
X117240080Y-99940606D01*
X117292741Y-99849394D01*
X117306370Y-99798528D01*
X117826533Y-100318691D01*
X117826534Y-100318691D01*
X117860804Y-100271525D01*
X117939409Y-100117253D01*
X117992913Y-99952586D01*
X118020000Y-99781567D01*
X118020000Y-99608432D01*
X118019993Y-99608389D01*
X118359500Y-99608389D01*
X118359500Y-99781611D01*
X118370236Y-99849394D01*
X118386597Y-99952700D01*
X118406866Y-100015080D01*
X118440127Y-100117445D01*
X118440130Y-100117450D01*
X118518771Y-100271793D01*
X118552845Y-100318691D01*
X118620586Y-100411928D01*
X118743072Y-100534414D01*
X118743075Y-100534416D01*
X118882622Y-100635804D01*
X118883212Y-100636232D01*
X119037555Y-100714873D01*
X119202299Y-100768402D01*
X119373389Y-100795500D01*
X119373393Y-100795500D01*
X119546607Y-100795500D01*
X119546611Y-100795500D01*
X119717701Y-100768402D01*
X119882445Y-100714873D01*
X120036788Y-100636232D01*
X120176928Y-100534414D01*
X120299414Y-100411928D01*
X120401232Y-100271788D01*
X120479873Y-100117445D01*
X120533402Y-99952701D01*
X120560500Y-99781611D01*
X120560500Y-99608389D01*
X120899500Y-99608389D01*
X120899500Y-99781611D01*
X120910236Y-99849394D01*
X120926597Y-99952700D01*
X120946866Y-100015080D01*
X120980127Y-100117445D01*
X120980130Y-100117450D01*
X121058771Y-100271793D01*
X121092845Y-100318691D01*
X121160586Y-100411928D01*
X121283072Y-100534414D01*
X121283075Y-100534416D01*
X121422622Y-100635804D01*
X121423212Y-100636232D01*
X121577555Y-100714873D01*
X121742299Y-100768402D01*
X121913389Y-100795500D01*
X121913393Y-100795500D01*
X122086607Y-100795500D01*
X122086611Y-100795500D01*
X122257701Y-100768402D01*
X122422445Y-100714873D01*
X122576788Y-100636232D01*
X122716928Y-100534414D01*
X122839414Y-100411928D01*
X122941232Y-100271788D01*
X123019873Y-100117445D01*
X123073402Y-99952701D01*
X123100500Y-99781611D01*
X123100500Y-99608389D01*
X123073402Y-99437299D01*
X123019873Y-99272555D01*
X122941232Y-99118212D01*
X122929376Y-99101894D01*
X123439500Y-99101894D01*
X123439500Y-100288105D01*
X123450122Y-100376563D01*
X123505638Y-100517341D01*
X123595471Y-100635804D01*
X123597078Y-100637922D01*
X123717658Y-100729361D01*
X123858436Y-100784877D01*
X123946898Y-100795500D01*
X123946899Y-100795500D01*
X125133101Y-100795500D01*
X125133102Y-100795500D01*
X125221564Y-100784877D01*
X125362342Y-100729361D01*
X125482922Y-100637922D01*
X125574361Y-100517342D01*
X125629877Y-100376564D01*
X125640500Y-100288102D01*
X125640500Y-99101898D01*
X125629877Y-99013436D01*
X125574361Y-98872658D01*
X125510515Y-98788465D01*
X125482923Y-98752079D01*
X125482920Y-98752076D01*
X125435982Y-98716482D01*
X125362342Y-98660639D01*
X125362341Y-98660638D01*
X125221563Y-98605122D01*
X125133105Y-98594500D01*
X125133102Y-98594500D01*
X123946898Y-98594500D01*
X123946894Y-98594500D01*
X123858436Y-98605122D01*
X123717658Y-98660638D01*
X123717658Y-98660639D01*
X123597079Y-98752076D01*
X123597076Y-98752079D01*
X123505639Y-98872658D01*
X123505638Y-98872658D01*
X123450122Y-99013436D01*
X123439500Y-99101894D01*
X122929376Y-99101894D01*
X122873353Y-99024785D01*
X122839414Y-98978072D01*
X122716928Y-98855586D01*
X122716924Y-98855583D01*
X122576793Y-98753771D01*
X122576790Y-98753769D01*
X122576788Y-98753768D01*
X122422445Y-98675127D01*
X122374821Y-98659653D01*
X122257700Y-98621597D01*
X122153682Y-98605123D01*
X122086611Y-98594500D01*
X121913389Y-98594500D01*
X121847037Y-98605009D01*
X121742299Y-98621597D01*
X121577561Y-98675125D01*
X121577555Y-98675127D01*
X121577549Y-98675129D01*
X121577549Y-98675130D01*
X121423206Y-98753771D01*
X121283075Y-98855583D01*
X121160583Y-98978075D01*
X121058771Y-99118206D01*
X120980130Y-99272549D01*
X120980125Y-99272561D01*
X120926597Y-99437299D01*
X120910236Y-99540606D01*
X120899500Y-99608389D01*
X120560500Y-99608389D01*
X120533402Y-99437299D01*
X120479873Y-99272555D01*
X120401232Y-99118212D01*
X120389376Y-99101894D01*
X120333353Y-99024785D01*
X120299414Y-98978072D01*
X120176928Y-98855586D01*
X120176924Y-98855583D01*
X120036793Y-98753771D01*
X120036790Y-98753769D01*
X120036788Y-98753768D01*
X119882445Y-98675127D01*
X119834821Y-98659653D01*
X119717700Y-98621597D01*
X119613682Y-98605123D01*
X119546611Y-98594500D01*
X119373389Y-98594500D01*
X119307037Y-98605009D01*
X119202299Y-98621597D01*
X119037561Y-98675125D01*
X119037555Y-98675127D01*
X119037549Y-98675129D01*
X119037549Y-98675130D01*
X118883206Y-98753771D01*
X118743075Y-98855583D01*
X118620583Y-98978075D01*
X118518771Y-99118206D01*
X118440130Y-99272549D01*
X118440125Y-99272561D01*
X118386597Y-99437299D01*
X118370236Y-99540606D01*
X118359500Y-99608389D01*
X118019993Y-99608389D01*
X117992913Y-99437413D01*
X117939409Y-99272746D01*
X117860803Y-99118473D01*
X117860802Y-99118472D01*
X117826534Y-99071307D01*
X117306370Y-99591470D01*
X117292741Y-99540606D01*
X117240080Y-99449394D01*
X117165606Y-99374920D01*
X117074394Y-99322259D01*
X117023526Y-99308629D01*
X117543691Y-98788465D01*
X117543691Y-98788464D01*
X117496526Y-98754197D01*
X117496526Y-98754196D01*
X117342253Y-98675590D01*
X117177586Y-98622086D01*
X117006567Y-98595000D01*
X116833433Y-98595000D01*
X116662413Y-98622086D01*
X116497746Y-98675590D01*
X116343477Y-98754195D01*
X116296307Y-98788465D01*
X116816471Y-99308629D01*
X116765606Y-99322259D01*
X116674394Y-99374920D01*
X116599920Y-99449394D01*
X116547259Y-99540606D01*
X116533629Y-99591471D01*
X116013465Y-99071307D01*
X115979195Y-99118477D01*
X115900590Y-99272746D01*
X115847086Y-99437413D01*
X115820000Y-99608432D01*
X100500500Y-99608432D01*
X100500500Y-96913432D01*
X144582380Y-96913432D01*
X144582380Y-97086567D01*
X144609466Y-97257586D01*
X144662970Y-97422253D01*
X144741577Y-97576526D01*
X144775844Y-97623691D01*
X144775845Y-97623691D01*
X145296009Y-97103526D01*
X145309639Y-97154394D01*
X145362300Y-97245606D01*
X145436774Y-97320080D01*
X145527986Y-97372741D01*
X145578851Y-97386370D01*
X145058687Y-97906534D01*
X145105852Y-97940802D01*
X145105853Y-97940803D01*
X145260126Y-98019409D01*
X145424793Y-98072913D01*
X145595813Y-98100000D01*
X145768947Y-98100000D01*
X145939966Y-98072913D01*
X146104633Y-98019409D01*
X146258905Y-97940804D01*
X146306071Y-97906534D01*
X146306071Y-97906533D01*
X145785908Y-97386370D01*
X145836774Y-97372741D01*
X145927986Y-97320080D01*
X146002460Y-97245606D01*
X146055121Y-97154394D01*
X146068750Y-97103528D01*
X146588913Y-97623691D01*
X146588914Y-97623691D01*
X146623184Y-97576525D01*
X146701789Y-97422253D01*
X146755293Y-97257586D01*
X146782380Y-97086567D01*
X146782380Y-96913432D01*
X146755293Y-96742413D01*
X146701789Y-96577746D01*
X146646936Y-96470090D01*
X146646935Y-96470088D01*
X146623186Y-96423478D01*
X146623182Y-96423472D01*
X146611137Y-96406894D01*
X147081880Y-96406894D01*
X147081880Y-97593105D01*
X147092502Y-97681563D01*
X147148018Y-97822341D01*
X147238925Y-97942220D01*
X147239458Y-97942922D01*
X147360038Y-98034361D01*
X147500816Y-98089877D01*
X147589278Y-98100500D01*
X147589279Y-98100500D01*
X148775481Y-98100500D01*
X148775482Y-98100500D01*
X148863944Y-98089877D01*
X149004722Y-98034361D01*
X149125302Y-97942922D01*
X149216741Y-97822342D01*
X149272257Y-97681564D01*
X149282880Y-97593102D01*
X149282880Y-96406898D01*
X149272257Y-96318436D01*
X149216741Y-96177658D01*
X149190120Y-96142553D01*
X149125303Y-96057079D01*
X149125300Y-96057076D01*
X149069153Y-96014499D01*
X149004722Y-95965639D01*
X149004721Y-95965638D01*
X148863943Y-95910122D01*
X148775485Y-95899500D01*
X148775482Y-95899500D01*
X147589278Y-95899500D01*
X147589274Y-95899500D01*
X147500816Y-95910122D01*
X147360038Y-95965638D01*
X147360038Y-95965639D01*
X147239459Y-96057076D01*
X147239456Y-96057079D01*
X147148019Y-96177658D01*
X147148018Y-96177658D01*
X147092502Y-96318436D01*
X147081880Y-96406894D01*
X146611137Y-96406894D01*
X146588914Y-96376307D01*
X146068750Y-96896470D01*
X146055121Y-96845606D01*
X146002460Y-96754394D01*
X145927986Y-96679920D01*
X145836774Y-96627259D01*
X145785906Y-96613629D01*
X146306071Y-96093465D01*
X146306071Y-96093464D01*
X146258906Y-96059197D01*
X146258906Y-96059196D01*
X146104633Y-95980590D01*
X145939966Y-95927086D01*
X145768947Y-95900000D01*
X145595813Y-95900000D01*
X145424793Y-95927086D01*
X145260126Y-95980590D01*
X145105857Y-96059195D01*
X145058687Y-96093465D01*
X145578851Y-96613629D01*
X145527986Y-96627259D01*
X145436774Y-96679920D01*
X145362300Y-96754394D01*
X145309639Y-96845606D01*
X145296009Y-96896471D01*
X144775845Y-96376307D01*
X144741575Y-96423477D01*
X144662970Y-96577746D01*
X144609466Y-96742413D01*
X144582380Y-96913432D01*
X100500500Y-96913432D01*
X100500500Y-95174454D01*
X126349500Y-95174454D01*
X126349500Y-95355546D01*
X126377829Y-95534409D01*
X126433789Y-95706639D01*
X126494873Y-95826523D01*
X126516005Y-95867995D01*
X126516005Y-95867996D01*
X126546612Y-95910123D01*
X126622447Y-96014501D01*
X126750499Y-96142553D01*
X126897006Y-96248996D01*
X127058361Y-96331211D01*
X127230591Y-96387171D01*
X127409454Y-96415500D01*
X127409458Y-96415500D01*
X127590542Y-96415500D01*
X127590546Y-96415500D01*
X127769409Y-96387171D01*
X127941639Y-96331211D01*
X128102994Y-96248996D01*
X128249501Y-96142553D01*
X128377553Y-96014501D01*
X128483996Y-95867994D01*
X128566211Y-95706639D01*
X128622171Y-95534409D01*
X128650500Y-95355546D01*
X128650500Y-95174454D01*
X128622171Y-94995591D01*
X128566211Y-94823361D01*
X128483996Y-94662006D01*
X128377553Y-94515499D01*
X128249501Y-94387447D01*
X128102994Y-94281004D01*
X127941639Y-94198789D01*
X127941630Y-94198786D01*
X127839822Y-94165707D01*
X127775137Y-94123700D01*
X127740121Y-94054978D01*
X127744157Y-93977956D01*
X127786164Y-93913271D01*
X127854886Y-93878255D01*
X127885865Y-93874999D01*
X128394795Y-93874999D01*
X128419874Y-93872090D01*
X128522477Y-93826787D01*
X128522478Y-93826787D01*
X128601786Y-93747478D01*
X128647091Y-93644871D01*
X128650000Y-93619795D01*
X128650000Y-92955135D01*
X131247000Y-92955135D01*
X131247000Y-92955136D01*
X131247000Y-92955140D01*
X131247000Y-95044866D01*
X131249914Y-95069989D01*
X131249915Y-95069992D01*
X131295293Y-95172764D01*
X131295294Y-95172765D01*
X131374735Y-95252206D01*
X131477509Y-95297585D01*
X131502635Y-95300500D01*
X133497364Y-95300499D01*
X133497366Y-95300499D01*
X133509927Y-95299042D01*
X133522491Y-95297585D01*
X133625265Y-95252206D01*
X133704706Y-95172765D01*
X133750085Y-95069991D01*
X133753000Y-95044865D01*
X133752999Y-94866400D01*
X133772961Y-94791904D01*
X133827498Y-94737366D01*
X133901998Y-94717403D01*
X133976498Y-94737365D01*
X134022542Y-94778822D01*
X134084261Y-94863770D01*
X134084265Y-94863775D01*
X134223725Y-95003235D01*
X134383285Y-95119162D01*
X134559015Y-95208701D01*
X134746582Y-95269645D01*
X134746582Y-95269646D01*
X134746587Y-95269646D01*
X134746588Y-95269647D01*
X134941387Y-95300500D01*
X134941391Y-95300500D01*
X135138609Y-95300500D01*
X135138613Y-95300500D01*
X135333412Y-95269647D01*
X135333413Y-95269646D01*
X135333417Y-95269646D01*
X135333417Y-95269645D01*
X135520985Y-95208701D01*
X135696715Y-95119162D01*
X135856275Y-95003235D01*
X135995735Y-94863775D01*
X136111662Y-94704215D01*
X136177240Y-94575510D01*
X136228849Y-94518193D01*
X136302202Y-94494359D01*
X136377644Y-94510395D01*
X136434962Y-94562004D01*
X136442759Y-94575510D01*
X136508338Y-94704215D01*
X136624265Y-94863775D01*
X136763725Y-95003235D01*
X136923285Y-95119162D01*
X137099015Y-95208701D01*
X137286582Y-95269645D01*
X137286582Y-95269646D01*
X137286587Y-95269646D01*
X137286588Y-95269647D01*
X137481387Y-95300500D01*
X137481391Y-95300500D01*
X137678609Y-95300500D01*
X137678613Y-95300500D01*
X137873412Y-95269647D01*
X137873413Y-95269646D01*
X137873417Y-95269646D01*
X137873417Y-95269645D01*
X138060985Y-95208701D01*
X138236715Y-95119162D01*
X138396275Y-95003235D01*
X138535735Y-94863775D01*
X138651662Y-94704215D01*
X138741201Y-94528485D01*
X138765842Y-94452648D01*
X171704500Y-94452648D01*
X171704500Y-94657352D01*
X171736523Y-94859534D01*
X171796740Y-95044864D01*
X171799778Y-95054212D01*
X171799782Y-95054224D01*
X171892714Y-95236612D01*
X172013028Y-95402212D01*
X172013035Y-95402220D01*
X172157779Y-95546964D01*
X172157787Y-95546971D01*
X172247130Y-95611881D01*
X172323390Y-95667287D01*
X172372363Y-95692240D01*
X172429680Y-95743849D01*
X172453514Y-95817203D01*
X172437478Y-95892645D01*
X172385869Y-95949962D01*
X172372363Y-95957760D01*
X172323388Y-95982714D01*
X172157787Y-96103028D01*
X172157779Y-96103035D01*
X172013035Y-96247779D01*
X172013028Y-96247787D01*
X171892714Y-96413387D01*
X171799782Y-96595775D01*
X171799778Y-96595787D01*
X171748244Y-96754394D01*
X171736523Y-96790466D01*
X171704500Y-96992648D01*
X171704500Y-97197352D01*
X171736523Y-97399534D01*
X171799416Y-97593100D01*
X171799778Y-97594212D01*
X171799782Y-97594224D01*
X171892714Y-97776612D01*
X172013028Y-97942212D01*
X172013035Y-97942220D01*
X172157779Y-98086964D01*
X172157787Y-98086971D01*
X172323387Y-98207285D01*
X172323390Y-98207287D01*
X172505781Y-98300220D01*
X172700466Y-98363477D01*
X172902648Y-98395500D01*
X172902653Y-98395500D01*
X173107347Y-98395500D01*
X173107352Y-98395500D01*
X173309534Y-98363477D01*
X173504219Y-98300220D01*
X173686610Y-98207287D01*
X173852219Y-98086966D01*
X173996966Y-97942219D01*
X174117287Y-97776610D01*
X174210220Y-97594219D01*
X174273477Y-97399534D01*
X174305500Y-97197352D01*
X174305500Y-96992648D01*
X194704500Y-96992648D01*
X194704500Y-97197352D01*
X194736523Y-97399534D01*
X194799416Y-97593100D01*
X194799778Y-97594212D01*
X194799782Y-97594224D01*
X194892714Y-97776612D01*
X195013028Y-97942212D01*
X195013035Y-97942220D01*
X195157779Y-98086964D01*
X195157787Y-98086971D01*
X195323387Y-98207285D01*
X195323390Y-98207287D01*
X195505781Y-98300220D01*
X195700466Y-98363477D01*
X195902648Y-98395500D01*
X195902653Y-98395500D01*
X196107347Y-98395500D01*
X196107352Y-98395500D01*
X196309534Y-98363477D01*
X196504219Y-98300220D01*
X196686610Y-98207287D01*
X196852219Y-98086966D01*
X196996966Y-97942219D01*
X197117287Y-97776610D01*
X197210220Y-97594219D01*
X197273477Y-97399534D01*
X197305500Y-97197352D01*
X197305500Y-96992648D01*
X197273477Y-96790466D01*
X197210220Y-96595781D01*
X197117287Y-96413390D01*
X197112571Y-96406899D01*
X196996971Y-96247787D01*
X196996964Y-96247779D01*
X196852220Y-96103035D01*
X196852212Y-96103028D01*
X196686612Y-95982714D01*
X196504224Y-95889782D01*
X196504220Y-95889780D01*
X196504219Y-95889780D01*
X196309534Y-95826523D01*
X196107352Y-95794500D01*
X195902648Y-95794500D01*
X195734163Y-95821185D01*
X195700465Y-95826523D01*
X195505787Y-95889778D01*
X195505775Y-95889782D01*
X195323387Y-95982714D01*
X195157787Y-96103028D01*
X195157779Y-96103035D01*
X195013035Y-96247779D01*
X195013028Y-96247787D01*
X194892714Y-96413387D01*
X194799782Y-96595775D01*
X194799778Y-96595787D01*
X194748244Y-96754394D01*
X194736523Y-96790466D01*
X194704500Y-96992648D01*
X174305500Y-96992648D01*
X174273477Y-96790466D01*
X174210220Y-96595781D01*
X174117287Y-96413390D01*
X174112571Y-96406899D01*
X173996971Y-96247787D01*
X173996964Y-96247779D01*
X173852220Y-96103035D01*
X173852212Y-96103028D01*
X173686609Y-95982712D01*
X173637637Y-95957760D01*
X173580319Y-95906152D01*
X173556485Y-95832798D01*
X173572521Y-95757356D01*
X173624129Y-95700038D01*
X173637637Y-95692240D01*
X173686610Y-95667287D01*
X173852219Y-95546966D01*
X173996966Y-95402219D01*
X174117287Y-95236610D01*
X174210220Y-95054219D01*
X174273477Y-94859534D01*
X174305500Y-94657352D01*
X174305500Y-94452648D01*
X174273477Y-94250466D01*
X174210220Y-94055781D01*
X174117287Y-93873390D01*
X174103120Y-93853890D01*
X173996971Y-93707787D01*
X173996964Y-93707779D01*
X173852220Y-93563035D01*
X173852212Y-93563028D01*
X173686612Y-93442714D01*
X173504224Y-93349782D01*
X173504220Y-93349780D01*
X173504219Y-93349780D01*
X173309534Y-93286523D01*
X173107352Y-93254500D01*
X172902648Y-93254500D01*
X172734163Y-93281185D01*
X172700465Y-93286523D01*
X172505787Y-93349778D01*
X172505775Y-93349782D01*
X172323387Y-93442714D01*
X172157787Y-93563028D01*
X172157779Y-93563035D01*
X172013035Y-93707779D01*
X172013028Y-93707787D01*
X171892714Y-93873387D01*
X171799782Y-94055775D01*
X171799778Y-94055787D01*
X171753315Y-94198787D01*
X171736523Y-94250466D01*
X171704500Y-94452648D01*
X138765842Y-94452648D01*
X138787028Y-94387446D01*
X138802145Y-94340917D01*
X138802146Y-94340917D01*
X138816472Y-94250465D01*
X138833000Y-94146113D01*
X138833000Y-93853887D01*
X138802147Y-93659088D01*
X138802146Y-93659087D01*
X138802146Y-93659082D01*
X138770935Y-93563028D01*
X138741201Y-93471515D01*
X138651662Y-93295785D01*
X138535735Y-93136225D01*
X138396275Y-92996765D01*
X138236715Y-92880838D01*
X138153690Y-92838534D01*
X138060990Y-92791301D01*
X138060986Y-92791299D01*
X138060985Y-92791299D01*
X138003724Y-92772693D01*
X137873417Y-92730354D01*
X137873417Y-92730353D01*
X137765190Y-92713212D01*
X137678613Y-92699500D01*
X137481387Y-92699500D01*
X137403467Y-92711841D01*
X137286582Y-92730353D01*
X137286582Y-92730354D01*
X137099021Y-92791297D01*
X137099009Y-92791301D01*
X136923283Y-92880839D01*
X136763728Y-92996762D01*
X136624262Y-93136228D01*
X136508339Y-93295783D01*
X136442760Y-93424489D01*
X136391151Y-93481806D01*
X136317798Y-93505640D01*
X136242355Y-93489604D01*
X136185038Y-93437995D01*
X136177240Y-93424489D01*
X136111662Y-93295785D01*
X135995735Y-93136225D01*
X135856275Y-92996765D01*
X135696715Y-92880838D01*
X135613690Y-92838534D01*
X135520990Y-92791301D01*
X135520986Y-92791299D01*
X135520985Y-92791299D01*
X135463724Y-92772693D01*
X135333417Y-92730354D01*
X135333417Y-92730353D01*
X135225190Y-92713212D01*
X135138613Y-92699500D01*
X134941387Y-92699500D01*
X134863467Y-92711841D01*
X134746582Y-92730353D01*
X134746582Y-92730354D01*
X134559021Y-92791297D01*
X134559009Y-92791301D01*
X134383283Y-92880839D01*
X134223728Y-92996762D01*
X134084259Y-93136231D01*
X134022542Y-93221178D01*
X133962603Y-93269716D01*
X133886424Y-93281782D01*
X133814419Y-93254141D01*
X133765881Y-93194202D01*
X133752999Y-93133598D01*
X133752999Y-92955133D01*
X133750085Y-92930010D01*
X133750084Y-92930008D01*
X133704706Y-92827235D01*
X133625265Y-92747794D01*
X133625264Y-92747793D01*
X133522494Y-92702416D01*
X133522491Y-92702415D01*
X133522482Y-92702414D01*
X133497365Y-92699500D01*
X133497359Y-92699500D01*
X131502633Y-92699500D01*
X131477510Y-92702414D01*
X131477507Y-92702415D01*
X131374735Y-92747793D01*
X131295293Y-92827235D01*
X131249916Y-92930005D01*
X131249915Y-92930008D01*
X131249915Y-92930009D01*
X131247000Y-92955135D01*
X128650000Y-92955135D01*
X128650000Y-92925000D01*
X127961880Y-92925000D01*
X127965925Y-92917993D01*
X128000000Y-92790826D01*
X128000000Y-92659174D01*
X127965925Y-92532007D01*
X127961880Y-92525000D01*
X128649999Y-92525000D01*
X128649999Y-91830205D01*
X128647090Y-91805125D01*
X128601787Y-91702522D01*
X128522478Y-91623213D01*
X128419871Y-91577908D01*
X128394796Y-91575000D01*
X127700000Y-91575000D01*
X127700000Y-92263120D01*
X127692993Y-92259075D01*
X127565826Y-92225000D01*
X127434174Y-92225000D01*
X127307007Y-92259075D01*
X127300000Y-92263120D01*
X127300000Y-91575000D01*
X126605205Y-91575000D01*
X126580125Y-91577909D01*
X126477522Y-91623212D01*
X126477522Y-91623213D01*
X126398213Y-91702521D01*
X126352908Y-91805128D01*
X126350000Y-91830204D01*
X126350000Y-92525000D01*
X127038120Y-92525000D01*
X127034075Y-92532007D01*
X127000000Y-92659174D01*
X127000000Y-92790826D01*
X127034075Y-92917993D01*
X127038120Y-92925000D01*
X126350001Y-92925000D01*
X126350001Y-93619794D01*
X126352909Y-93644874D01*
X126398212Y-93747477D01*
X126477521Y-93826786D01*
X126580128Y-93872091D01*
X126605204Y-93874999D01*
X127114133Y-93874999D01*
X127188633Y-93894961D01*
X127243171Y-93949499D01*
X127263133Y-94023999D01*
X127243171Y-94098499D01*
X127188633Y-94153037D01*
X127160177Y-94165706D01*
X127058364Y-94198786D01*
X127058363Y-94198787D01*
X126897004Y-94281005D01*
X126897003Y-94281005D01*
X126750500Y-94387446D01*
X126750497Y-94387448D01*
X126622448Y-94515497D01*
X126622446Y-94515500D01*
X126516005Y-94662003D01*
X126516005Y-94662004D01*
X126433789Y-94823360D01*
X126377829Y-94995591D01*
X126349500Y-95174454D01*
X100500500Y-95174454D01*
X100500500Y-66250387D01*
X137304300Y-66250387D01*
X137304300Y-66449613D01*
X137335466Y-66646386D01*
X137397030Y-66835860D01*
X137397034Y-66835869D01*
X137397035Y-66835870D01*
X137487474Y-67013367D01*
X137487478Y-67013375D01*
X137554145Y-67105133D01*
X137604578Y-67174548D01*
X137745452Y-67315422D01*
X137745455Y-67315424D01*
X137906624Y-67432521D01*
X137906629Y-67432524D01*
X138014015Y-67487240D01*
X138071333Y-67538849D01*
X138095167Y-67612202D01*
X138079131Y-67687644D01*
X138027522Y-67744962D01*
X138014015Y-67752760D01*
X137906632Y-67807474D01*
X137906629Y-67807476D01*
X137745455Y-67924575D01*
X137604575Y-68065455D01*
X137487478Y-68226624D01*
X137487474Y-68226632D01*
X137397035Y-68404129D01*
X137397032Y-68404135D01*
X137397030Y-68404140D01*
X137335466Y-68593614D01*
X137304300Y-68790387D01*
X137304300Y-68989613D01*
X137335466Y-69186386D01*
X137397030Y-69375860D01*
X137397034Y-69375869D01*
X137397035Y-69375870D01*
X137487474Y-69553367D01*
X137487478Y-69553375D01*
X137593431Y-69699206D01*
X137604578Y-69714548D01*
X137745452Y-69855422D01*
X137745455Y-69855424D01*
X137906624Y-69972521D01*
X137906629Y-69972524D01*
X138014015Y-70027240D01*
X138071333Y-70078849D01*
X138095167Y-70152202D01*
X138079131Y-70227644D01*
X138027522Y-70284962D01*
X138014015Y-70292760D01*
X137906632Y-70347474D01*
X137906629Y-70347476D01*
X137745455Y-70464575D01*
X137604575Y-70605455D01*
X137487478Y-70766624D01*
X137487474Y-70766632D01*
X137397035Y-70944129D01*
X137397028Y-70944146D01*
X137363948Y-71045957D01*
X137335466Y-71133614D01*
X137304300Y-71330387D01*
X137304300Y-71529613D01*
X137335466Y-71726386D01*
X137397030Y-71915860D01*
X137397034Y-71915869D01*
X137397035Y-71915870D01*
X137487474Y-72093367D01*
X137487478Y-72093375D01*
X137604575Y-72254544D01*
X137604578Y-72254548D01*
X137745452Y-72395422D01*
X137756214Y-72403241D01*
X137906624Y-72512521D01*
X137906629Y-72512524D01*
X138014015Y-72567240D01*
X138071333Y-72618849D01*
X138095167Y-72692202D01*
X138079131Y-72767644D01*
X138027522Y-72824962D01*
X138014015Y-72832760D01*
X137906632Y-72887474D01*
X137906629Y-72887476D01*
X137745455Y-73004575D01*
X137604575Y-73145455D01*
X137487478Y-73306624D01*
X137487474Y-73306632D01*
X137397035Y-73484129D01*
X137397032Y-73484135D01*
X137397030Y-73484140D01*
X137335466Y-73673614D01*
X137304300Y-73870387D01*
X137304300Y-74069613D01*
X137335466Y-74266386D01*
X137397030Y-74455860D01*
X137397034Y-74455869D01*
X137397035Y-74455870D01*
X137487474Y-74633367D01*
X137487478Y-74633375D01*
X137519652Y-74677658D01*
X137604578Y-74794548D01*
X137745452Y-74935422D01*
X137745455Y-74935424D01*
X137906624Y-75052521D01*
X137906629Y-75052524D01*
X138014015Y-75107240D01*
X138071333Y-75158849D01*
X138095167Y-75232202D01*
X138079131Y-75307644D01*
X138027522Y-75364962D01*
X138014015Y-75372760D01*
X137906632Y-75427474D01*
X137906629Y-75427476D01*
X137745455Y-75544575D01*
X137604575Y-75685455D01*
X137487478Y-75846624D01*
X137487474Y-75846632D01*
X137397035Y-76024129D01*
X137397028Y-76024146D01*
X137338290Y-76204924D01*
X137335466Y-76213614D01*
X137304300Y-76410387D01*
X137304300Y-76609613D01*
X137335466Y-76806386D01*
X137397030Y-76995860D01*
X137397034Y-76995869D01*
X137397035Y-76995870D01*
X137487474Y-77173367D01*
X137487478Y-77173375D01*
X137567011Y-77282842D01*
X137604578Y-77334548D01*
X137745452Y-77475422D01*
X137745455Y-77475424D01*
X137906624Y-77592521D01*
X137906629Y-77592524D01*
X138014015Y-77647240D01*
X138071333Y-77698849D01*
X138095167Y-77772202D01*
X138079131Y-77847644D01*
X138027522Y-77904962D01*
X138014015Y-77912760D01*
X137906632Y-77967474D01*
X137906629Y-77967476D01*
X137745455Y-78084575D01*
X137604575Y-78225455D01*
X137487478Y-78386624D01*
X137487474Y-78386632D01*
X137397035Y-78564129D01*
X137397032Y-78564135D01*
X137397030Y-78564140D01*
X137335466Y-78753614D01*
X137304300Y-78950387D01*
X137304300Y-79149613D01*
X137335466Y-79346386D01*
X137397030Y-79535860D01*
X137397034Y-79535869D01*
X137397035Y-79535870D01*
X137487474Y-79713367D01*
X137487478Y-79713375D01*
X137604575Y-79874544D01*
X137604578Y-79874548D01*
X137745452Y-80015422D01*
X137745455Y-80015424D01*
X137906624Y-80132521D01*
X137906629Y-80132524D01*
X138014015Y-80187240D01*
X138071333Y-80238849D01*
X138095167Y-80312202D01*
X138079131Y-80387644D01*
X138027522Y-80444962D01*
X138014015Y-80452760D01*
X137906632Y-80507474D01*
X137906629Y-80507476D01*
X137745455Y-80624575D01*
X137604575Y-80765455D01*
X137487478Y-80926624D01*
X137487474Y-80926632D01*
X137397035Y-81104129D01*
X137397028Y-81104146D01*
X137343165Y-81269920D01*
X137335466Y-81293614D01*
X137304300Y-81490387D01*
X137304300Y-81689613D01*
X137335466Y-81886386D01*
X137397030Y-82075860D01*
X137397034Y-82075869D01*
X137397035Y-82075870D01*
X137487474Y-82253367D01*
X137487478Y-82253375D01*
X137603734Y-82413387D01*
X137604578Y-82414548D01*
X137745452Y-82555422D01*
X137745455Y-82555424D01*
X137906624Y-82672521D01*
X137906629Y-82672524D01*
X138014015Y-82727240D01*
X138071333Y-82778849D01*
X138095167Y-82852202D01*
X138079131Y-82927644D01*
X138027522Y-82984962D01*
X138014015Y-82992760D01*
X137906632Y-83047474D01*
X137906629Y-83047476D01*
X137745455Y-83164575D01*
X137604575Y-83305455D01*
X137487478Y-83466624D01*
X137487474Y-83466632D01*
X137397035Y-83644129D01*
X137397032Y-83644135D01*
X137397030Y-83644140D01*
X137335466Y-83833614D01*
X137304300Y-84030387D01*
X137304300Y-84229613D01*
X137335466Y-84426386D01*
X137397030Y-84615860D01*
X137397034Y-84615869D01*
X137397035Y-84615870D01*
X137487474Y-84793367D01*
X137487478Y-84793375D01*
X137603928Y-84953653D01*
X137604578Y-84954548D01*
X137745452Y-85095422D01*
X137745455Y-85095424D01*
X137906624Y-85212521D01*
X137906629Y-85212524D01*
X138084140Y-85302970D01*
X138273614Y-85364534D01*
X138470387Y-85395700D01*
X138470392Y-85395700D01*
X138669608Y-85395700D01*
X138669613Y-85395700D01*
X138866386Y-85364534D01*
X139055860Y-85302970D01*
X139233371Y-85212524D01*
X139394548Y-85095422D01*
X139535422Y-84954548D01*
X139652524Y-84793371D01*
X139742970Y-84615860D01*
X139804534Y-84426386D01*
X139835700Y-84229613D01*
X139835700Y-84030387D01*
X139804534Y-83833614D01*
X139742970Y-83644140D01*
X139652524Y-83466629D01*
X139652522Y-83466626D01*
X139652521Y-83466624D01*
X139535424Y-83305455D01*
X139535422Y-83305452D01*
X139394548Y-83164578D01*
X139233371Y-83047476D01*
X139233368Y-83047474D01*
X139125984Y-82992760D01*
X139068666Y-82941152D01*
X139044832Y-82867799D01*
X139060868Y-82792356D01*
X139112476Y-82735038D01*
X139125984Y-82727240D01*
X139126536Y-82726959D01*
X139233371Y-82672524D01*
X139394548Y-82555422D01*
X139535422Y-82414548D01*
X139652524Y-82253371D01*
X139742970Y-82075860D01*
X139804534Y-81886386D01*
X139835700Y-81689613D01*
X139835700Y-81490387D01*
X139804534Y-81293614D01*
X139742970Y-81104140D01*
X139652524Y-80926629D01*
X139652522Y-80926626D01*
X139652521Y-80926624D01*
X139535424Y-80765455D01*
X139535422Y-80765452D01*
X139394548Y-80624578D01*
X139233371Y-80507476D01*
X139233368Y-80507474D01*
X139125984Y-80452760D01*
X139068666Y-80401152D01*
X139044832Y-80327799D01*
X139060868Y-80252356D01*
X139112476Y-80195038D01*
X139125984Y-80187240D01*
X139233371Y-80132524D01*
X139233375Y-80132521D01*
X139394548Y-80015422D01*
X139535422Y-79874548D01*
X139652524Y-79713371D01*
X139742970Y-79535860D01*
X139804534Y-79346386D01*
X139835700Y-79149613D01*
X139835700Y-78950387D01*
X139804534Y-78753614D01*
X139742970Y-78564140D01*
X139652524Y-78386629D01*
X139652522Y-78386626D01*
X139652521Y-78386624D01*
X139535424Y-78225455D01*
X139535422Y-78225452D01*
X139394548Y-78084578D01*
X139233371Y-77967476D01*
X139233368Y-77967474D01*
X139125984Y-77912760D01*
X139068666Y-77861152D01*
X139044832Y-77787799D01*
X139060868Y-77712356D01*
X139112476Y-77655038D01*
X139125984Y-77647240D01*
X139233371Y-77592524D01*
X139233375Y-77592521D01*
X139255390Y-77576526D01*
X139394548Y-77475422D01*
X139535422Y-77334548D01*
X139652524Y-77173371D01*
X139742970Y-76995860D01*
X139804534Y-76806386D01*
X139835700Y-76609613D01*
X139835700Y-76410387D01*
X139804534Y-76213614D01*
X139742970Y-76024140D01*
X139652524Y-75846629D01*
X139652522Y-75846626D01*
X139652521Y-75846624D01*
X139535424Y-75685455D01*
X139535422Y-75685452D01*
X139394548Y-75544578D01*
X139233371Y-75427476D01*
X139233368Y-75427474D01*
X139125984Y-75372760D01*
X139068666Y-75321152D01*
X139044832Y-75247799D01*
X139060868Y-75172356D01*
X139112476Y-75115038D01*
X139125984Y-75107240D01*
X139233371Y-75052524D01*
X139233375Y-75052521D01*
X139394548Y-74935422D01*
X139535422Y-74794548D01*
X139652524Y-74633371D01*
X139742970Y-74455860D01*
X139804534Y-74266386D01*
X139835700Y-74069613D01*
X139835700Y-73870387D01*
X139804534Y-73673614D01*
X139742970Y-73484140D01*
X139652524Y-73306629D01*
X139652522Y-73306626D01*
X139652521Y-73306624D01*
X139535424Y-73145455D01*
X139535422Y-73145452D01*
X139394548Y-73004578D01*
X139233371Y-72887476D01*
X139233368Y-72887474D01*
X139125984Y-72832760D01*
X139068666Y-72781152D01*
X139044832Y-72707799D01*
X139060868Y-72632356D01*
X139112476Y-72575038D01*
X139125984Y-72567240D01*
X139233371Y-72512524D01*
X139233375Y-72512521D01*
X139276636Y-72481090D01*
X139394548Y-72395422D01*
X139535422Y-72254548D01*
X139652524Y-72093371D01*
X139742970Y-71915860D01*
X139804534Y-71726386D01*
X139835700Y-71529613D01*
X139835700Y-71330387D01*
X139804534Y-71133614D01*
X139742970Y-70944140D01*
X139652524Y-70766629D01*
X139652522Y-70766626D01*
X139652521Y-70766624D01*
X139535424Y-70605455D01*
X139535422Y-70605452D01*
X139394548Y-70464578D01*
X139233371Y-70347476D01*
X139233368Y-70347474D01*
X139125984Y-70292760D01*
X139068666Y-70241152D01*
X139044832Y-70167799D01*
X139060868Y-70092356D01*
X139112476Y-70035038D01*
X139125984Y-70027240D01*
X139233371Y-69972524D01*
X139233375Y-69972521D01*
X139394548Y-69855422D01*
X139535422Y-69714548D01*
X139652524Y-69553371D01*
X139742970Y-69375860D01*
X139804534Y-69186386D01*
X139835700Y-68989613D01*
X139835700Y-68790387D01*
X139804534Y-68593614D01*
X139742970Y-68404140D01*
X139652524Y-68226629D01*
X139652522Y-68226626D01*
X139652521Y-68226624D01*
X139535424Y-68065455D01*
X139535422Y-68065452D01*
X139394548Y-67924578D01*
X139233371Y-67807476D01*
X139233368Y-67807474D01*
X139125984Y-67752760D01*
X139068666Y-67701152D01*
X139044832Y-67627799D01*
X139060868Y-67552356D01*
X139112476Y-67495038D01*
X139125984Y-67487240D01*
X139233371Y-67432524D01*
X139233375Y-67432521D01*
X139394548Y-67315422D01*
X139535422Y-67174548D01*
X139652524Y-67013371D01*
X139742970Y-66835860D01*
X139804534Y-66646386D01*
X139835700Y-66449613D01*
X139835700Y-66250387D01*
X160164300Y-66250387D01*
X160164300Y-66449613D01*
X160195466Y-66646386D01*
X160257030Y-66835860D01*
X160257034Y-66835869D01*
X160257035Y-66835870D01*
X160347474Y-67013367D01*
X160347478Y-67013375D01*
X160414145Y-67105133D01*
X160464578Y-67174548D01*
X160605452Y-67315422D01*
X160605455Y-67315424D01*
X160766624Y-67432521D01*
X160766629Y-67432524D01*
X160874015Y-67487240D01*
X160931333Y-67538849D01*
X160955167Y-67612202D01*
X160939131Y-67687644D01*
X160887522Y-67744962D01*
X160874015Y-67752760D01*
X160766632Y-67807474D01*
X160766629Y-67807476D01*
X160605455Y-67924575D01*
X160464575Y-68065455D01*
X160347478Y-68226624D01*
X160347474Y-68226632D01*
X160257035Y-68404129D01*
X160257032Y-68404135D01*
X160257030Y-68404140D01*
X160195466Y-68593614D01*
X160164300Y-68790387D01*
X160164300Y-68989613D01*
X160195466Y-69186386D01*
X160257030Y-69375860D01*
X160257034Y-69375869D01*
X160257035Y-69375870D01*
X160347474Y-69553367D01*
X160347478Y-69553375D01*
X160453431Y-69699206D01*
X160464578Y-69714548D01*
X160605452Y-69855422D01*
X160605455Y-69855424D01*
X160766624Y-69972521D01*
X160766629Y-69972524D01*
X160874015Y-70027240D01*
X160931333Y-70078849D01*
X160955167Y-70152202D01*
X160939131Y-70227644D01*
X160887522Y-70284962D01*
X160874015Y-70292760D01*
X160766632Y-70347474D01*
X160766629Y-70347476D01*
X160605455Y-70464575D01*
X160464575Y-70605455D01*
X160347478Y-70766624D01*
X160347474Y-70766632D01*
X160257035Y-70944129D01*
X160257028Y-70944146D01*
X160223948Y-71045957D01*
X160195466Y-71133614D01*
X160164300Y-71330387D01*
X160164300Y-71529613D01*
X160195466Y-71726386D01*
X160257030Y-71915860D01*
X160257034Y-71915869D01*
X160257035Y-71915870D01*
X160347474Y-72093367D01*
X160347478Y-72093375D01*
X160464575Y-72254544D01*
X160464578Y-72254548D01*
X160605452Y-72395422D01*
X160616214Y-72403241D01*
X160766624Y-72512521D01*
X160766629Y-72512524D01*
X160874015Y-72567240D01*
X160931333Y-72618849D01*
X160955167Y-72692202D01*
X160939131Y-72767644D01*
X160887522Y-72824962D01*
X160874015Y-72832760D01*
X160766632Y-72887474D01*
X160766629Y-72887476D01*
X160605455Y-73004575D01*
X160464575Y-73145455D01*
X160347478Y-73306624D01*
X160347474Y-73306632D01*
X160257035Y-73484129D01*
X160257032Y-73484135D01*
X160257030Y-73484140D01*
X160195466Y-73673614D01*
X160164300Y-73870387D01*
X160164300Y-74069613D01*
X160195466Y-74266386D01*
X160257030Y-74455860D01*
X160257034Y-74455869D01*
X160257035Y-74455870D01*
X160347474Y-74633367D01*
X160347478Y-74633375D01*
X160379652Y-74677658D01*
X160464578Y-74794548D01*
X160605452Y-74935422D01*
X160605455Y-74935424D01*
X160766624Y-75052521D01*
X160766629Y-75052524D01*
X160874015Y-75107240D01*
X160931333Y-75158849D01*
X160955167Y-75232202D01*
X160939131Y-75307644D01*
X160887522Y-75364962D01*
X160874015Y-75372760D01*
X160766632Y-75427474D01*
X160766629Y-75427476D01*
X160605455Y-75544575D01*
X160464575Y-75685455D01*
X160347478Y-75846624D01*
X160347474Y-75846632D01*
X160257035Y-76024129D01*
X160257028Y-76024146D01*
X160198290Y-76204924D01*
X160195466Y-76213614D01*
X160164300Y-76410387D01*
X160164300Y-76609613D01*
X160195466Y-76806386D01*
X160257030Y-76995860D01*
X160257034Y-76995869D01*
X160257035Y-76995870D01*
X160347474Y-77173367D01*
X160347478Y-77173375D01*
X160427011Y-77282842D01*
X160464578Y-77334548D01*
X160605452Y-77475422D01*
X160605455Y-77475424D01*
X160766624Y-77592521D01*
X160766629Y-77592524D01*
X160874015Y-77647240D01*
X160931333Y-77698849D01*
X160955167Y-77772202D01*
X160939131Y-77847644D01*
X160887522Y-77904962D01*
X160874015Y-77912760D01*
X160766632Y-77967474D01*
X160766629Y-77967476D01*
X160605455Y-78084575D01*
X160464575Y-78225455D01*
X160347478Y-78386624D01*
X160347474Y-78386632D01*
X160257035Y-78564129D01*
X160257032Y-78564135D01*
X160257030Y-78564140D01*
X160195466Y-78753614D01*
X160164300Y-78950387D01*
X160164300Y-79149613D01*
X160195466Y-79346386D01*
X160257030Y-79535860D01*
X160257034Y-79535869D01*
X160257035Y-79535870D01*
X160347474Y-79713367D01*
X160347478Y-79713375D01*
X160464575Y-79874544D01*
X160464578Y-79874548D01*
X160605452Y-80015422D01*
X160605455Y-80015424D01*
X160766624Y-80132521D01*
X160766629Y-80132524D01*
X160874565Y-80187520D01*
X160931883Y-80239128D01*
X160955717Y-80312482D01*
X160939681Y-80387924D01*
X160888073Y-80445242D01*
X160874567Y-80453039D01*
X160766894Y-80507901D01*
X160766889Y-80507905D01*
X160688037Y-80565194D01*
X160688037Y-80565195D01*
X161326471Y-81203629D01*
X161275606Y-81217259D01*
X161184394Y-81269920D01*
X161109920Y-81344394D01*
X161057259Y-81435606D01*
X161043629Y-81486471D01*
X160405195Y-80848037D01*
X160405194Y-80848037D01*
X160347905Y-80926889D01*
X160257492Y-81104333D01*
X160195954Y-81293729D01*
X160164800Y-81490431D01*
X160164800Y-81689568D01*
X160195954Y-81886270D01*
X160257492Y-82075666D01*
X160347905Y-82253110D01*
X160405194Y-82331961D01*
X160405195Y-82331962D01*
X161043629Y-81693526D01*
X161057259Y-81744394D01*
X161109920Y-81835606D01*
X161184394Y-81910080D01*
X161275606Y-81962741D01*
X161326471Y-81976370D01*
X160688037Y-82614804D01*
X160766880Y-82672089D01*
X160766889Y-82672094D01*
X160874566Y-82726959D01*
X160931883Y-82778568D01*
X160955717Y-82851921D01*
X160939681Y-82927364D01*
X160888072Y-82984681D01*
X160874566Y-82992479D01*
X160766626Y-83047477D01*
X160605455Y-83164575D01*
X160464575Y-83305455D01*
X160347478Y-83466624D01*
X160347474Y-83466632D01*
X160257035Y-83644129D01*
X160257032Y-83644135D01*
X160257030Y-83644140D01*
X160195466Y-83833614D01*
X160164300Y-84030387D01*
X160164300Y-84229613D01*
X160195466Y-84426386D01*
X160257030Y-84615860D01*
X160257034Y-84615869D01*
X160257035Y-84615870D01*
X160347474Y-84793367D01*
X160347478Y-84793375D01*
X160463928Y-84953653D01*
X160464578Y-84954548D01*
X160605452Y-85095422D01*
X160605455Y-85095424D01*
X160766624Y-85212521D01*
X160766629Y-85212524D01*
X160944140Y-85302970D01*
X161133614Y-85364534D01*
X161330387Y-85395700D01*
X161330392Y-85395700D01*
X161529608Y-85395700D01*
X161529613Y-85395700D01*
X161726386Y-85364534D01*
X161915860Y-85302970D01*
X162093371Y-85212524D01*
X162254548Y-85095422D01*
X162395422Y-84954548D01*
X162512524Y-84793371D01*
X162602970Y-84615860D01*
X162664534Y-84426386D01*
X162695700Y-84229613D01*
X162695700Y-84030387D01*
X162664534Y-83833614D01*
X162602970Y-83644140D01*
X162512524Y-83466629D01*
X162512522Y-83466626D01*
X162512521Y-83466624D01*
X162395424Y-83305455D01*
X162395422Y-83305452D01*
X162254548Y-83164578D01*
X162093371Y-83047476D01*
X161985764Y-82992648D01*
X171704500Y-82992648D01*
X171704500Y-83197352D01*
X171736523Y-83399534D01*
X171758324Y-83466632D01*
X171799778Y-83594212D01*
X171799782Y-83594224D01*
X171892714Y-83776612D01*
X172013028Y-83942212D01*
X172013035Y-83942220D01*
X172157779Y-84086964D01*
X172157787Y-84086971D01*
X172323387Y-84207285D01*
X172323390Y-84207287D01*
X172367207Y-84229613D01*
X172372911Y-84232519D01*
X172430228Y-84284127D01*
X172454063Y-84357480D01*
X172438027Y-84432923D01*
X172386419Y-84490240D01*
X172372914Y-84498038D01*
X172323652Y-84523138D01*
X172238122Y-84585278D01*
X172819823Y-85166980D01*
X172812007Y-85169075D01*
X172697993Y-85234901D01*
X172604901Y-85327993D01*
X172539075Y-85442007D01*
X172536980Y-85449823D01*
X171955278Y-84868122D01*
X171893137Y-84953653D01*
X171893137Y-84953655D01*
X171800248Y-85135961D01*
X171800241Y-85135979D01*
X171737010Y-85330583D01*
X171705000Y-85532692D01*
X171705000Y-85737307D01*
X171737010Y-85939416D01*
X171800241Y-86134020D01*
X171800246Y-86134032D01*
X171893141Y-86316349D01*
X171893145Y-86316356D01*
X171955278Y-86401876D01*
X171955279Y-86401876D01*
X172536980Y-85820174D01*
X172539075Y-85827993D01*
X172604901Y-85942007D01*
X172697993Y-86035099D01*
X172812007Y-86100925D01*
X172819822Y-86103019D01*
X172238122Y-86684719D01*
X172323649Y-86746858D01*
X172505967Y-86839753D01*
X172505979Y-86839758D01*
X172700583Y-86902989D01*
X172902693Y-86935000D01*
X173107307Y-86935000D01*
X173309416Y-86902989D01*
X173504020Y-86839758D01*
X173504038Y-86839751D01*
X173686346Y-86746861D01*
X173686352Y-86746857D01*
X173771876Y-86684720D01*
X173771876Y-86684719D01*
X173190177Y-86103019D01*
X173197993Y-86100925D01*
X173312007Y-86035099D01*
X173405099Y-85942007D01*
X173470925Y-85827993D01*
X173473019Y-85820176D01*
X174054719Y-86401876D01*
X174054720Y-86401876D01*
X174116857Y-86316352D01*
X174116861Y-86316346D01*
X174209751Y-86134038D01*
X174209758Y-86134020D01*
X174272989Y-85939416D01*
X174305000Y-85737307D01*
X174305000Y-85532692D01*
X174272989Y-85330583D01*
X174209758Y-85135979D01*
X174209753Y-85135967D01*
X174116858Y-84953650D01*
X174116858Y-84953649D01*
X174054719Y-84868122D01*
X173473019Y-85449821D01*
X173470925Y-85442007D01*
X173405099Y-85327993D01*
X173312007Y-85234901D01*
X173197993Y-85169075D01*
X173190174Y-85166980D01*
X173771876Y-84585279D01*
X173771876Y-84585278D01*
X173686356Y-84523145D01*
X173686349Y-84523141D01*
X173637086Y-84498040D01*
X173579769Y-84446431D01*
X173555935Y-84373078D01*
X173571971Y-84297635D01*
X173623580Y-84240318D01*
X173637083Y-84232522D01*
X173686610Y-84207287D01*
X173852219Y-84086966D01*
X173996966Y-83942219D01*
X174117287Y-83776610D01*
X174210220Y-83594219D01*
X174273477Y-83399534D01*
X174305500Y-83197352D01*
X174305500Y-82992648D01*
X194704500Y-82992648D01*
X194704500Y-83197352D01*
X194736523Y-83399534D01*
X194758324Y-83466632D01*
X194799778Y-83594212D01*
X194799782Y-83594224D01*
X194892714Y-83776612D01*
X195013028Y-83942212D01*
X195013035Y-83942220D01*
X195157779Y-84086964D01*
X195157787Y-84086971D01*
X195323387Y-84207285D01*
X195323390Y-84207287D01*
X195505781Y-84300220D01*
X195700466Y-84363477D01*
X195902648Y-84395500D01*
X195902653Y-84395500D01*
X196107347Y-84395500D01*
X196107352Y-84395500D01*
X196309534Y-84363477D01*
X196504219Y-84300220D01*
X196686610Y-84207287D01*
X196852219Y-84086966D01*
X196996966Y-83942219D01*
X197117287Y-83776610D01*
X197210220Y-83594219D01*
X197273477Y-83399534D01*
X197305500Y-83197352D01*
X197305500Y-82992648D01*
X197273477Y-82790466D01*
X197210220Y-82595781D01*
X197117287Y-82413390D01*
X197058126Y-82331961D01*
X196996971Y-82247787D01*
X196996964Y-82247779D01*
X196852220Y-82103035D01*
X196852212Y-82103028D01*
X196686612Y-81982714D01*
X196504224Y-81889782D01*
X196504220Y-81889780D01*
X196504219Y-81889780D01*
X196309534Y-81826523D01*
X196107352Y-81794500D01*
X195902648Y-81794500D01*
X195734163Y-81821185D01*
X195700465Y-81826523D01*
X195505787Y-81889778D01*
X195505775Y-81889782D01*
X195323387Y-81982714D01*
X195157787Y-82103028D01*
X195157779Y-82103035D01*
X195013035Y-82247779D01*
X195013028Y-82247787D01*
X194892714Y-82413387D01*
X194799782Y-82595775D01*
X194799778Y-82595787D01*
X194736523Y-82790465D01*
X194731127Y-82824534D01*
X194704500Y-82992648D01*
X174305500Y-82992648D01*
X174273477Y-82790466D01*
X174210220Y-82595781D01*
X174117287Y-82413390D01*
X174058126Y-82331961D01*
X173996971Y-82247787D01*
X173996964Y-82247779D01*
X173852220Y-82103035D01*
X173852212Y-82103028D01*
X173686612Y-81982714D01*
X173504224Y-81889782D01*
X173504220Y-81889780D01*
X173504219Y-81889780D01*
X173309534Y-81826523D01*
X173107352Y-81794500D01*
X172902648Y-81794500D01*
X172734163Y-81821185D01*
X172700465Y-81826523D01*
X172505787Y-81889778D01*
X172505775Y-81889782D01*
X172323387Y-81982714D01*
X172157787Y-82103028D01*
X172157779Y-82103035D01*
X172013035Y-82247779D01*
X172013028Y-82247787D01*
X171892714Y-82413387D01*
X171799782Y-82595775D01*
X171799778Y-82595787D01*
X171736523Y-82790465D01*
X171731127Y-82824534D01*
X171704500Y-82992648D01*
X161985764Y-82992648D01*
X161980626Y-82990030D01*
X161976010Y-82987240D01*
X161952902Y-82963188D01*
X161928116Y-82940870D01*
X161926406Y-82935609D01*
X161922575Y-82931621D01*
X161914589Y-82899241D01*
X161904282Y-82867517D01*
X161905432Y-82862106D01*
X161904108Y-82856737D01*
X161913382Y-82824701D01*
X161920318Y-82792074D01*
X161924018Y-82787963D01*
X161925557Y-82782651D01*
X161949608Y-82759543D01*
X161971927Y-82734757D01*
X161980651Y-82729720D01*
X161981176Y-82729216D01*
X161981784Y-82729065D01*
X161985434Y-82726959D01*
X162093105Y-82672097D01*
X162093112Y-82672093D01*
X162171961Y-82614804D01*
X162171961Y-82614803D01*
X161533528Y-81976370D01*
X161584394Y-81962741D01*
X161675606Y-81910080D01*
X161750080Y-81835606D01*
X161802741Y-81744394D01*
X161816370Y-81693528D01*
X162454803Y-82331961D01*
X162454804Y-82331961D01*
X162512093Y-82253112D01*
X162512094Y-82253110D01*
X162602507Y-82075666D01*
X162664045Y-81886270D01*
X162695200Y-81689568D01*
X162695200Y-81490431D01*
X162664045Y-81293729D01*
X162602507Y-81104333D01*
X162512094Y-80926889D01*
X162512089Y-80926880D01*
X162454804Y-80848037D01*
X161816370Y-81486470D01*
X161802741Y-81435606D01*
X161750080Y-81344394D01*
X161675606Y-81269920D01*
X161584394Y-81217259D01*
X161533526Y-81203629D01*
X162171962Y-80565195D01*
X162171961Y-80565194D01*
X162093110Y-80507905D01*
X162093110Y-80507904D01*
X161985433Y-80453040D01*
X161928116Y-80401431D01*
X161904282Y-80328077D01*
X161920318Y-80252635D01*
X161971927Y-80195318D01*
X161985427Y-80187523D01*
X162093371Y-80132524D01*
X162254548Y-80015422D01*
X162395422Y-79874548D01*
X162512524Y-79713371D01*
X162602970Y-79535860D01*
X162664534Y-79346386D01*
X162695700Y-79149613D01*
X162695700Y-78950387D01*
X162664534Y-78753614D01*
X162602970Y-78564140D01*
X162512524Y-78386629D01*
X162512522Y-78386626D01*
X162512521Y-78386624D01*
X162395424Y-78225455D01*
X162395422Y-78225452D01*
X162254548Y-78084578D01*
X162093371Y-77967476D01*
X162093368Y-77967474D01*
X161985984Y-77912760D01*
X161928666Y-77861152D01*
X161904832Y-77787799D01*
X161920868Y-77712356D01*
X161972476Y-77655038D01*
X161985984Y-77647240D01*
X162093371Y-77592524D01*
X162093375Y-77592521D01*
X162115390Y-77576526D01*
X162254548Y-77475422D01*
X162395422Y-77334548D01*
X162512524Y-77173371D01*
X162602970Y-76995860D01*
X162664534Y-76806386D01*
X162695700Y-76609613D01*
X162695700Y-76410387D01*
X162695147Y-76406894D01*
X165467121Y-76406894D01*
X165467121Y-77593105D01*
X165477743Y-77681563D01*
X165533259Y-77822341D01*
X165623092Y-77940804D01*
X165624699Y-77942922D01*
X165745279Y-78034361D01*
X165886057Y-78089877D01*
X165974519Y-78100500D01*
X165974520Y-78100500D01*
X167160722Y-78100500D01*
X167160723Y-78100500D01*
X167249185Y-78089877D01*
X167389963Y-78034361D01*
X167510543Y-77942922D01*
X167601982Y-77822342D01*
X167657498Y-77681564D01*
X167668121Y-77593102D01*
X167668121Y-76913432D01*
X167967621Y-76913432D01*
X167967621Y-77086567D01*
X167994707Y-77257586D01*
X168048211Y-77422253D01*
X168126818Y-77576526D01*
X168161085Y-77623691D01*
X168161086Y-77623691D01*
X168681250Y-77103526D01*
X168694880Y-77154394D01*
X168747541Y-77245606D01*
X168822015Y-77320080D01*
X168913227Y-77372741D01*
X168964092Y-77386370D01*
X168443928Y-77906534D01*
X168491093Y-77940802D01*
X168491094Y-77940803D01*
X168645367Y-78019409D01*
X168810034Y-78072913D01*
X168981054Y-78100000D01*
X169154188Y-78100000D01*
X169325207Y-78072913D01*
X169489874Y-78019409D01*
X169644146Y-77940804D01*
X169691312Y-77906534D01*
X169691312Y-77906533D01*
X169171149Y-77386370D01*
X169222015Y-77372741D01*
X169313227Y-77320080D01*
X169387701Y-77245606D01*
X169440362Y-77154394D01*
X169453991Y-77103528D01*
X169974154Y-77623691D01*
X169974155Y-77623691D01*
X170008425Y-77576525D01*
X170087030Y-77422253D01*
X170140534Y-77257586D01*
X170167621Y-77086567D01*
X170167621Y-76913432D01*
X170140534Y-76742413D01*
X170087030Y-76577746D01*
X170008424Y-76423473D01*
X170008423Y-76423472D01*
X169974155Y-76376307D01*
X169453991Y-76896470D01*
X169440362Y-76845606D01*
X169387701Y-76754394D01*
X169313227Y-76679920D01*
X169222015Y-76627259D01*
X169171147Y-76613629D01*
X169691312Y-76093465D01*
X169691312Y-76093464D01*
X169644147Y-76059197D01*
X169644147Y-76059196D01*
X169489874Y-75980590D01*
X169325207Y-75927086D01*
X169154188Y-75900000D01*
X168981054Y-75900000D01*
X168810034Y-75927086D01*
X168645367Y-75980590D01*
X168491098Y-76059195D01*
X168443928Y-76093465D01*
X168964092Y-76613629D01*
X168913227Y-76627259D01*
X168822015Y-76679920D01*
X168747541Y-76754394D01*
X168694880Y-76845606D01*
X168681250Y-76896471D01*
X168161086Y-76376307D01*
X168126816Y-76423477D01*
X168048211Y-76577746D01*
X167994707Y-76742413D01*
X167967621Y-76913432D01*
X167668121Y-76913432D01*
X167668121Y-76406898D01*
X167657498Y-76318436D01*
X167657497Y-76318433D01*
X167612735Y-76204924D01*
X167612731Y-76204916D01*
X167601982Y-76177658D01*
X167538136Y-76093465D01*
X167510544Y-76057079D01*
X167510541Y-76057076D01*
X167463603Y-76021482D01*
X167389963Y-75965639D01*
X167389962Y-75965638D01*
X167249184Y-75910122D01*
X167160726Y-75899500D01*
X167160723Y-75899500D01*
X165974519Y-75899500D01*
X165974515Y-75899500D01*
X165886057Y-75910122D01*
X165745279Y-75965638D01*
X165745279Y-75965639D01*
X165624700Y-76057076D01*
X165624697Y-76057079D01*
X165533260Y-76177658D01*
X165533259Y-76177658D01*
X165477743Y-76318436D01*
X165467121Y-76406894D01*
X162695147Y-76406894D01*
X162664534Y-76213614D01*
X162602970Y-76024140D01*
X162512524Y-75846629D01*
X162512522Y-75846626D01*
X162512521Y-75846624D01*
X162395424Y-75685455D01*
X162395422Y-75685452D01*
X162254548Y-75544578D01*
X162093371Y-75427476D01*
X162093368Y-75427474D01*
X161985984Y-75372760D01*
X161928666Y-75321152D01*
X161904832Y-75247799D01*
X161920868Y-75172356D01*
X161972476Y-75115038D01*
X161985984Y-75107240D01*
X162093371Y-75052524D01*
X162093375Y-75052521D01*
X162254548Y-74935422D01*
X162283076Y-74906894D01*
X188399500Y-74906894D01*
X188399500Y-77093105D01*
X188410122Y-77181563D01*
X188465638Y-77322341D01*
X188465639Y-77322342D01*
X188557078Y-77442922D01*
X188677658Y-77534361D01*
X188818436Y-77589877D01*
X188906898Y-77600500D01*
X188906899Y-77600500D01*
X191093101Y-77600500D01*
X191093102Y-77600500D01*
X191181564Y-77589877D01*
X191322342Y-77534361D01*
X191442922Y-77442922D01*
X191534361Y-77322342D01*
X191589877Y-77181564D01*
X191600500Y-77093102D01*
X191600500Y-74906898D01*
X191589877Y-74818436D01*
X191534361Y-74677658D01*
X191442922Y-74557078D01*
X191442920Y-74557076D01*
X191395982Y-74521482D01*
X191322342Y-74465639D01*
X191322341Y-74465638D01*
X191181563Y-74410122D01*
X191093105Y-74399500D01*
X191093102Y-74399500D01*
X188906898Y-74399500D01*
X188906894Y-74399500D01*
X188818436Y-74410122D01*
X188677658Y-74465638D01*
X188677658Y-74465639D01*
X188557079Y-74557076D01*
X188557076Y-74557079D01*
X188465639Y-74677658D01*
X188465638Y-74677658D01*
X188410122Y-74818436D01*
X188399500Y-74906894D01*
X162283076Y-74906894D01*
X162395422Y-74794548D01*
X162512524Y-74633371D01*
X162602970Y-74455860D01*
X162664534Y-74266386D01*
X162695700Y-74069613D01*
X162695700Y-73870387D01*
X162664534Y-73673614D01*
X162602970Y-73484140D01*
X162512524Y-73306629D01*
X162512522Y-73306626D01*
X162512521Y-73306624D01*
X162395424Y-73145455D01*
X162395422Y-73145452D01*
X162254548Y-73004578D01*
X162093371Y-72887476D01*
X162093368Y-72887474D01*
X161985984Y-72832760D01*
X161928666Y-72781152D01*
X161904832Y-72707799D01*
X161920868Y-72632356D01*
X161972476Y-72575038D01*
X161985984Y-72567240D01*
X162093371Y-72512524D01*
X162093375Y-72512521D01*
X162136636Y-72481090D01*
X162254548Y-72395422D01*
X162395422Y-72254548D01*
X162512524Y-72093371D01*
X162602970Y-71915860D01*
X162664534Y-71726386D01*
X162695700Y-71529613D01*
X162695700Y-71330387D01*
X162664534Y-71133614D01*
X162602970Y-70944140D01*
X162526490Y-70794038D01*
X188399500Y-70794038D01*
X188399500Y-71045962D01*
X188438910Y-71294785D01*
X188516759Y-71534379D01*
X188631130Y-71758845D01*
X188779207Y-71962656D01*
X188957344Y-72140793D01*
X189161155Y-72288870D01*
X189385621Y-72403241D01*
X189625215Y-72481090D01*
X189874038Y-72520500D01*
X189874043Y-72520500D01*
X190125957Y-72520500D01*
X190125962Y-72520500D01*
X190374785Y-72481090D01*
X190614379Y-72403241D01*
X190838845Y-72288870D01*
X191042656Y-72140793D01*
X191220793Y-71962656D01*
X191368870Y-71758845D01*
X191483241Y-71534379D01*
X191561090Y-71294785D01*
X191600500Y-71045962D01*
X191600500Y-70794038D01*
X191561090Y-70545215D01*
X191483241Y-70305621D01*
X191368870Y-70081155D01*
X191220793Y-69877344D01*
X191042656Y-69699207D01*
X190838845Y-69551130D01*
X190614379Y-69436759D01*
X190374785Y-69358910D01*
X190125962Y-69319500D01*
X189874038Y-69319500D01*
X189666685Y-69352341D01*
X189625214Y-69358910D01*
X189385627Y-69436757D01*
X189385621Y-69436759D01*
X189385615Y-69436761D01*
X189385615Y-69436762D01*
X189161153Y-69551131D01*
X189161152Y-69551131D01*
X188957345Y-69699206D01*
X188957342Y-69699208D01*
X188779208Y-69877342D01*
X188779206Y-69877345D01*
X188631131Y-70081152D01*
X188631131Y-70081153D01*
X188516762Y-70305615D01*
X188516757Y-70305627D01*
X188465111Y-70464578D01*
X188438910Y-70545215D01*
X188399500Y-70794038D01*
X162526490Y-70794038D01*
X162512524Y-70766629D01*
X162512523Y-70766628D01*
X162512521Y-70766624D01*
X162395424Y-70605455D01*
X162395422Y-70605452D01*
X162254548Y-70464578D01*
X162093371Y-70347476D01*
X162093368Y-70347474D01*
X161985984Y-70292760D01*
X161928666Y-70241152D01*
X161904832Y-70167799D01*
X161920868Y-70092356D01*
X161972476Y-70035038D01*
X161985984Y-70027240D01*
X162093371Y-69972524D01*
X162093375Y-69972521D01*
X162254548Y-69855422D01*
X162395422Y-69714548D01*
X162512524Y-69553371D01*
X162602970Y-69375860D01*
X162664534Y-69186386D01*
X162695700Y-68989613D01*
X162695700Y-68790387D01*
X162664534Y-68593614D01*
X162602970Y-68404140D01*
X162512524Y-68226629D01*
X162512522Y-68226626D01*
X162512521Y-68226624D01*
X162395424Y-68065455D01*
X162395422Y-68065452D01*
X162254548Y-67924578D01*
X162093371Y-67807476D01*
X162093368Y-67807474D01*
X161985984Y-67752760D01*
X161928666Y-67701152D01*
X161904832Y-67627799D01*
X161920868Y-67552356D01*
X161972476Y-67495038D01*
X161985984Y-67487240D01*
X162093371Y-67432524D01*
X162093375Y-67432521D01*
X162254548Y-67315422D01*
X162395422Y-67174548D01*
X162512524Y-67013371D01*
X162602970Y-66835860D01*
X162664534Y-66646386D01*
X162695700Y-66449613D01*
X162695700Y-66250387D01*
X162664534Y-66053614D01*
X162602970Y-65864140D01*
X162512524Y-65686629D01*
X162512522Y-65686626D01*
X162512521Y-65686624D01*
X162395424Y-65525455D01*
X162395422Y-65525452D01*
X162254548Y-65384578D01*
X162093371Y-65267476D01*
X161915860Y-65177030D01*
X161726386Y-65115466D01*
X161529613Y-65084300D01*
X161330387Y-65084300D01*
X161166409Y-65110271D01*
X161133613Y-65115466D01*
X160944146Y-65177028D01*
X160944140Y-65177030D01*
X160944135Y-65177032D01*
X160944129Y-65177035D01*
X160766632Y-65267474D01*
X160766629Y-65267476D01*
X160605455Y-65384575D01*
X160464575Y-65525455D01*
X160347478Y-65686624D01*
X160347474Y-65686632D01*
X160257035Y-65864129D01*
X160257032Y-65864135D01*
X160257030Y-65864140D01*
X160195466Y-66053614D01*
X160164300Y-66250387D01*
X139835700Y-66250387D01*
X139804534Y-66053614D01*
X139742970Y-65864140D01*
X139652524Y-65686629D01*
X139652522Y-65686626D01*
X139652521Y-65686624D01*
X139535424Y-65525455D01*
X139535422Y-65525452D01*
X139394548Y-65384578D01*
X139233371Y-65267476D01*
X139055860Y-65177030D01*
X138866386Y-65115466D01*
X138669613Y-65084300D01*
X138470387Y-65084300D01*
X138306409Y-65110271D01*
X138273613Y-65115466D01*
X138084146Y-65177028D01*
X138084140Y-65177030D01*
X138084135Y-65177032D01*
X138084129Y-65177035D01*
X137906632Y-65267474D01*
X137906629Y-65267476D01*
X137745455Y-65384575D01*
X137604575Y-65525455D01*
X137487478Y-65686624D01*
X137487474Y-65686632D01*
X137397035Y-65864129D01*
X137397032Y-65864135D01*
X137397030Y-65864140D01*
X137335466Y-66053614D01*
X137304300Y-66250387D01*
X100500500Y-66250387D01*
X100500500Y-62829454D01*
X169349500Y-62829454D01*
X169349500Y-63010546D01*
X169377829Y-63189409D01*
X169433789Y-63361639D01*
X169516004Y-63522994D01*
X169622447Y-63669501D01*
X169750499Y-63797553D01*
X169897006Y-63903996D01*
X170058361Y-63986211D01*
X170230591Y-64042171D01*
X170230592Y-64042171D01*
X170230595Y-64042172D01*
X170234779Y-64042835D01*
X170305238Y-64074206D01*
X170350573Y-64136604D01*
X170358634Y-64213310D01*
X170327263Y-64283769D01*
X170264865Y-64329104D01*
X170234779Y-64337165D01*
X170230595Y-64337827D01*
X170058360Y-64393789D01*
X169897004Y-64476005D01*
X169897003Y-64476005D01*
X169750500Y-64582446D01*
X169750497Y-64582448D01*
X169622448Y-64710497D01*
X169622446Y-64710500D01*
X169516005Y-64857003D01*
X169516005Y-64857004D01*
X169433789Y-65018360D01*
X169433789Y-65018361D01*
X169377829Y-65190591D01*
X169349500Y-65369454D01*
X169349500Y-65550546D01*
X169377829Y-65729409D01*
X169433789Y-65901639D01*
X169516004Y-66062994D01*
X169622447Y-66209501D01*
X169750499Y-66337553D01*
X169897006Y-66443996D01*
X170058361Y-66526211D01*
X170158637Y-66558792D01*
X170223323Y-66600798D01*
X170258339Y-66669520D01*
X170254303Y-66746542D01*
X170212297Y-66811228D01*
X170143575Y-66846244D01*
X170112595Y-66849500D01*
X169605133Y-66849500D01*
X169580010Y-66852414D01*
X169580007Y-66852415D01*
X169477235Y-66897793D01*
X169397793Y-66977235D01*
X169352416Y-67080005D01*
X169352415Y-67080008D01*
X169352415Y-67080009D01*
X169349500Y-67105135D01*
X169349500Y-67105136D01*
X169349500Y-67105140D01*
X169349500Y-68894866D01*
X169352414Y-68919989D01*
X169352415Y-68919992D01*
X169397793Y-69022764D01*
X169397794Y-69022765D01*
X169477235Y-69102206D01*
X169580009Y-69147585D01*
X169605135Y-69150500D01*
X171394864Y-69150499D01*
X171394866Y-69150499D01*
X171407427Y-69149042D01*
X171419991Y-69147585D01*
X171522765Y-69102206D01*
X171602206Y-69022765D01*
X171647585Y-68919991D01*
X171650500Y-68894865D01*
X171650499Y-67105136D01*
X171647585Y-67080009D01*
X171647583Y-67080005D01*
X171602206Y-66977235D01*
X171522764Y-66897793D01*
X171419994Y-66852416D01*
X171419991Y-66852415D01*
X171419982Y-66852414D01*
X171394865Y-66849500D01*
X171394859Y-66849500D01*
X170887405Y-66849500D01*
X170812905Y-66829538D01*
X170758367Y-66775000D01*
X170738405Y-66700500D01*
X170758367Y-66626000D01*
X170812905Y-66571462D01*
X170841363Y-66558792D01*
X170941639Y-66526211D01*
X171102994Y-66443996D01*
X171249501Y-66337553D01*
X171377553Y-66209501D01*
X171483996Y-66062994D01*
X171566211Y-65901639D01*
X171622171Y-65729409D01*
X171624599Y-65714081D01*
X188400000Y-65714081D01*
X188400000Y-65965918D01*
X188439397Y-66214673D01*
X188517221Y-66454189D01*
X188631558Y-66678584D01*
X188735503Y-66821652D01*
X189419668Y-66137486D01*
X189423978Y-66147890D01*
X189495112Y-66254351D01*
X189585649Y-66344888D01*
X189692110Y-66416022D01*
X189702511Y-66420330D01*
X189018346Y-67104495D01*
X189018346Y-67104497D01*
X189161406Y-67208436D01*
X189161415Y-67208441D01*
X189385810Y-67322778D01*
X189625326Y-67400601D01*
X189625326Y-67400602D01*
X189874082Y-67440000D01*
X190125918Y-67440000D01*
X190374673Y-67400602D01*
X190374673Y-67400601D01*
X190614189Y-67322778D01*
X190838584Y-67208441D01*
X190981652Y-67104496D01*
X190981652Y-67104495D01*
X190297488Y-66420330D01*
X190307890Y-66416022D01*
X190414351Y-66344888D01*
X190504888Y-66254351D01*
X190576022Y-66147890D01*
X190580330Y-66137487D01*
X191264495Y-66821652D01*
X191264496Y-66821652D01*
X191368441Y-66678584D01*
X191482778Y-66454189D01*
X191560601Y-66214673D01*
X191560602Y-66214673D01*
X191600000Y-65965918D01*
X191600000Y-65714081D01*
X191560602Y-65465326D01*
X191482778Y-65225810D01*
X191368441Y-65001415D01*
X191368436Y-65001406D01*
X191264497Y-64858346D01*
X191264495Y-64858346D01*
X190580330Y-65542510D01*
X190576022Y-65532110D01*
X190504888Y-65425649D01*
X190414351Y-65335112D01*
X190307890Y-65263978D01*
X190297486Y-65259668D01*
X190981652Y-64575503D01*
X190981652Y-64575502D01*
X190838584Y-64471558D01*
X190614189Y-64357221D01*
X190374673Y-64279398D01*
X190374673Y-64279397D01*
X190125918Y-64240000D01*
X189874082Y-64240000D01*
X189625326Y-64279397D01*
X189625326Y-64279398D01*
X189385810Y-64357221D01*
X189161415Y-64471558D01*
X189018346Y-64575502D01*
X189018346Y-64575503D01*
X189702512Y-65259669D01*
X189692110Y-65263978D01*
X189585649Y-65335112D01*
X189495112Y-65425649D01*
X189423978Y-65532110D01*
X189419669Y-65542512D01*
X188735503Y-64858346D01*
X188735502Y-64858346D01*
X188631558Y-65001415D01*
X188517221Y-65225810D01*
X188439398Y-65465326D01*
X188439397Y-65465326D01*
X188400000Y-65714081D01*
X171624599Y-65714081D01*
X171650500Y-65550546D01*
X171650500Y-65369454D01*
X171622171Y-65190591D01*
X171566211Y-65018361D01*
X171483996Y-64857006D01*
X171377553Y-64710499D01*
X171249501Y-64582447D01*
X171102994Y-64476004D01*
X170941639Y-64393789D01*
X170769408Y-64337828D01*
X170765223Y-64337166D01*
X170694762Y-64305796D01*
X170649427Y-64243398D01*
X170641364Y-64166693D01*
X170672734Y-64096232D01*
X170735132Y-64050897D01*
X170765223Y-64042834D01*
X170765362Y-64042811D01*
X170769409Y-64042171D01*
X170941639Y-63986211D01*
X171102994Y-63903996D01*
X171249501Y-63797553D01*
X171377553Y-63669501D01*
X171483996Y-63522994D01*
X171566211Y-63361639D01*
X171622171Y-63189409D01*
X171650500Y-63010546D01*
X171650500Y-62829454D01*
X171622171Y-62650591D01*
X171566211Y-62478361D01*
X171483996Y-62317006D01*
X171377553Y-62170499D01*
X171249501Y-62042447D01*
X171102994Y-61936004D01*
X170941639Y-61853789D01*
X170769409Y-61797829D01*
X170590546Y-61769500D01*
X170409454Y-61769500D01*
X170230591Y-61797829D01*
X170058360Y-61853789D01*
X169897004Y-61936005D01*
X169897003Y-61936005D01*
X169750500Y-62042446D01*
X169750497Y-62042448D01*
X169622448Y-62170497D01*
X169622446Y-62170500D01*
X169516005Y-62317003D01*
X169516005Y-62317004D01*
X169433789Y-62478360D01*
X169433789Y-62478361D01*
X169377829Y-62650591D01*
X169349500Y-62829454D01*
X100500500Y-62829454D01*
X100500500Y-55398691D01*
X178309500Y-55398691D01*
X178309500Y-55561308D01*
X178341223Y-55720787D01*
X178403449Y-55871015D01*
X178403450Y-55871017D01*
X178403452Y-55871021D01*
X178493792Y-56006225D01*
X178493795Y-56006228D01*
X178497208Y-56009641D01*
X178535772Y-56076436D01*
X178535772Y-56153564D01*
X178497208Y-56220359D01*
X178493795Y-56223771D01*
X178493791Y-56223776D01*
X178403455Y-56358974D01*
X178403449Y-56358984D01*
X178341223Y-56509212D01*
X178309500Y-56668691D01*
X178309500Y-56831308D01*
X178341223Y-56990788D01*
X178341224Y-56990790D01*
X178405262Y-57145393D01*
X178415329Y-57221861D01*
X178385813Y-57293118D01*
X178372965Y-57307769D01*
X178358213Y-57322520D01*
X178358213Y-57322521D01*
X178312908Y-57425128D01*
X178310000Y-57450204D01*
X178310000Y-57820000D01*
X179042457Y-57820000D01*
X179010556Y-57875255D01*
X178985000Y-57970630D01*
X178985000Y-58069370D01*
X179010556Y-58164745D01*
X179042457Y-58220000D01*
X178310001Y-58220000D01*
X178310001Y-58589794D01*
X178312909Y-58614874D01*
X178358212Y-58717477D01*
X178437521Y-58796786D01*
X178540128Y-58842091D01*
X178565204Y-58844999D01*
X179160000Y-58844999D01*
X179160000Y-58337542D01*
X179215255Y-58369444D01*
X179310630Y-58395000D01*
X179409370Y-58395000D01*
X179504745Y-58369444D01*
X179560000Y-58337542D01*
X179560000Y-58844999D01*
X180154795Y-58844999D01*
X180179874Y-58842090D01*
X180282477Y-58796787D01*
X180282478Y-58796787D01*
X180361786Y-58717478D01*
X180407091Y-58614871D01*
X180410000Y-58589795D01*
X180410000Y-58220000D01*
X179677543Y-58220000D01*
X179709444Y-58164745D01*
X179735000Y-58069370D01*
X179735000Y-57970630D01*
X179709444Y-57875255D01*
X179677543Y-57820000D01*
X180409999Y-57820000D01*
X180409999Y-57450205D01*
X180407090Y-57425125D01*
X180361787Y-57322522D01*
X180347036Y-57307771D01*
X180308472Y-57240976D01*
X180308472Y-57163848D01*
X180314737Y-57145392D01*
X180316548Y-57141021D01*
X180378776Y-56990789D01*
X180410500Y-56831305D01*
X180410500Y-56668695D01*
X180378776Y-56509211D01*
X180316548Y-56358979D01*
X180226208Y-56223775D01*
X180222792Y-56220359D01*
X180184228Y-56153564D01*
X180184228Y-56076436D01*
X180222792Y-56009641D01*
X180226208Y-56006225D01*
X180316548Y-55871021D01*
X180378776Y-55720789D01*
X180410500Y-55561305D01*
X180410500Y-55398695D01*
X180378776Y-55239211D01*
X180316548Y-55088979D01*
X180226208Y-54953775D01*
X180111225Y-54838792D01*
X179976021Y-54748452D01*
X179976017Y-54748450D01*
X179976015Y-54748449D01*
X179873915Y-54706158D01*
X179825789Y-54686224D01*
X179825787Y-54686223D01*
X179825788Y-54686223D01*
X179666308Y-54654500D01*
X179666305Y-54654500D01*
X179053695Y-54654500D01*
X179053691Y-54654500D01*
X178894212Y-54686223D01*
X178743984Y-54748449D01*
X178743974Y-54748455D01*
X178608776Y-54838791D01*
X178608771Y-54838795D01*
X178493795Y-54953771D01*
X178493791Y-54953776D01*
X178403455Y-55088974D01*
X178403449Y-55088984D01*
X178341223Y-55239212D01*
X178309500Y-55398691D01*
X100500500Y-55398691D01*
X100500500Y-44878706D01*
X103149500Y-44878706D01*
X103149500Y-45121293D01*
X103181160Y-45361781D01*
X103181161Y-45361787D01*
X103181162Y-45361789D01*
X103243946Y-45596100D01*
X103336776Y-45820212D01*
X103458064Y-46030289D01*
X103605735Y-46222738D01*
X103777262Y-46394265D01*
X103969711Y-46541936D01*
X104179788Y-46663224D01*
X104403900Y-46756054D01*
X104638211Y-46818838D01*
X104638217Y-46818838D01*
X104638218Y-46818839D01*
X104703600Y-46827446D01*
X104878712Y-46850500D01*
X105121288Y-46850500D01*
X105361789Y-46818838D01*
X105596100Y-46756054D01*
X105820212Y-46663224D01*
X106030289Y-46541936D01*
X106222738Y-46394265D01*
X106394265Y-46222738D01*
X106541936Y-46030289D01*
X106663224Y-45820212D01*
X106756054Y-45596100D01*
X106818838Y-45361789D01*
X106850500Y-45121288D01*
X106850500Y-44878712D01*
X106850499Y-44878706D01*
X193149500Y-44878706D01*
X193149500Y-45121293D01*
X193181160Y-45361781D01*
X193181161Y-45361787D01*
X193181162Y-45361789D01*
X193243946Y-45596100D01*
X193336776Y-45820212D01*
X193458064Y-46030289D01*
X193605735Y-46222738D01*
X193777262Y-46394265D01*
X193969711Y-46541936D01*
X194179788Y-46663224D01*
X194403900Y-46756054D01*
X194638211Y-46818838D01*
X194638217Y-46818838D01*
X194638218Y-46818839D01*
X194703600Y-46827446D01*
X194878712Y-46850500D01*
X195121288Y-46850500D01*
X195361789Y-46818838D01*
X195596100Y-46756054D01*
X195820212Y-46663224D01*
X196030289Y-46541936D01*
X196222738Y-46394265D01*
X196394265Y-46222738D01*
X196541936Y-46030289D01*
X196663224Y-45820212D01*
X196756054Y-45596100D01*
X196818838Y-45361789D01*
X196850500Y-45121288D01*
X196850500Y-44878712D01*
X196818838Y-44638211D01*
X196756054Y-44403900D01*
X196663224Y-44179788D01*
X196541936Y-43969711D01*
X196394265Y-43777262D01*
X196222738Y-43605735D01*
X196030289Y-43458064D01*
X195960263Y-43417634D01*
X195820216Y-43336778D01*
X195820214Y-43336777D01*
X195820212Y-43336776D01*
X195688932Y-43282398D01*
X195596103Y-43243947D01*
X195596101Y-43243946D01*
X195596100Y-43243946D01*
X195361789Y-43181162D01*
X195361787Y-43181161D01*
X195361781Y-43181160D01*
X195121293Y-43149500D01*
X195121288Y-43149500D01*
X194878712Y-43149500D01*
X194878706Y-43149500D01*
X194638218Y-43181160D01*
X194403896Y-43243947D01*
X194179783Y-43336778D01*
X193969712Y-43458063D01*
X193969711Y-43458064D01*
X193777262Y-43605735D01*
X193777260Y-43605736D01*
X193777256Y-43605740D01*
X193605740Y-43777256D01*
X193458063Y-43969712D01*
X193336778Y-44179783D01*
X193243947Y-44403896D01*
X193181160Y-44638218D01*
X193149500Y-44878706D01*
X106850499Y-44878706D01*
X106818838Y-44638211D01*
X106756054Y-44403900D01*
X106663224Y-44179788D01*
X106541936Y-43969711D01*
X106394265Y-43777262D01*
X106222738Y-43605735D01*
X106030289Y-43458064D01*
X105960263Y-43417634D01*
X105820216Y-43336778D01*
X105820214Y-43336777D01*
X105820212Y-43336776D01*
X105688932Y-43282398D01*
X105596103Y-43243947D01*
X105596101Y-43243946D01*
X105596100Y-43243946D01*
X105361789Y-43181162D01*
X105361787Y-43181161D01*
X105361781Y-43181160D01*
X105121293Y-43149500D01*
X105121288Y-43149500D01*
X104878712Y-43149500D01*
X104878706Y-43149500D01*
X104638218Y-43181160D01*
X104403896Y-43243947D01*
X104179783Y-43336778D01*
X103969712Y-43458063D01*
X103969711Y-43458064D01*
X103777262Y-43605735D01*
X103777260Y-43605736D01*
X103777256Y-43605740D01*
X103605740Y-43777256D01*
X103458063Y-43969712D01*
X103336778Y-44179783D01*
X103243947Y-44403896D01*
X103181160Y-44638218D01*
X103149500Y-44878706D01*
X100500500Y-44878706D01*
X100500500Y-40649500D01*
X100520462Y-40575000D01*
X100575000Y-40520462D01*
X100649500Y-40500500D01*
X199350500Y-40500500D01*
X199425000Y-40520462D01*
G37*
%TD.AperFunction*%
%TD*%
M02*
