%TF.GenerationSoftware,KiCad,Pcbnew,10.0.1*%
%TF.CreationDate,2026-07-16T16:07:39+02:00*%
%TF.ProjectId,BirdNest_pcb,42697264-4e65-4737-945f-7063622e6b69,v2.0*%
%TF.SameCoordinates,Original*%
%TF.FileFunction,Soldermask,Top*%
%TF.FilePolarity,Negative*%
%FSLAX46Y46*%
G04 Gerber Fmt 4.6, Leading zero omitted, Abs format (unit mm)*
G04 Created by KiCad (PCBNEW 10.0.1) date 2026-07-16 16:07:39*
%MOMM*%
%LPD*%
G01*
G04 APERTURE LIST*
G04 Aperture macros list*
%AMRoundRect*
0 Rectangle with rounded corners*
0 $1 Rounding radius*
0 $2 $3 $4 $5 $6 $7 $8 $9 X,Y pos of 4 corners*
0 Add a 4 corners polygon primitive as box body*
4,1,4,$2,$3,$4,$5,$6,$7,$8,$9,$2,$3,0*
0 Add four circle primitives for the rounded corners*
1,1,$1+$1,$2,$3*
1,1,$1+$1,$4,$5*
1,1,$1+$1,$6,$7*
1,1,$1+$1,$8,$9*
0 Add four rect primitives between the rounded corners*
20,1,$1+$1,$2,$3,$4,$5,0*
20,1,$1+$1,$4,$5,$6,$7,0*
20,1,$1+$1,$6,$7,$8,$9,0*
20,1,$1+$1,$8,$9,$2,$3,0*%
%AMOutline4P*
0 Free polygon, 4 corners , with rotation*
0 The origin of the aperture is its center*
0 number of corners: always 4*
0 $1 to $8 corner X, Y*
0 $9 Rotation angle, in degrees counterclockwise*
0 create outline with 4 corners*
4,1,4,$1,$2,$3,$4,$5,$6,$7,$8,$1,$2,$9*%
%AMFreePoly0*
4,1,9,3.862500,-0.866500,0.737500,-0.866500,0.737500,-0.450000,-0.737500,-0.450000,-0.737500,0.450000,0.737500,0.450000,0.737500,0.866500,3.862500,0.866500,3.862500,-0.866500,3.862500,-0.866500,$1*%
G04 Aperture macros list end*
%ADD10C,2.134400*%
%ADD11RoundRect,0.250000X0.650000X-0.412500X0.650000X0.412500X-0.650000X0.412500X-0.650000X-0.412500X0*%
%ADD12RoundRect,0.150000X0.587500X0.150000X-0.587500X0.150000X-0.587500X-0.150000X0.587500X-0.150000X0*%
%ADD13RoundRect,0.250000X0.625000X-0.400000X0.625000X0.400000X-0.625000X0.400000X-0.625000X-0.400000X0*%
%ADD14R,1.700000X1.700000*%
%ADD15C,1.700000*%
%ADD16Outline4P,-1.800000X-1.150000X1.800000X-0.550000X1.800000X0.550000X-1.800000X1.150000X180.000000*%
%ADD17Outline4P,-1.800000X-1.150000X1.800000X-0.550000X1.800000X0.550000X-1.800000X1.150000X0.000000*%
%ADD18C,3.200000*%
%ADD19RoundRect,0.250000X0.550000X-0.550000X0.550000X0.550000X-0.550000X0.550000X-0.550000X-0.550000X0*%
%ADD20C,1.600000*%
%ADD21C,3.450000*%
%ADD22C,2.390000*%
%ADD23RoundRect,0.102000X3.730000X3.235000X-3.730000X3.235000X-3.730000X-3.235000X3.730000X-3.235000X0*%
%ADD24RoundRect,0.250000X0.400000X0.625000X-0.400000X0.625000X-0.400000X-0.625000X0.400000X-0.625000X0*%
%ADD25RoundRect,0.250000X-0.650000X0.412500X-0.650000X-0.412500X0.650000X-0.412500X0.650000X0.412500X0*%
%ADD26RoundRect,0.249999X0.850001X-0.850001X0.850001X0.850001X-0.850001X0.850001X-0.850001X-0.850001X0*%
%ADD27C,2.200000*%
%ADD28RoundRect,0.250000X-0.625000X0.400000X-0.625000X-0.400000X0.625000X-0.400000X0.625000X0.400000X0*%
%ADD29RoundRect,0.250000X-0.400000X-0.625000X0.400000X-0.625000X0.400000X0.625000X-0.400000X0.625000X0*%
%ADD30RoundRect,0.250000X-0.550000X0.550000X-0.550000X-0.550000X0.550000X-0.550000X0.550000X0.550000X0*%
%ADD31RoundRect,0.250000X-0.550000X-0.550000X0.550000X-0.550000X0.550000X0.550000X-0.550000X0.550000X0*%
%ADD32RoundRect,0.102000X-0.500000X-0.700000X0.500000X-0.700000X0.500000X0.700000X-0.500000X0.700000X0*%
%ADD33R,1.500000X1.050000*%
%ADD34O,1.500000X1.050000*%
%ADD35R,1.905000X2.000000*%
%ADD36O,1.905000X2.000000*%
%ADD37RoundRect,0.225000X-0.425000X-0.225000X0.425000X-0.225000X0.425000X0.225000X-0.425000X0.225000X0*%
%ADD38FreePoly0,0.000000*%
%ADD39RoundRect,0.102000X0.500000X0.700000X-0.500000X0.700000X-0.500000X-0.700000X0.500000X-0.700000X0*%
%ADD40RoundRect,0.250000X-0.412500X-0.650000X0.412500X-0.650000X0.412500X0.650000X-0.412500X0.650000X0*%
%ADD41RoundRect,0.250000X0.412500X0.650000X-0.412500X0.650000X-0.412500X-0.650000X0.412500X-0.650000X0*%
%ADD42RoundRect,0.250000X0.550000X0.550000X-0.550000X0.550000X-0.550000X-0.550000X0.550000X-0.550000X0*%
%ADD43C,2.000000*%
%ADD44RoundRect,0.250000X1.050000X-1.050000X1.050000X1.050000X-1.050000X1.050000X-1.050000X-1.050000X0*%
%ADD45C,2.600000*%
%ADD46R,3.600000X2.700000*%
G04 APERTURE END LIST*
D10*
%TO.C,U4*%
X138570000Y-84130000D03*
X161430000Y-84130000D03*
X138570000Y-76510000D03*
X138570000Y-66350000D03*
X161430000Y-81590000D03*
X138570000Y-79050000D03*
X161430000Y-68890000D03*
X161430000Y-66350000D03*
X161430000Y-79050000D03*
X161430000Y-76510000D03*
X161430000Y-71430000D03*
X161430000Y-73970000D03*
X138570000Y-81590000D03*
X138570000Y-71430000D03*
X138570000Y-68890000D03*
X138570000Y-73970000D03*
%TD*%
D11*
%TO.C,C3*%
X174233071Y-58609429D03*
X174233071Y-55484429D03*
%TD*%
D12*
%TO.C,U8*%
X133500000Y-102975000D03*
X133500000Y-101075000D03*
X131625000Y-102025000D03*
%TD*%
D13*
%TO.C,R15*%
X120000000Y-92550000D03*
X120000000Y-89450000D03*
%TD*%
D14*
%TO.C,JP3*%
X170500000Y-68000000D03*
D15*
X170500000Y-65460000D03*
X170500000Y-62920000D03*
%TD*%
D13*
%TO.C,R19*%
X128000000Y-103550000D03*
X128000000Y-100450000D03*
%TD*%
D16*
%TO.C,D6*%
X165900000Y-95500000D03*
D17*
X160100000Y-95500000D03*
%TD*%
D18*
%TO.C,H1*%
X105000000Y-135000000D03*
%TD*%
D19*
%TO.C,C6*%
X167500000Y-112182380D03*
D20*
X167500000Y-109682380D03*
%TD*%
D14*
%TO.C,JP7*%
X127500000Y-92725000D03*
D15*
X127500000Y-95265000D03*
%TD*%
D18*
%TO.C,H3*%
X195000000Y-45000000D03*
%TD*%
D21*
%TO.C,BT1*%
X177000000Y-118000000D03*
X121800000Y-134000000D03*
D22*
X113580000Y-118000000D03*
D23*
X189070000Y-126000000D03*
X109730000Y-126000000D03*
%TD*%
D24*
%TO.C,R25*%
X134000000Y-105500000D03*
X130900000Y-105500000D03*
%TD*%
D11*
%TO.C,C1*%
X166250000Y-87062500D03*
X166250000Y-83937500D03*
%TD*%
D13*
%TO.C,R2*%
X145000000Y-106550000D03*
X145000000Y-103450000D03*
%TD*%
D24*
%TO.C,R17*%
X134050000Y-98500000D03*
X130950000Y-98500000D03*
%TD*%
D18*
%TO.C,H2*%
X195000000Y-135000000D03*
%TD*%
D13*
%TO.C,R18*%
X123000000Y-92550000D03*
X123000000Y-89450000D03*
%TD*%
D21*
%TO.C,*%
X149500000Y-118000000D03*
%TD*%
D25*
%TO.C,C7*%
X117000000Y-89437500D03*
X117000000Y-92562500D03*
%TD*%
D26*
%TO.C,D1*%
X181000000Y-112580000D03*
D27*
X181000000Y-102420000D03*
%TD*%
D28*
%TO.C,R26*%
X129000000Y-83900000D03*
X129000000Y-87000000D03*
%TD*%
D29*
%TO.C,R1*%
X174450000Y-68500000D03*
X177550000Y-68500000D03*
%TD*%
D30*
%TO.C,U7*%
X124540000Y-99695000D03*
D20*
X122000000Y-99695000D03*
X119460000Y-99695000D03*
X116920000Y-99695000D03*
X116920000Y-107315000D03*
X119460000Y-107315000D03*
X122000000Y-107315000D03*
X124540000Y-107315000D03*
%TD*%
D31*
%TO.C,C2*%
X166567621Y-77000000D03*
D20*
X169067621Y-77000000D03*
%TD*%
D32*
%TO.C,Q7*%
X110500000Y-109750000D03*
X112400000Y-109750000D03*
X111450000Y-107550000D03*
%TD*%
D18*
%TO.C,H4*%
X105000000Y-45000000D03*
%TD*%
D13*
%TO.C,R24*%
X123000000Y-87050000D03*
X123000000Y-83950000D03*
%TD*%
D33*
%TO.C,U1*%
X179360000Y-58020000D03*
D34*
X179360000Y-56750000D03*
X179360000Y-55480000D03*
%TD*%
D35*
%TO.C,Q6*%
X132500000Y-94000000D03*
D36*
X135040000Y-94000000D03*
X137580000Y-94000000D03*
%TD*%
D37*
%TO.C,U3*%
X152500000Y-96500000D03*
D38*
X152587500Y-98000000D03*
D37*
X152500000Y-99500000D03*
%TD*%
D29*
%TO.C,R20*%
X109900000Y-112550000D03*
X113000000Y-112550000D03*
%TD*%
D13*
%TO.C,R6*%
X170750000Y-58550000D03*
X170750000Y-55450000D03*
%TD*%
D39*
%TO.C,Q8*%
X145400000Y-110000000D03*
X143500000Y-110000000D03*
X144450000Y-112200000D03*
%TD*%
D40*
%TO.C,C9*%
X160937500Y-103000000D03*
X164062500Y-103000000D03*
%TD*%
D41*
%TO.C,C11*%
X164062500Y-100000000D03*
X160937500Y-100000000D03*
%TD*%
D42*
%TO.C,C12*%
X148182380Y-97000000D03*
D20*
X145682380Y-97000000D03*
%TD*%
D11*
%TO.C,C8*%
X174000000Y-112437500D03*
X174000000Y-109312500D03*
%TD*%
%TO.C,C10*%
X177000000Y-112500000D03*
X177000000Y-109375000D03*
%TD*%
D43*
%TO.C,U2*%
X196005000Y-97095000D03*
X196005000Y-83095000D03*
X173005000Y-97095000D03*
X173005000Y-83095000D03*
X173005000Y-94555000D03*
X173005000Y-85635000D03*
%TD*%
D21*
%TO.C,*%
X149500000Y-134000000D03*
%TD*%
D25*
%TO.C,C21*%
X126000000Y-83887500D03*
X126000000Y-87012500D03*
%TD*%
D28*
%TO.C,R23*%
X111000000Y-97825000D03*
X111000000Y-100925000D03*
%TD*%
D44*
%TO.C,J3*%
X189672500Y-110545000D03*
D45*
X189672500Y-105465000D03*
%TD*%
D44*
%TO.C,J2*%
X190000000Y-76000000D03*
D45*
X190000000Y-70920000D03*
X190000000Y-65840000D03*
%TD*%
D28*
%TO.C,R22*%
X114000000Y-89450000D03*
X114000000Y-92550000D03*
%TD*%
D46*
%TO.C,L1*%
X153000000Y-112150000D03*
X153000000Y-103850000D03*
%TD*%
D25*
%TO.C,C20*%
X114000000Y-97875000D03*
X114000000Y-101000000D03*
%TD*%
D28*
%TO.C,R21*%
X106450000Y-108750000D03*
X106450000Y-111850000D03*
%TD*%
M02*
