%TF.GenerationSoftware,KiCad,Pcbnew,10.0.1*%
%TF.CreationDate,2026-07-16T16:07:39+02:00*%
%TF.ProjectId,BirdNest_pcb,42697264-4e65-4737-945f-7063622e6b69,v2.0*%
%TF.SameCoordinates,Original*%
%TF.FileFunction,Legend,Bot*%
%TF.FilePolarity,Positive*%
%FSLAX46Y46*%
G04 Gerber Fmt 4.6, Leading zero omitted, Abs format (unit mm)*
G04 Created by KiCad (PCBNEW 10.0.1) date 2026-07-16 16:07:39*
%MOMM*%
%LPD*%
G01*
G04 APERTURE LIST*
G04 Aperture macros list*
%AMRoundRect*
0 Rectangle with rounded corners*
0 $1 Rounding radius*
0 $2 $3 $4 $5 $6 $7 $8 $9 X,Y pos of 4 corners*
0 Add a 4 corners polygon primitive as box body*
4,1,4,$2,$3,$4,$5,$6,$7,$8,$9,$2,$3,0*
0 Add four circle primitives for the rounded corners*
1,1,$1+$1,$2,$3*
1,1,$1+$1,$4,$5*
1,1,$1+$1,$6,$7*
1,1,$1+$1,$8,$9*
0 Add four rect primitives between the rounded corners*
20,1,$1+$1,$2,$3,$4,$5,0*
20,1,$1+$1,$4,$5,$6,$7,0*
20,1,$1+$1,$6,$7,$8,$9,0*
20,1,$1+$1,$8,$9,$2,$3,0*%
G04 Aperture macros list end*
%ADD10C,2.134400*%
%ADD11R,1.700000X1.700000*%
%ADD12C,1.700000*%
%ADD13C,3.200000*%
%ADD14RoundRect,0.250000X0.550000X-0.550000X0.550000X0.550000X-0.550000X0.550000X-0.550000X-0.550000X0*%
%ADD15C,1.600000*%
%ADD16C,3.450000*%
%ADD17C,2.390000*%
%ADD18RoundRect,0.249999X0.850001X-0.850001X0.850001X0.850001X-0.850001X0.850001X-0.850001X-0.850001X0*%
%ADD19C,2.200000*%
%ADD20RoundRect,0.250000X-0.550000X0.550000X-0.550000X-0.550000X0.550000X-0.550000X0.550000X0.550000X0*%
%ADD21RoundRect,0.250000X-0.550000X-0.550000X0.550000X-0.550000X0.550000X0.550000X-0.550000X0.550000X0*%
%ADD22R,1.500000X1.050000*%
%ADD23O,1.500000X1.050000*%
%ADD24R,1.905000X2.000000*%
%ADD25O,1.905000X2.000000*%
%ADD26RoundRect,0.250000X0.550000X0.550000X-0.550000X0.550000X-0.550000X-0.550000X0.550000X-0.550000X0*%
%ADD27C,2.000000*%
%ADD28RoundRect,0.250000X1.050000X-1.050000X1.050000X1.050000X-1.050000X1.050000X-1.050000X-1.050000X0*%
%ADD29C,2.600000*%
G04 APERTURE END LIST*
%LPC*%
D10*
%TO.C,U4*%
X138570000Y-84130000D03*
X161430000Y-84130000D03*
X138570000Y-76510000D03*
X138570000Y-66350000D03*
X161430000Y-81590000D03*
X138570000Y-79050000D03*
X161430000Y-68890000D03*
X161430000Y-66350000D03*
X161430000Y-79050000D03*
X161430000Y-76510000D03*
X161430000Y-71430000D03*
X161430000Y-73970000D03*
X138570000Y-81590000D03*
X138570000Y-71430000D03*
X138570000Y-68890000D03*
X138570000Y-73970000D03*
%TD*%
D11*
%TO.C,JP3*%
X170500000Y-68000000D03*
D12*
X170500000Y-65460000D03*
X170500000Y-62920000D03*
%TD*%
D13*
%TO.C,H1*%
X105000000Y-135000000D03*
%TD*%
D14*
%TO.C,C6*%
X167500000Y-112182380D03*
D15*
X167500000Y-109682380D03*
%TD*%
D11*
%TO.C,JP7*%
X127500000Y-92725000D03*
D12*
X127500000Y-95265000D03*
%TD*%
D13*
%TO.C,H3*%
X195000000Y-45000000D03*
%TD*%
D16*
%TO.C,BT1*%
X177000000Y-118000000D03*
X121800000Y-134000000D03*
D17*
X113580000Y-118000000D03*
%TD*%
D13*
%TO.C,H2*%
X195000000Y-135000000D03*
%TD*%
D16*
%TO.C,*%
X149500000Y-118000000D03*
%TD*%
D18*
%TO.C,D1*%
X181000000Y-112580000D03*
D19*
X181000000Y-102420000D03*
%TD*%
D20*
%TO.C,U7*%
X124540000Y-99695000D03*
D15*
X122000000Y-99695000D03*
X119460000Y-99695000D03*
X116920000Y-99695000D03*
X116920000Y-107315000D03*
X119460000Y-107315000D03*
X122000000Y-107315000D03*
X124540000Y-107315000D03*
%TD*%
D21*
%TO.C,C2*%
X166567621Y-77000000D03*
D15*
X169067621Y-77000000D03*
%TD*%
D13*
%TO.C,H4*%
X105000000Y-45000000D03*
%TD*%
D22*
%TO.C,U1*%
X179360000Y-58020000D03*
D23*
X179360000Y-56750000D03*
X179360000Y-55480000D03*
%TD*%
D24*
%TO.C,Q6*%
X132500000Y-94000000D03*
D25*
X135040000Y-94000000D03*
X137580000Y-94000000D03*
%TD*%
D26*
%TO.C,C12*%
X148182380Y-97000000D03*
D15*
X145682380Y-97000000D03*
%TD*%
D27*
%TO.C,U2*%
X196005000Y-97095000D03*
X196005000Y-83095000D03*
X173005000Y-97095000D03*
X173005000Y-83095000D03*
X173005000Y-94555000D03*
X173005000Y-85635000D03*
%TD*%
D16*
%TO.C,*%
X149500000Y-134000000D03*
%TD*%
D28*
%TO.C,J3*%
X189672500Y-110545000D03*
D29*
X189672500Y-105465000D03*
%TD*%
D28*
%TO.C,J2*%
X190000000Y-76000000D03*
D29*
X190000000Y-70920000D03*
X190000000Y-65840000D03*
%TD*%
%LPD*%
M02*
